SplineFontDB: 3.2
FontName: Ubuntu-X-Medium
FullName: Ubuntu X Medium
FamilyName: Ubuntu X Medium
Weight: Medium
Copyright: Copyright 2011 Canonical Ltd.  Licensed under the Ubuntu Font Licence 1.0
Version: 0.81
ItalicAngle: 0
UnderlinePosition: -133
UnderlineWidth: 20
Ascent: 800
Descent: 200
InvalidEm: 0
sfntRevision: 0x0000cccc
LayerCount: 2
Layer: 0 1 "Back" 1
Layer: 1 1 "Fore" 0
XUID: [1021 318 -1407757983 5511068]
StyleMap: 0x0000
FSType: 0
OS2Version: 3
OS2_WeightWidthSlopeOnly: 0
OS2_UseTypoMetrics: 1
CreationTime: 1298378250
ModificationTime: 1711443562
PfmFamily: 17
TTFWeight: 500
TTFWidth: 5
LineGap: 28
VLineGap: 0
Panose: 2 11 6 4 3 6 2 3 2 4
OS2TypoAscent: 776
OS2TypoAOffset: 0
OS2TypoDescent: -185
OS2TypoDOffset: 0
OS2TypoLinegap: 56
OS2WinAscent: 932
OS2WinAOffset: 0
OS2WinDescent: 189
OS2WinDOffset: 0
HheadAscent: 932
HheadAOffset: 0
HheadDescent: -189
HheadDOffset: 0
OS2SubXSize: 700
OS2SubYSize: 650
OS2SubXOff: 0
OS2SubYOff: 140
OS2SupXSize: 700
OS2SupYSize: 650
OS2SupXOff: 0
OS2SupYOff: 477
OS2StrikeYSize: 89
OS2StrikeYPos: 250
OS2CapHeight: 693
OS2XHeight: 523
OS2Vendor: 'DAMA'
OS2CodePages: 2000009f.56010000
OS2UnicodeRanges: e00002ff.5000205b.00000000.00000000
Lookup: 1 0 0 "'locl' Localized Forms in Latin lookup 0" { "'locl' Localized Forms in Latin lookup 0 subtable"  } ['locl' ('latn' <'AZE ' > ) ]
Lookup: 1 0 0 "'locl' Localized Forms in Latin lookup 1" { "'locl' Localized Forms in Latin lookup 1 subtable"  } ['locl' ('latn' <'TRK ' > ) ]
Lookup: 1 0 0 "'locl' Localized Forms in Latin lookup 2" { "'locl' Localized Forms in Latin lookup 2 subtable"  } ['locl' ('latn' <'CRT ' > ) ]
Lookup: 1 0 0 "'locl' Localized Forms in Cyrillic lookup 3" { "'locl' Localized Forms in Cyrillic lookup 3 subtable"  } ['locl' ('cyrl' <'BGR ' > ) ]
Lookup: 1 0 0 "'locl' Localized Forms in Cyrillic lookup 4" { "'locl' Localized Forms in Cyrillic lookup 4 subtable"  } ['locl' ('cyrl' <'MKD ' > ) ]

StartChar: .notdef
Encoding: 1206 -1 0
Width: 500
Flags: W
LayerCount: 2
Fore
SplineSet
50 0 m 1,0,-1
 50 750 l 1,1,-1
 450 750 l 1,2,-1
 450 0 l 1,3,-1
 50 0 l 1,0,-1
400 50 m 1,4,-1
 400 700 l 1,5,-1
 100 700 l 1,6,-1
 100 50 l 1,7,-1
 400 50 l 1,4,-1
EndSplineSet
EndChar

StartChar: exclam
Encoding: 6 33 4
Width: 306
GlyphClass: 2
Flags: W
LayerCount: 2
Fore
SplineSet
218 507 m 2,0,1
 218 424 218 424 212 355 c 128,-1,2
 206 286 206 286 197 216 c 1,3,-1
 111 216 l 1,4,5
 101 286 101 286 95 355.5 c 128,-1,6
 89 425 89 425 89 507 c 2,7,-1
 89 693 l 1,8,-1
 218 693 l 1,9,-1
 218 507 l 2,0,1
233 66 m 256,10,11
 233 31 233 31 210 9 c 128,-1,12
 187 -13 187 -13 153 -13 c 0,13,14
 120 -13 120 -13 96.5 9 c 128,-1,15
 73 31 73 31 73 66 c 256,16,17
 73 101 73 101 96.5 123.5 c 128,-1,18
 120 146 120 146 153 146 c 0,19,20
 187 146 187 146 210 123.5 c 128,-1,21
 233 101 233 101 233 66 c 256,10,11
EndSplineSet
EndChar

StartChar: numbersign
Encoding: 8 35 6
Width: 671
GlyphClass: 2
Flags: W
LayerCount: 2
Fore
SplineSet
372 176 m 1,0,-1
 233 176 l 1,1,-1
 199 0 l 1,2,-1
 92 0 l 1,3,-1
 126 176 l 1,4,-1
 46 176 l 1,5,-1
 46 271 l 1,6,-1
 144 271 l 1,7,-1
 173 422 l 1,8,-1
 46 422 l 1,9,-1
 46 516 l 1,10,-1
 191 516 l 1,11,-1
 225 693 l 1,12,-1
 332 693 l 1,13,-1
 298 516 l 1,14,-1
 437 516 l 1,15,-1
 471 693 l 1,16,-1
 578 693 l 1,17,-1
 544 516 l 1,18,-1
 625 516 l 1,19,-1
 625 422 l 1,20,-1
 526 422 l 1,21,-1
 497 271 l 1,22,-1
 625 271 l 1,23,-1
 625 176 l 1,24,-1
 479 176 l 1,25,-1
 445 0 l 1,26,-1
 338 0 l 1,27,-1
 372 176 l 1,0,-1
251 271 m 1,28,-1
 390 271 l 1,29,-1
 419 422 l 1,30,-1
 280 422 l 1,31,-1
 251 271 l 1,28,-1
EndSplineSet
EndChar

StartChar: dollar
Encoding: 9 36 7
Width: 568
GlyphClass: 2
Flags: W
LayerCount: 2
Fore
SplineSet
234 13 m 1,0,1
 162 18 162 18 117.5 32.5 c 128,-1,2
 73 47 73 47 51 59 c 1,3,-1
 85 154 l 1,4,5
 117 138 117 138 162.5 125 c 128,-1,6
 208 112 208 112 266 112 c 0,7,8
 335 112 335 112 361.5 132.5 c 128,-1,9
 388 153 388 153 388 187 c 0,10,11
 388 210 388 210 377 227 c 128,-1,12
 366 244 366 244 346 257 c 128,-1,13
 326 270 326 270 298.5 281 c 128,-1,14
 271 292 271 292 238 304 c 0,15,16
 207 315 207 315 176.5 329 c 128,-1,17
 146 343 146 343 121.5 363.5 c 128,-1,18
 97 384 97 384 82 413 c 128,-1,19
 67 442 67 442 67 484 c 0,20,21
 67 553 67 553 108 601.5 c 128,-1,22
 149 650 149 650 234 664 c 1,23,-1
 234 776 l 1,24,-1
 338 776 l 1,25,-1
 338 668 l 1,26,27
 386 664 386 664 424 654.5 c 128,-1,28
 462 645 462 645 484 636 c 1,29,-1
 459 537 l 1,30,31
 430 548 430 548 390.5 558 c 128,-1,32
 351 568 351 568 300 568 c 0,33,34
 246 568 246 568 219 548.5 c 128,-1,35
 192 529 192 529 192 495 c 0,36,37
 192 475 192 475 200 461.5 c 128,-1,38
 208 448 208 448 224 437.5 c 128,-1,39
 240 427 240 427 263 417.5 c 128,-1,40
 286 408 286 408 315 398 c 0,41,42
 356 382 356 382 392.5 364.5 c 128,-1,43
 429 347 429 347 456 323.5 c 128,-1,44
 483 300 483 300 498.5 268 c 128,-1,45
 514 236 514 236 514 192 c 0,46,47
 514 126 514 126 473 78 c 128,-1,48
 432 30 432 30 338 16 c 1,49,-1
 338 -109 l 1,50,-1
 234 -109 l 1,51,-1
 234 13 l 1,0,1
EndSplineSet
EndChar

StartChar: percent
Encoding: 10 37 8
Width: 897
GlyphClass: 2
Flags: W
LayerCount: 2
Fore
SplineSet
383 519 m 0,0,1
 383 428 383 428 336.5 379 c 128,-1,2
 290 330 290 330 215 330 c 0,3,4
 178 330 178 330 147 342.5 c 128,-1,5
 116 355 116 355 94 379 c 128,-1,6
 72 403 72 403 59.5 438.5 c 128,-1,7
 47 474 47 474 47 519 c 0,8,9
 47 611 47 611 93.5 659.5 c 128,-1,10
 140 708 140 708 215 708 c 256,11,12
 290 708 290 708 336.5 659.5 c 128,-1,13
 383 611 383 611 383 519 c 0,0,1
288 519 m 256,14,15
 288 572 288 572 268.5 598.5 c 128,-1,16
 249 625 249 625 215 625 c 256,17,18
 181 625 181 625 162 598.5 c 128,-1,19
 143 572 143 572 143 519 c 256,20,21
 143 466 143 466 162 439.5 c 128,-1,22
 181 413 181 413 215 413 c 256,23,24
 249 413 249 413 268.5 439.5 c 128,-1,25
 288 466 288 466 288 519 c 256,14,15
586 693 m 1,26,-1
 701 693 l 1,27,-1
 310 0 l 1,28,-1
 195 0 l 1,29,-1
 586 693 l 1,26,-1
850 173 m 0,30,31
 850 82 850 82 803.5 33 c 128,-1,32
 757 -16 757 -16 682 -16 c 0,33,34
 645 -16 645 -16 614 -3.5 c 128,-1,35
 583 9 583 9 561 33 c 128,-1,36
 539 57 539 57 526.5 92.5 c 128,-1,37
 514 128 514 128 514 173 c 0,38,39
 514 265 514 265 560.5 313.5 c 128,-1,40
 607 362 607 362 682 362 c 256,41,42
 757 362 757 362 803.5 313.5 c 128,-1,43
 850 265 850 265 850 173 c 0,30,31
755 173 m 256,44,45
 755 226 755 226 735.5 252.5 c 128,-1,46
 716 279 716 279 682 279 c 256,47,48
 648 279 648 279 629 252.5 c 128,-1,49
 610 226 610 226 610 173 c 256,50,51
 610 120 610 120 629 93.5 c 128,-1,52
 648 67 648 67 682 67 c 256,53,54
 716 67 716 67 735.5 93.5 c 128,-1,55
 755 120 755 120 755 173 c 256,44,45
EndSplineSet
EndChar

StartChar: ampersand
Encoding: 11 38 9
Width: 684
GlyphClass: 2
Flags: W
LayerCount: 2
Fore
SplineSet
43 184 m 0,0,1
 43 222 43 222 54.5 253 c 128,-1,2
 66 284 66 284 85.5 309 c 128,-1,3
 105 334 105 334 130.5 353 c 128,-1,4
 156 372 156 372 184 387 c 1,5,6
 154 419 154 419 135.5 455 c 128,-1,7
 117 491 117 491 117 531 c 0,8,9
 117 615 117 615 168.5 662 c 128,-1,10
 220 709 220 709 304 709 c 0,11,12
 347 709 347 709 380.5 697 c 128,-1,13
 414 685 414 685 436 664 c 128,-1,14
 458 643 458 643 469.5 614.5 c 128,-1,15
 481 586 481 586 481 554 c 256,16,17
 481 522 481 522 470.5 494 c 128,-1,18
 460 466 460 466 442 442.5 c 128,-1,19
 424 419 424 419 400.5 399.5 c 128,-1,20
 377 380 377 380 350 365 c 1,21,-1
 487 227 l 1,22,23
 501 253 501 253 510 285.5 c 128,-1,24
 519 318 519 318 524 349 c 1,25,-1
 625 336 l 1,26,27
 620 296 620 296 604 247.5 c 128,-1,28
 588 199 588 199 562 155 c 1,29,30
 595 118 595 118 625.5 78.5 c 128,-1,31
 656 39 656 39 676 0 c 1,32,-1
 550 0 l 1,33,34
 540 17 540 17 524.5 37 c 128,-1,35
 509 57 509 57 492 74 c 1,36,37
 451 37 451 37 398 14 c 128,-1,38
 345 -9 345 -9 278 -9 c 256,39,40
 211 -9 211 -9 166 9 c 128,-1,41
 121 27 121 27 93.5 55 c 128,-1,42
 66 83 66 83 54.5 117 c 128,-1,43
 43 151 43 151 43 184 c 0,0,1
159 192 m 0,44,45
 159 175 159 175 165.5 157 c 128,-1,46
 172 139 172 139 186.5 123.5 c 128,-1,47
 201 108 201 108 224.5 98 c 128,-1,48
 248 88 248 88 281 88 c 0,49,50
 326 88 326 88 362.5 102 c 128,-1,51
 399 116 399 116 425 142 c 1,52,-1
 249 321 l 1,53,54
 234 313 234 313 218 302 c 128,-1,55
 202 291 202 291 189 275.5 c 128,-1,56
 176 260 176 260 167.5 239.5 c 128,-1,57
 159 219 159 219 159 192 c 0,44,45
376 549 m 0,58,59
 376 578 376 578 357 598.5 c 128,-1,60
 338 619 338 619 302 619 c 0,61,62
 264 619 264 619 244 596 c 128,-1,63
 224 573 224 573 224 538 c 0,64,65
 224 509 224 509 240 480.5 c 128,-1,66
 256 452 256 452 284 426 c 1,67,68
 303 436 303 436 319.5 448 c 128,-1,69
 336 460 336 460 348.5 475 c 128,-1,70
 361 490 361 490 368.5 508 c 128,-1,71
 376 526 376 526 376 549 c 0,58,59
EndSplineSet
EndChar

StartChar: quotesingle
Encoding: 12 39 10
Width: 260
GlyphClass: 2
Flags: W
LayerCount: 2
Fore
SplineSet
191 760 m 1,0,-1
 191 698 l 2,1,2
 191 650 191 650 184 594.5 c 128,-1,3
 177 539 177 539 168 483 c 1,4,-1
 91 483 l 1,5,6
 81 539 81 539 75 594 c 128,-1,7
 69 649 69 649 69 699 c 2,8,-1
 69 760 l 1,9,-1
 191 760 l 1,0,-1
EndSplineSet
EndChar

StartChar: parenleft
Encoding: 13 40 11
Width: 339
GlyphClass: 2
Flags: W
LayerCount: 2
Fore
SplineSet
195 299 m 256,0,1
 195 176 195 176 232 68 c 128,-1,2
 269 -40 269 -40 335 -129 c 1,3,-1
 250 -185 l 1,4,5
 169 -88 169 -88 122 35.5 c 128,-1,6
 75 159 75 159 75 299 c 256,7,8
 75 439 75 439 122 562.5 c 128,-1,9
 169 686 169 686 250 783 c 1,10,-1
 335 727 l 1,11,12
 269 637 269 637 232 529.5 c 128,-1,13
 195 422 195 422 195 299 c 256,0,1
EndSplineSet
Substitution2: "'case' Case-Sensitive Forms lookup 18 subtable" Parenleft
EndChar

StartChar: parenright
Encoding: 14 41 12
Width: 339
GlyphClass: 2
Flags: W
LayerCount: 2
Fore
SplineSet
144 299 m 256,0,1
 144 422 144 422 107 529.5 c 128,-1,2
 70 637 70 637 4 727 c 1,3,-1
 89 783 l 1,4,5
 170 686 170 686 217 562.5 c 128,-1,6
 264 439 264 439 264 299 c 256,7,8
 264 159 264 159 217 35.5 c 128,-1,9
 170 -88 170 -88 89 -185 c 1,10,-1
 4 -129 l 1,11,12
 70 -40 70 -40 107 68 c 128,-1,13
 144 176 144 176 144 299 c 256,0,1
EndSplineSet
Substitution2: "'case' Case-Sensitive Forms lookup 18 subtable" Parenright
EndChar

StartChar: asterisk
Encoding: 15 42 13
Width: 482
GlyphClass: 2
Flags: W
LayerCount: 2
Fore
SplineSet
268 530 m 1,0,1
 297 549 297 549 331.5 570 c 128,-1,2
 366 591 366 591 399 602 c 2,3,-1
 414 607 l 1,4,-1
 448 503 l 1,5,-1
 432 498 l 2,6,7
 400 488 400 488 359.5 484.5 c 128,-1,8
 319 481 319 481 284 480 c 1,9,10
 312 458 312 458 342.5 432.5 c 128,-1,11
 373 407 373 407 394 378 c 2,12,-1
 404 364 l 1,13,-1
 315 301 l 1,14,-1
 305 314 l 2,15,16
 285 343 285 343 270 380 c 128,-1,17
 255 417 255 417 241 449 c 1,18,19
 228 417 228 417 212.5 380 c 128,-1,20
 197 343 197 343 177 314 c 2,21,-1
 168 301 l 1,22,-1
 78 364 l 1,23,-1
 89 378 l 2,24,25
 109 407 109 407 139.5 432.5 c 128,-1,26
 170 458 170 458 199 480 c 1,27,28
 164 481 164 481 123.5 483.5 c 128,-1,29
 83 486 83 486 50 498 c 2,30,-1
 34 503 l 1,31,-1
 68 607 l 1,32,-1
 83 602 l 2,33,34
 117 591 117 591 151 570 c 128,-1,35
 185 549 185 549 214 530 c 1,36,37
 205 565 205 565 195.5 603 c 128,-1,38
 186 641 186 641 186 676 c 2,39,-1
 186 693 l 1,40,-1
 296 693 l 1,41,-1
 296 676 l 2,42,43
 296 641 296 641 286.5 603 c 128,-1,44
 277 565 277 565 268 530 c 1,0,1
EndSplineSet
EndChar

StartChar: plus
Encoding: 16 43 14
Width: 568
GlyphClass: 2
Flags: W
LayerCount: 2
Fore
SplineSet
52 337 m 1,0,-1
 230 337 l 1,1,-1
 230 533 l 1,2,-1
 338 533 l 1,3,-1
 338 337 l 1,4,-1
 516 337 l 1,5,-1
 516 235 l 1,6,-1
 338 235 l 1,7,-1
 338 39 l 1,8,-1
 230 39 l 1,9,-1
 230 235 l 1,10,-1
 52 235 l 1,11,-1
 52 337 l 1,0,-1
EndSplineSet
EndChar

StartChar: comma
Encoding: 17 44 15
Width: 268
GlyphClass: 2
Flags: W
LayerCount: 2
Fore
SplineSet
202 133 m 1,0,1
 204 116 204 116 204 108 c 128,-1,2
 204 100 204 100 204 92 c 0,3,4
 204 30 204 30 184.5 -36 c 128,-1,5
 165 -102 165 -102 130 -161 c 1,6,-1
 35 -135 l 1,7,8
 59 -77 59 -77 67.5 -21.5 c 128,-1,9
 76 34 76 34 76 76 c 0,10,11
 76 88 76 88 75.5 106 c 128,-1,12
 75 124 75 124 74 133 c 1,13,-1
 202 133 l 1,0,1
EndSplineSet
EndChar

StartChar: hyphen
Encoding: 18 45 16
Width: 315
GlyphClass: 2
Flags: W
LayerCount: 2
Fore
SplineSet
23 341 m 1,0,-1
 292 341 l 1,1,-1
 292 230 l 1,2,-1
 23 230 l 1,3,-1
 23 341 l 1,0,-1
EndSplineSet
Substitution2: "'case' Case-Sensitive Forms lookup 18 subtable" Hyphen
EndChar

StartChar: period
Encoding: 19 46 17
Width: 266
GlyphClass: 2
Flags: W
LayerCount: 2
Fore
SplineSet
213 66 m 256,0,1
 213 31 213 31 189.5 9 c 128,-1,2
 166 -13 166 -13 133 -13 c 0,3,4
 99 -13 99 -13 76 9 c 128,-1,5
 53 31 53 31 53 66 c 256,6,7
 53 101 53 101 76 123.5 c 128,-1,8
 99 146 99 146 133 146 c 0,9,10
 166 146 166 146 189.5 123.5 c 128,-1,11
 213 101 213 101 213 66 c 256,0,1
EndSplineSet
EndChar

StartChar: slash
Encoding: 20 47 18
Width: 416
GlyphClass: 2
Flags: W
LayerCount: 2
Fore
SplineSet
97 -185 m 1,0,-1
 -27 -185 l 1,1,-1
 311 783 l 1,2,-1
 433 783 l 1,3,-1
 97 -185 l 1,0,-1
EndSplineSet
Substitution2: "'case' Case-Sensitive Forms lookup 18 subtable" Slash
Substitution2: "'frac' Diagonal Fractions lookup 14 subtable" fraction
EndChar

StartChar: zero
Encoding: 21 48 19
Width: 568
GlyphClass: 2
Flags: W
LayerCount: 2
Fore
SplineSet
525 347 m 256,0,1
 525 172 525 172 461 78.5 c 128,-1,2
 397 -15 397 -15 284 -15 c 256,3,4
 171 -15 171 -15 107 78.5 c 128,-1,5
 43 172 43 172 43 347 c 0,6,7
 43 434 43 434 59.5 501.5 c 128,-1,8
 76 569 76 569 107.5 615 c 128,-1,9
 139 661 139 661 183.5 685 c 128,-1,10
 228 709 228 709 284 709 c 0,11,12
 397 709 397 709 461 615.5 c 128,-1,13
 525 522 525 522 525 347 c 256,0,1
400 347 m 256,14,15
 400 401 400 401 394 448 c 128,-1,16
 388 495 388 495 374.5 529.5 c 128,-1,17
 361 564 361 564 339 584 c 128,-1,18
 317 604 317 604 284 604 c 256,19,20
 251 604 251 604 228.5 584 c 128,-1,21
 206 564 206 564 192.5 529.5 c 128,-1,22
 179 495 179 495 173.5 448 c 128,-1,23
 168 401 168 401 168 347 c 256,24,25
 168 293 168 293 173.5 246 c 128,-1,26
 179 199 179 199 192.5 164.5 c 128,-1,27
 206 130 206 130 228.5 110 c 128,-1,28
 251 90 251 90 284 90 c 256,29,30
 317 90 317 90 339 110 c 128,-1,31
 361 130 361 130 374.5 164.5 c 128,-1,32
 388 199 388 199 394 246 c 128,-1,33
 400 293 400 293 400 347 c 256,14,15
EndSplineSet
Substitution2: "'frac' Diagonal Fractions lookup 16 subtable" zerosuperior
Substitution2: "'sinf' Scientific Inferiors lookup 13 subtable" zero.sinf
Substitution2: "'subs' Subscript lookup 12 subtable" zero.sinf
Substitution2: "'sups' Superscript lookup 11 subtable" zero.sups
Substitution2: "'dnom' Denominators lookup 10 subtable" zeroinferior
Substitution2: "'numr' Numerators lookup 8 subtable" zerosuperior
Substitution2: "'pnum' Proportional Numbers lookup 6 subtable" zero.alt
EndChar

StartChar: one
Encoding: 22 49 20
Width: 568
GlyphClass: 2
Flags: W
LayerCount: 2
Fore
SplineSet
90 549 m 1,0,1
 148 572 148 572 206.5 608 c 128,-1,2
 265 644 265 644 310 693 c 1,3,-1
 395 693 l 1,4,-1
 395 0 l 1,5,-1
 274 0 l 1,6,-1
 274 531 l 1,7,8
 247 510 247 510 206 490 c 128,-1,9
 165 470 165 470 127 457 c 1,10,-1
 90 549 l 1,0,1
EndSplineSet
Substitution2: "'frac' Diagonal Fractions lookup 16 subtable" onesuperior
Substitution2: "'sinf' Scientific Inferiors lookup 13 subtable" one.sinf
Substitution2: "'subs' Subscript lookup 12 subtable" one.sinf
Substitution2: "'sups' Superscript lookup 11 subtable" one.sups
Substitution2: "'dnom' Denominators lookup 10 subtable" oneinferior
Substitution2: "'numr' Numerators lookup 8 subtable" onesuperior
Substitution2: "'pnum' Proportional Numbers lookup 6 subtable" one.alt
EndChar

StartChar: two
Encoding: 23 50 21
Width: 568
GlyphClass: 2
Flags: W
LayerCount: 2
Fore
SplineSet
481 513 m 0,0,1
 481 477 481 477 466 442.5 c 128,-1,2
 451 408 451 408 427.5 375.5 c 128,-1,3
 404 343 404 343 374 312.5 c 128,-1,4
 344 282 344 282 314 253 c 0,5,6
 298 238 298 238 278 217 c 128,-1,7
 258 196 258 196 240 175 c 128,-1,8
 222 154 222 154 209 134.5 c 128,-1,9
 196 115 196 115 195 102 c 1,10,-1
 503 102 l 1,11,-1
 503 0 l 1,12,-1
 62 0 l 1,13,14
 61 8 61 8 61 19.5 c 128,-1,15
 61 31 61 31 61 37 c 0,16,17
 61 85 61 85 76.5 125.5 c 128,-1,18
 92 166 92 166 117 201 c 128,-1,19
 142 236 142 236 173 267 c 128,-1,20
 204 298 204 298 235 328 c 0,21,22
 259 351 259 351 281 373 c 128,-1,23
 303 395 303 395 319.5 416.5 c 128,-1,24
 336 438 336 438 346 460.5 c 128,-1,25
 356 483 356 483 356 507 c 0,26,27
 356 559 356 559 326 581 c 128,-1,28
 296 603 296 603 253 603 c 0,29,30
 225 603 225 603 201 595 c 128,-1,31
 177 587 177 587 158.5 576 c 128,-1,32
 140 565 140 565 126 553.5 c 128,-1,33
 112 542 112 542 105 535 c 1,34,-1
 45 620 l 1,35,36
 87 660 87 660 143.5 684.5 c 128,-1,37
 200 709 200 709 265 709 c 0,38,39
 376 709 376 709 428.5 656.5 c 128,-1,40
 481 604 481 604 481 513 c 0,0,1
EndSplineSet
Substitution2: "'frac' Diagonal Fractions lookup 16 subtable" twosuperior
Substitution2: "'sinf' Scientific Inferiors lookup 13 subtable" two.sinf
Substitution2: "'subs' Subscript lookup 12 subtable" two.sinf
Substitution2: "'sups' Superscript lookup 11 subtable" two.sups
Substitution2: "'dnom' Denominators lookup 10 subtable" twoinferior
Substitution2: "'numr' Numerators lookup 8 subtable" twosuperior
Substitution2: "'pnum' Proportional Numbers lookup 6 subtable" two.alt
EndChar

StartChar: three
Encoding: 24 51 22
Width: 568
GlyphClass: 2
Flags: W
LayerCount: 2
Fore
SplineSet
236 -15 m 0,0,1
 209 -15 209 -15 180.5 -11.5 c 128,-1,2
 152 -8 152 -8 126.5 -2.5 c 128,-1,3
 101 3 101 3 80 9.5 c 128,-1,4
 59 16 59 16 48 22 c 1,5,-1
 72 125 l 1,6,7
 93 115 93 115 133 102.5 c 128,-1,8
 173 90 173 90 232 90 c 0,9,10
 311 90 311 90 346 120.5 c 128,-1,11
 381 151 381 151 381 202 c 0,12,13
 381 235 381 235 367.5 257 c 128,-1,14
 354 279 354 279 330.5 292.5 c 128,-1,15
 307 306 307 306 276.5 311.5 c 128,-1,16
 246 317 246 317 212 317 c 2,17,-1
 171 317 l 1,18,-1
 171 415 l 1,19,-1
 221 415 l 2,20,21
 244 415 244 415 267.5 419.5 c 128,-1,22
 291 424 291 424 310 435.5 c 128,-1,23
 329 447 329 447 341 466 c 128,-1,24
 353 485 353 485 353 515 c 0,25,26
 353 539 353 539 344 556 c 128,-1,27
 335 573 335 573 320.5 584 c 128,-1,28
 306 595 306 595 287 600 c 128,-1,29
 268 605 268 605 247 605 c 0,30,31
 202 605 202 605 167 591.5 c 128,-1,32
 132 578 132 578 105 561 c 1,33,-1
 61 651 l 1,34,35
 75 660 75 660 95 670 c 128,-1,36
 115 680 115 680 139.5 689 c 128,-1,37
 164 698 164 698 192 703.5 c 128,-1,38
 220 709 220 709 251 709 c 0,39,40
 309 709 309 709 351 695 c 128,-1,41
 393 681 393 681 420.5 655.5 c 128,-1,42
 448 630 448 630 461.5 595.5 c 128,-1,43
 475 561 475 561 475 520 c 0,44,45
 475 472 475 472 448.5 434 c 128,-1,46
 422 396 422 396 380 376 c 1,47,48
 434 357 434 357 469.5 313 c 128,-1,49
 505 269 505 269 505 200 c 0,50,51
 505 154 505 154 489 114.5 c 128,-1,52
 473 75 473 75 440 46.5 c 128,-1,53
 407 18 407 18 356.5 1.5 c 128,-1,54
 306 -15 306 -15 236 -15 c 0,0,1
EndSplineSet
Substitution2: "'frac' Diagonal Fractions lookup 16 subtable" threesuperior
Substitution2: "'sinf' Scientific Inferiors lookup 13 subtable" three.sinf
Substitution2: "'subs' Subscript lookup 12 subtable" three.sinf
Substitution2: "'sups' Superscript lookup 11 subtable" three.sups
Substitution2: "'dnom' Denominators lookup 10 subtable" threeinferior
Substitution2: "'numr' Numerators lookup 8 subtable" threesuperior
Substitution2: "'pnum' Proportional Numbers lookup 6 subtable" three.alt
EndChar

StartChar: four
Encoding: 25 52 23
Width: 568
GlyphClass: 2
Flags: W
LayerCount: 2
Fore
SplineSet
337 544 m 1,0,1
 313 515 313 515 287.5 482 c 128,-1,2
 262 449 262 449 238 413 c 128,-1,3
 214 377 214 377 192 339.5 c 128,-1,4
 170 302 170 302 152 265 c 1,5,-1
 337 265 l 1,6,-1
 337 544 l 1,0,1
455 693 m 1,7,-1
 455 265 l 1,8,-1
 533 265 l 1,9,-1
 533 166 l 1,10,-1
 455 166 l 1,11,-1
 455 0 l 1,12,-1
 337 0 l 1,13,-1
 337 166 l 1,14,-1
 33 166 l 1,15,-1
 33 252 l 1,16,17
 53 296 53 296 86.5 353 c 128,-1,18
 120 410 120 410 161 470 c 128,-1,19
 202 530 202 530 248 588 c 128,-1,20
 294 646 294 646 340 693 c 1,21,-1
 455 693 l 1,7,-1
EndSplineSet
Substitution2: "'frac' Diagonal Fractions lookup 16 subtable" foursuperior
Substitution2: "'sinf' Scientific Inferiors lookup 13 subtable" four.sinf
Substitution2: "'subs' Subscript lookup 12 subtable" four.sinf
Substitution2: "'sups' Superscript lookup 11 subtable" four.sups
Substitution2: "'dnom' Denominators lookup 10 subtable" fourinferior
Substitution2: "'numr' Numerators lookup 8 subtable" foursuperior
Substitution2: "'pnum' Proportional Numbers lookup 6 subtable" four.alt
EndChar

StartChar: five
Encoding: 26 53 24
Width: 568
GlyphClass: 2
Flags: W
LayerCount: 2
Fore
SplineSet
383 198 m 0,0,1
 383 231 383 231 370 257 c 128,-1,2
 357 283 357 283 324.5 301 c 128,-1,3
 292 319 292 319 237.5 328 c 128,-1,4
 183 337 183 337 100 337 c 1,5,6
 111 433 111 433 117 519.5 c 128,-1,7
 123 606 123 606 127 693 c 1,8,-1
 481 693 l 1,9,-1
 481 591 l 1,10,-1
 230 591 l 1,11,12
 229 574 229 574 227.5 552.5 c 128,-1,13
 226 531 226 531 224.5 509 c 128,-1,14
 223 487 223 487 221 467 c 128,-1,15
 219 447 219 447 217 433 c 1,16,17
 365 425 365 425 435.5 365.5 c 128,-1,18
 506 306 506 306 506 203 c 0,19,20
 506 156 506 156 490 116 c 128,-1,21
 474 76 474 76 441 47 c 128,-1,22
 408 18 408 18 358 1.5 c 128,-1,23
 308 -15 308 -15 241 -15 c 0,24,25
 214 -15 214 -15 186 -11 c 128,-1,26
 158 -7 158 -7 132.5 -1.5 c 128,-1,27
 107 4 107 4 87 10 c 128,-1,28
 67 16 67 16 57 21 c 1,29,-1
 80 123 l 1,30,31
 101 113 101 113 140.5 101.5 c 128,-1,32
 180 90 180 90 237 90 c 0,33,34
 276 90 276 90 304 98.5 c 128,-1,35
 332 107 332 107 349.5 122 c 128,-1,36
 367 137 367 137 375 156.5 c 128,-1,37
 383 176 383 176 383 198 c 0,0,1
EndSplineSet
Substitution2: "'frac' Diagonal Fractions lookup 16 subtable" fivesuperior
Substitution2: "'sinf' Scientific Inferiors lookup 13 subtable" five.sinf
Substitution2: "'subs' Subscript lookup 12 subtable" five.sinf
Substitution2: "'sups' Superscript lookup 11 subtable" five.sups
Substitution2: "'dnom' Denominators lookup 10 subtable" fiveinferior
Substitution2: "'numr' Numerators lookup 8 subtable" fivesuperior
Substitution2: "'pnum' Proportional Numbers lookup 6 subtable" five.alt
EndChar

StartChar: six
Encoding: 27 54 25
Width: 568
GlyphClass: 2
Flags: W
LayerCount: 2
Fore
SplineSet
282 337 m 0,0,1
 253 337 253 337 226 332 c 128,-1,2
 199 327 199 327 177 317 c 1,3,4
 176 309 176 309 175.5 299.5 c 128,-1,5
 175 290 175 290 175 281 c 0,6,7
 175 241 175 241 180.5 205.5 c 128,-1,8
 186 170 186 170 199.5 143.5 c 128,-1,9
 213 117 213 117 236.5 101.5 c 128,-1,10
 260 86 260 86 295 86 c 0,11,12
 324 86 324 86 344.5 98 c 128,-1,13
 365 110 365 110 378 129 c 128,-1,14
 391 148 391 148 397 170.5 c 128,-1,15
 403 193 403 193 403 214 c 0,16,17
 403 274 403 274 374 305.5 c 128,-1,18
 345 337 345 337 282 337 c 0,0,1
297 433 m 0,19,20
 359 433 359 433 402.5 415.5 c 128,-1,21
 446 398 446 398 473 368 c 128,-1,22
 500 338 500 338 512.5 298.5 c 128,-1,23
 525 259 525 259 525 216 c 0,24,25
 525 177 525 177 511.5 136 c 128,-1,26
 498 95 498 95 469.5 61.5 c 128,-1,27
 441 28 441 28 398 6.5 c 128,-1,28
 355 -15 355 -15 296 -15 c 0,29,30
 177 -15 177 -15 114.5 63.5 c 128,-1,31
 52 142 52 142 52 280 c 0,32,33
 52 380 52 380 81.5 457.5 c 128,-1,34
 111 535 111 535 165.5 588 c 128,-1,35
 220 641 220 641 297.5 668.5 c 128,-1,36
 375 696 375 696 472 697 c 1,37,-1
 479 597 l 1,38,39
 425 596 425 596 378 585.5 c 128,-1,40
 331 575 331 575 294 553 c 128,-1,41
 257 531 257 531 230.5 496 c 128,-1,42
 204 461 204 461 190 410 c 1,43,44
 239 433 239 433 297 433 c 0,19,20
EndSplineSet
Substitution2: "'frac' Diagonal Fractions lookup 16 subtable" sixsuperior
Substitution2: "'sinf' Scientific Inferiors lookup 13 subtable" six.sinf
Substitution2: "'subs' Subscript lookup 12 subtable" six.sinf
Substitution2: "'sups' Superscript lookup 11 subtable" six.sups
Substitution2: "'dnom' Denominators lookup 10 subtable" sixinferior
Substitution2: "'numr' Numerators lookup 8 subtable" sixsuperior
Substitution2: "'pnum' Proportional Numbers lookup 6 subtable" six.alt
EndChar

StartChar: seven
Encoding: 28 55 26
Width: 568
GlyphClass: 2
Flags: W
LayerCount: 2
Fore
SplineSet
154 0 m 1,0,1
 160 76 160 76 181 160 c 128,-1,2
 202 244 202 244 232.5 323.5 c 128,-1,3
 263 403 263 403 299.5 472.5 c 128,-1,4
 336 542 336 542 372 589 c 1,5,-1
 53 589 l 1,6,-1
 53 693 l 1,7,-1
 516 693 l 1,8,-1
 516 601 l 1,9,10
 483 564 483 564 444 500 c 128,-1,11
 405 436 405 436 370 355.5 c 128,-1,12
 335 275 335 275 309.5 183 c 128,-1,13
 284 91 284 91 278 0 c 1,14,-1
 154 0 l 1,0,1
EndSplineSet
Substitution2: "'frac' Diagonal Fractions lookup 16 subtable" sevensuperior
Substitution2: "'sinf' Scientific Inferiors lookup 13 subtable" seven.sinf
Substitution2: "'subs' Subscript lookup 12 subtable" seven.sinf
Substitution2: "'sups' Superscript lookup 11 subtable" seven.sups
Substitution2: "'dnom' Denominators lookup 10 subtable" seveninferior
Substitution2: "'numr' Numerators lookup 8 subtable" sevensuperior
Substitution2: "'pnum' Proportional Numbers lookup 6 subtable" seven.alt
EndChar

StartChar: eight
Encoding: 29 56 27
Width: 568
GlyphClass: 2
Flags: W
LayerCount: 2
Fore
SplineSet
520 186 m 0,0,1
 520 143 520 143 505 106 c 128,-1,2
 490 69 490 69 460 42 c 128,-1,3
 430 15 430 15 385.5 0 c 128,-1,4
 341 -15 341 -15 283 -15 c 0,5,6
 215 -15 215 -15 170 4 c 128,-1,7
 125 23 125 23 98 52 c 128,-1,8
 71 81 71 81 59.5 114.5 c 128,-1,9
 48 148 48 148 48 178 c 256,10,11
 48 208 48 208 56.5 233.5 c 128,-1,12
 65 259 65 259 80 280.5 c 128,-1,13
 95 302 95 302 114 320 c 128,-1,14
 133 338 133 338 154 352 c 1,15,16
 108 384 108 384 85.5 421.5 c 128,-1,17
 63 459 63 459 63 513 c 0,18,19
 63 552 63 552 78.5 587.5 c 128,-1,20
 94 623 94 623 123 650 c 128,-1,21
 152 677 152 677 193 693 c 128,-1,22
 234 709 234 709 284 709 c 0,23,24
 343 709 343 709 384.5 692 c 128,-1,25
 426 675 426 675 452.5 648 c 128,-1,26
 479 621 479 621 491 588 c 128,-1,27
 503 555 503 555 503 524 c 0,28,29
 503 469 503 469 473 426.5 c 128,-1,30
 443 384 443 384 404 359 c 1,31,32
 463 327 463 327 491.5 285 c 128,-1,33
 520 243 520 243 520 186 c 0,0,1
167 180 m 0,34,35
 167 165 167 165 173 148 c 128,-1,36
 179 131 179 131 193 117 c 128,-1,37
 207 103 207 103 229 93.5 c 128,-1,38
 251 84 251 84 284 84 c 0,39,40
 314 84 314 84 336 92 c 128,-1,41
 358 100 358 100 372 113.5 c 128,-1,42
 386 127 386 127 393 144.5 c 128,-1,43
 400 162 400 162 400 180 c 0,44,45
 400 208 400 208 389 229 c 128,-1,46
 378 250 378 250 357.5 265.5 c 128,-1,47
 337 281 337 281 309 292.5 c 128,-1,48
 281 304 281 304 247 313 c 1,49,50
 211 290 211 290 189 257.5 c 128,-1,51
 167 225 167 225 167 180 c 0,34,35
385 522 m 0,52,53
 385 535 385 535 379.5 550.5 c 128,-1,54
 374 566 374 566 361.5 579 c 128,-1,55
 349 592 349 592 330 601 c 128,-1,56
 311 610 311 610 284 610 c 256,57,58
 257 610 257 610 237.5 601.5 c 128,-1,59
 218 593 218 593 206 579.5 c 128,-1,60
 194 566 194 566 188 550.5 c 128,-1,61
 182 535 182 535 182 520 c 0,62,63
 182 482 182 482 210.5 448 c 128,-1,64
 239 414 239 414 306 394 c 1,65,66
 343 417 343 417 364 446.5 c 128,-1,67
 385 476 385 476 385 522 c 0,52,53
EndSplineSet
Substitution2: "'frac' Diagonal Fractions lookup 16 subtable" eightsuperior
Substitution2: "'sinf' Scientific Inferiors lookup 13 subtable" eight.sinf
Substitution2: "'subs' Subscript lookup 12 subtable" eight.sinf
Substitution2: "'sups' Superscript lookup 11 subtable" eight.sups
Substitution2: "'dnom' Denominators lookup 10 subtable" eightinferior
Substitution2: "'numr' Numerators lookup 8 subtable" eightsuperior
Substitution2: "'pnum' Proportional Numbers lookup 6 subtable" eight.alt
EndChar

StartChar: nine
Encoding: 30 57 28
Width: 568
GlyphClass: 2
Flags: W
LayerCount: 2
Fore
SplineSet
287 359 m 0,0,1
 316 359 316 359 344 364.5 c 128,-1,2
 372 370 372 370 392 381 c 1,3,4
 393 392 393 392 393 400 c 128,-1,5
 393 408 393 408 393 414 c 0,6,7
 393 454 393 454 387.5 489.5 c 128,-1,8
 382 525 382 525 368.5 551.5 c 128,-1,9
 355 578 355 578 331.5 593.5 c 128,-1,10
 308 609 308 609 273 609 c 0,11,12
 244 609 244 609 223.5 597 c 128,-1,13
 203 585 203 585 190 566 c 128,-1,14
 177 547 177 547 171 525 c 128,-1,15
 165 503 165 503 165 482 c 0,16,17
 165 421 165 421 194.5 390 c 128,-1,18
 224 359 224 359 287 359 c 0,0,1
382 286 m 1,19,20
 358 275 358 275 329 269 c 128,-1,21
 300 263 300 263 273 263 c 0,22,23
 211 263 211 263 167.5 279.5 c 128,-1,24
 124 296 124 296 96.5 325.5 c 128,-1,25
 69 355 69 355 56 394 c 128,-1,26
 43 433 43 433 43 478 c 0,27,28
 43 517 43 517 56 557.5 c 128,-1,29
 69 598 69 598 97 632 c 128,-1,30
 125 666 125 666 168 687.5 c 128,-1,31
 211 709 211 709 270 709 c 0,32,33
 392 709 392 709 454.5 630.5 c 128,-1,34
 517 552 517 552 517 409 c 0,35,36
 517 207 517 207 413 103 c 128,-1,37
 309 -1 309 -1 94 -2 c 1,38,-1
 89 99 l 1,39,40
 149 99 149 99 197.5 109 c 128,-1,41
 246 119 246 119 282.5 141 c 128,-1,42
 319 163 319 163 344 198.5 c 128,-1,43
 369 234 369 234 382 286 c 1,19,20
EndSplineSet
Substitution2: "'frac' Diagonal Fractions lookup 16 subtable" ninesuperior
Substitution2: "'sinf' Scientific Inferiors lookup 13 subtable" nine.sinf
Substitution2: "'subs' Subscript lookup 12 subtable" nine.sinf
Substitution2: "'sups' Superscript lookup 11 subtable" nine.sups
Substitution2: "'dnom' Denominators lookup 10 subtable" nineinferior
Substitution2: "'numr' Numerators lookup 8 subtable" ninesuperior
Substitution2: "'pnum' Proportional Numbers lookup 6 subtable" nine.alt
EndChar

StartChar: less
Encoding: 33 60 31
Width: 568
GlyphClass: 2
Flags: W
LayerCount: 2
Fore
SplineSet
52 336 m 1,0,-1
 483 518 l 1,1,-1
 516 419 l 1,2,-1
 181 285 l 1,3,-1
 516 151 l 1,4,-1
 483 52 l 1,5,-1
 52 234 l 1,6,-1
 52 336 l 1,0,-1
EndSplineSet
EndChar

StartChar: equal
Encoding: 34 61 32
Width: 568
GlyphClass: 2
Flags: W
LayerCount: 2
Fore
SplineSet
52 229 m 1,0,-1
 516 229 l 1,1,-1
 516 127 l 1,2,-1
 52 127 l 1,3,-1
 52 229 l 1,0,-1
52 445 m 1,4,-1
 516 445 l 1,5,-1
 516 343 l 1,6,-1
 52 343 l 1,7,-1
 52 445 l 1,4,-1
EndSplineSet
EndChar

StartChar: greater
Encoding: 35 62 33
Width: 568
GlyphClass: 2
Flags: W
LayerCount: 2
Fore
SplineSet
516 234 m 1,0,-1
 85 52 l 1,1,-1
 52 151 l 1,2,-1
 387 285 l 1,3,-1
 52 419 l 1,4,-1
 85 518 l 1,5,-1
 516 336 l 1,6,-1
 516 234 l 1,0,-1
EndSplineSet
EndChar

StartChar: question
Encoding: 36 63 34
Width: 424
GlyphClass: 2
Flags: W
LayerCount: 2
Fore
SplineSet
184 606 m 0,0,1
 149 606 149 606 117 597.5 c 128,-1,2
 85 589 85 589 50 570 c 1,3,-1
 16 663 l 1,4,5
 53 684 53 684 100.5 696.5 c 128,-1,6
 148 709 148 709 198 709 c 0,7,8
 258 709 258 709 297 692.5 c 128,-1,9
 336 676 336 676 359 651 c 128,-1,10
 382 626 382 626 391 596 c 128,-1,11
 400 566 400 566 400 538 c 0,12,13
 400 504 400 504 387.5 477 c 128,-1,14
 375 450 375 450 356 427 c 128,-1,15
 337 404 337 404 315 383.5 c 128,-1,16
 293 363 293 363 274 341.5 c 128,-1,17
 255 320 255 320 242.5 296 c 128,-1,18
 230 272 230 272 230 242 c 0,19,20
 230 237 230 237 230 230.5 c 128,-1,21
 230 224 230 224 231 218 c 1,22,-1
 127 218 l 1,23,24
 125 228 125 228 124 239.5 c 128,-1,25
 123 251 123 251 123 261 c 0,26,27
 123 294 123 294 134 320 c 128,-1,28
 145 346 145 346 162 368 c 128,-1,29
 179 390 179 390 198.5 409 c 128,-1,30
 218 428 218 428 235 447 c 128,-1,31
 252 466 252 466 263 486 c 128,-1,32
 274 506 274 506 274 530 c 0,33,34
 274 563 274 563 251.5 584.5 c 128,-1,35
 229 606 229 606 184 606 c 0,0,1
262 66 m 256,36,37
 262 31 262 31 239 9 c 128,-1,38
 216 -13 216 -13 182 -13 c 0,39,40
 149 -13 149 -13 125.5 9 c 128,-1,41
 102 31 102 31 102 66 c 256,42,43
 102 101 102 101 125.5 123.5 c 128,-1,44
 149 146 149 146 182 146 c 0,45,46
 216 146 216 146 239 123.5 c 128,-1,47
 262 101 262 101 262 66 c 256,36,37
EndSplineSet
EndChar

StartChar: at
Encoding: 37 64 35
Width: 971
GlyphClass: 2
Flags: W
LayerCount: 2
Fore
SplineSet
700 35 m 0,0,1
 670 35 670 35 645 43.5 c 128,-1,2
 620 52 620 52 603 70 c 1,3,4
 581 54 581 54 551.5 46 c 128,-1,5
 522 38 522 38 490 38 c 0,6,7
 441 38 441 38 400.5 53 c 128,-1,8
 360 68 360 68 330.5 98 c 128,-1,9
 301 128 301 128 285 172.5 c 128,-1,10
 269 217 269 217 269 276 c 0,11,12
 269 325 269 325 285 368.5 c 128,-1,13
 301 412 301 412 331.5 444 c 128,-1,14
 362 476 362 476 406.5 494.5 c 128,-1,15
 451 513 451 513 508 513 c 0,16,17
 563 513 563 513 607 504 c 128,-1,18
 651 495 651 495 677 485 c 1,19,-1
 677 175 l 2,20,21
 677 147 677 147 687.5 136.5 c 128,-1,22
 698 126 698 126 716 126 c 0,23,24
 759 126 759 126 783.5 179.5 c 128,-1,25
 808 233 808 233 808 333 c 0,26,27
 808 395 808 395 786.5 448.5 c 128,-1,28
 765 502 765 502 724 541 c 128,-1,29
 683 580 683 580 624.5 602.5 c 128,-1,30
 566 625 566 625 493 625 c 0,31,32
 421 625 421 625 360.5 601 c 128,-1,33
 300 577 300 577 256.5 532 c 128,-1,34
 213 487 213 487 188.5 422 c 128,-1,35
 164 357 164 357 164 275 c 0,36,37
 164 189 164 189 189 124.5 c 128,-1,38
 214 60 214 60 259.5 17 c 128,-1,39
 305 -26 305 -26 368.5 -48 c 128,-1,40
 432 -70 432 -70 510 -70 c 0,41,42
 564 -70 564 -70 605.5 -63.5 c 128,-1,43
 647 -57 647 -57 668 -52 c 1,44,-1
 680 -136 l 1,45,46
 669 -139 669 -139 651.5 -143 c 128,-1,47
 634 -147 634 -147 611.5 -150.5 c 128,-1,48
 589 -154 589 -154 563 -156.5 c 128,-1,49
 537 -159 537 -159 510 -159 c 0,50,51
 417 -159 417 -159 335.5 -134 c 128,-1,52
 254 -109 254 -109 193.5 -56 c 128,-1,53
 133 -3 133 -3 97.5 79 c 128,-1,54
 62 161 62 161 62 275 c 0,55,56
 62 384 62 384 98 466.5 c 128,-1,57
 134 549 134 549 194 603.5 c 128,-1,58
 254 658 254 658 331.5 685.5 c 128,-1,59
 409 713 409 713 493 713 c 0,60,61
 580 713 580 713 656 687 c 128,-1,62
 732 661 732 661 788 611.5 c 128,-1,63
 844 562 844 562 876.5 490 c 128,-1,64
 909 418 909 418 909 326 c 0,65,66
 909 255 909 255 893.5 201 c 128,-1,67
 878 147 878 147 850 110 c 128,-1,68
 822 73 822 73 784 54 c 128,-1,69
 746 35 746 35 700 35 c 0,0,1
571 144 m 1,70,71
 569 155 569 155 567.5 169 c 128,-1,72
 566 183 566 183 566 196 c 2,73,-1
 566 416 l 1,74,75
 546 421 546 421 514 421 c 0,76,77
 480 421 480 421 455.5 410 c 128,-1,78
 431 399 431 399 415 379.5 c 128,-1,79
 399 360 399 360 391.5 333.5 c 128,-1,80
 384 307 384 307 384 276 c 0,81,82
 384 213 384 213 411 172 c 128,-1,83
 438 131 438 131 495 131 c 0,84,85
 513 131 513 131 532.5 133.5 c 128,-1,86
 552 136 552 136 571 144 c 1,70,71
EndSplineSet
Substitution2: "'case' Case-Sensitive Forms lookup 18 subtable" At
EndChar

StartChar: A
Encoding: 38 65 36
Width: 684
GlyphClass: 2
Flags: W
LayerCount: 2
Fore
SplineSet
543 0 m 1,0,1
 529 41 529 41 514 81 c 128,-1,2
 499 121 499 121 485 163 c 1,3,-1
 193 163 l 1,4,5
 179 121 179 121 164.5 80.5 c 128,-1,6
 150 40 150 40 136 0 c 1,7,-1
 5 0 l 1,8,9
 44 111 44 111 79 205 c 128,-1,10
 114 299 114 299 147.5 383 c 128,-1,11
 181 467 181 467 214 543 c 128,-1,12
 247 619 247 619 282 693 c 1,13,-1
 401 693 l 1,14,15
 436 619 436 619 469 543 c 128,-1,16
 502 467 502 467 535.5 383 c 128,-1,17
 569 299 569 299 604.5 205 c 128,-1,18
 640 111 640 111 679 0 c 1,19,-1
 543 0 l 1,0,1
339 559 m 1,20,21
 316 506 316 506 286.5 430 c 128,-1,22
 257 354 257 354 225 265 c 1,23,-1
 453 265 l 1,24,25
 421 354 421 354 391 431 c 128,-1,26
 361 508 361 508 339 559 c 1,20,21
EndSplineSet
EndChar

StartChar: B
Encoding: 39 66 37
Width: 657
GlyphClass: 2
Flags: W
LayerCount: 2
Fore
SplineSet
292 -8 m 0,0,1
 237 -8 237 -8 181 -4.5 c 128,-1,2
 125 -1 125 -1 83 10 c 1,3,-1
 83 683 l 1,4,5
 105 687 105 687 130 690.5 c 128,-1,6
 155 694 155 694 181 696 c 128,-1,7
 207 698 207 698 232.5 699 c 128,-1,8
 258 700 258 700 281 700 c 0,9,10
 344 700 344 700 398 690.5 c 128,-1,11
 452 681 452 681 491.5 659 c 128,-1,12
 531 637 531 637 553 601 c 128,-1,13
 575 565 575 565 575 512 c 0,14,15
 575 463 575 463 551.5 428 c 128,-1,16
 528 393 528 393 486 372 c 1,17,18
 549 351 549 351 579 310 c 128,-1,19
 609 269 609 269 609 206 c 0,20,21
 609 99 609 99 531 45.5 c 128,-1,22
 453 -8 453 -8 292 -8 c 0,0,1
207 312 m 1,23,-1
 207 101 l 1,24,25
 228 99 228 99 252 98 c 128,-1,26
 276 97 276 97 296 97 c 0,27,28
 335 97 335 97 368.5 102 c 128,-1,29
 402 107 402 107 426.5 119.5 c 128,-1,30
 451 132 451 132 465.5 153 c 128,-1,31
 480 174 480 174 480 207 c 0,32,33
 480 266 480 266 437 289 c 128,-1,34
 394 312 394 312 318 312 c 2,35,-1
 207 312 l 1,23,-1
207 411 m 1,36,-1
 296 411 l 2,37,38
 368 411 368 411 409 431.5 c 128,-1,39
 450 452 450 452 450 505 c 0,40,41
 450 555 450 555 407.5 576 c 128,-1,42
 365 597 365 597 297 597 c 0,43,44
 268 597 268 597 245.5 596 c 128,-1,45
 223 595 223 595 207 593 c 1,46,-1
 207 411 l 1,36,-1
EndSplineSet
EndChar

StartChar: C
Encoding: 40 67 38
Width: 638
GlyphClass: 2
Flags: W
LayerCount: 2
Fore
SplineSet
391 -15 m 0,0,1
 313 -15 313 -15 251 9 c 128,-1,2
 189 33 189 33 146 79.5 c 128,-1,3
 103 126 103 126 80 193 c 128,-1,4
 57 260 57 260 57 347 c 256,5,6
 57 434 57 434 83.5 501 c 128,-1,7
 110 568 110 568 156 614.5 c 128,-1,8
 202 661 202 661 264 685 c 128,-1,9
 326 709 326 709 397 709 c 0,10,11
 440 709 440 709 475 702.5 c 128,-1,12
 510 696 510 696 536 688 c 128,-1,13
 562 680 562 680 579 671 c 128,-1,14
 596 662 596 662 603 658 c 1,15,-1
 566 555 l 1,16,17
 542 570 542 570 497.5 583.5 c 128,-1,18
 453 597 453 597 401 597 c 0,19,20
 356 597 356 597 317 581.5 c 128,-1,21
 278 566 278 566 249.5 535 c 128,-1,22
 221 504 221 504 205 457 c 128,-1,23
 189 410 189 410 189 348 c 0,24,25
 189 293 189 293 201.5 247 c 128,-1,26
 214 201 214 201 240 167.5 c 128,-1,27
 266 134 266 134 306 115.5 c 128,-1,28
 346 97 346 97 402 97 c 0,29,30
 469 97 469 97 511 110.5 c 128,-1,31
 553 124 553 124 576 136 c 1,32,-1
 610 33 l 1,33,34
 598 25 598 25 577.5 17 c 128,-1,35
 557 9 557 9 529 1.5 c 128,-1,36
 501 -6 501 -6 466 -10.5 c 128,-1,37
 431 -15 431 -15 391 -15 c 0,0,1
EndSplineSet
EndChar

StartChar: D
Encoding: 41 68 39
Width: 726
GlyphClass: 2
Flags: W
LayerCount: 2
Fore
SplineSet
209 104 m 1,0,1
 220 103 220 103 238 102.5 c 128,-1,2
 256 102 256 102 287 102 c 0,3,4
 414 102 414 102 476.5 166.5 c 128,-1,5
 539 231 539 231 539 347 c 0,6,7
 539 465 539 465 478 528 c 128,-1,8
 417 591 417 591 289 591 c 0,9,10
 233 591 233 591 209 588 c 1,11,-1
 209 104 l 1,0,1
671 347 m 0,12,13
 671 257 671 257 643 190.5 c 128,-1,14
 615 124 615 124 563.5 79.5 c 128,-1,15
 512 35 512 35 439.5 13.5 c 128,-1,16
 367 -8 367 -8 279 -8 c 0,17,18
 237 -8 237 -8 184 -4.5 c 128,-1,19
 131 -1 131 -1 83 10 c 1,20,-1
 83 683 l 1,21,22
 131 694 131 694 185 697 c 128,-1,23
 239 700 239 700 281 700 c 0,24,25
 368 700 368 700 440 679.5 c 128,-1,26
 512 659 512 659 563.5 615.5 c 128,-1,27
 615 572 615 572 643 505.5 c 128,-1,28
 671 439 671 439 671 347 c 0,12,13
EndSplineSet
EndChar

StartChar: E
Encoding: 42 69 40
Width: 586
GlyphClass: 2
Flags: W
LayerCount: 2
Fore
SplineSet
83 0 m 1,0,-1
 83 693 l 1,1,-1
 528 693 l 1,2,-1
 528 586 l 1,3,-1
 209 586 l 1,4,-1
 209 415 l 1,5,-1
 493 415 l 1,6,-1
 493 310 l 1,7,-1
 209 310 l 1,8,-1
 209 107 l 1,9,-1
 552 107 l 1,10,-1
 552 0 l 1,11,-1
 83 0 l 1,0,-1
EndSplineSet
EndChar

StartChar: F
Encoding: 43 70 41
Width: 551
GlyphClass: 2
Flags: W
LayerCount: 2
Fore
SplineSet
83 0 m 1,0,-1
 83 693 l 1,1,-1
 521 693 l 1,2,-1
 521 586 l 1,3,-1
 209 586 l 1,4,-1
 209 409 l 1,5,-1
 486 409 l 1,6,-1
 486 302 l 1,7,-1
 209 302 l 1,8,-1
 209 0 l 1,9,-1
 83 0 l 1,0,-1
EndSplineSet
EndChar

StartChar: G
Encoding: 44 71 42
Width: 683
GlyphClass: 2
Flags: W
LayerCount: 2
Fore
SplineSet
407 598 m 0,0,1
 300 598 300 598 243.5 531.5 c 128,-1,2
 187 465 187 465 187 347 c 0,3,4
 187 291 187 291 200.5 244.5 c 128,-1,5
 214 198 214 198 240.5 165 c 128,-1,6
 267 132 267 132 306.5 113.5 c 128,-1,7
 346 95 346 95 399 95 c 0,8,9
 432 95 432 95 456 97.5 c 128,-1,10
 480 100 480 100 494 104 c 1,11,-1
 494 353 l 1,12,-1
 620 353 l 1,13,-1
 620 20 l 1,14,15
 594 10 594 10 532 -2 c 128,-1,16
 470 -14 470 -14 389 -14 c 0,17,18
 314 -14 314 -14 252 10 c 128,-1,19
 190 34 190 34 146.5 80 c 128,-1,20
 103 126 103 126 79 193 c 128,-1,21
 55 260 55 260 55 347 c 256,22,23
 55 434 55 434 81.5 501 c 128,-1,24
 108 568 108 568 154 614.5 c 128,-1,25
 200 661 200 661 262 685 c 128,-1,26
 324 709 324 709 394 709 c 0,27,28
 442 709 442 709 479.5 702.5 c 128,-1,29
 517 696 517 696 544 688 c 128,-1,30
 571 680 571 680 588.5 671 c 128,-1,31
 606 662 606 662 613 658 c 1,32,-1
 575 555 l 1,33,34
 545 573 545 573 500.5 585.5 c 128,-1,35
 456 598 456 598 407 598 c 0,0,1
EndSplineSet
EndChar

StartChar: H
Encoding: 45 72 43
Width: 719
GlyphClass: 2
Flags: W
LayerCount: 2
Fore
SplineSet
510 693 m 1,0,-1
 636 693 l 1,1,-1
 636 0 l 1,2,-1
 510 0 l 1,3,-1
 510 307 l 1,4,-1
 209 307 l 1,5,-1
 209 0 l 1,6,-1
 83 0 l 1,7,-1
 83 693 l 1,8,-1
 209 693 l 1,9,-1
 209 416 l 1,10,-1
 510 416 l 1,11,-1
 510 693 l 1,0,-1
EndSplineSet
EndChar

StartChar: I
Encoding: 46 73 44
Width: 292
GlyphClass: 2
Flags: W
LayerCount: 2
Fore
SplineSet
83 693 m 1,0,-1
 209 693 l 1,1,-1
 209 0 l 1,2,-1
 83 0 l 1,3,-1
 83 693 l 1,0,-1
EndSplineSet
EndChar

StartChar: J
Encoding: 47 74 45
Width: 513
GlyphClass: 2
Flags: W
LayerCount: 2
Fore
SplineSet
435 228 m 2,0,1
 435 177 435 177 424 133 c 128,-1,2
 413 89 413 89 385.5 56 c 128,-1,3
 358 23 358 23 311.5 4 c 128,-1,4
 265 -15 265 -15 194 -15 c 0,5,6
 128 -15 128 -15 79.5 3.5 c 128,-1,7
 31 22 31 22 5 43 c 1,8,-1
 50 142 l 1,9,10
 75 125 75 125 111.5 109.5 c 128,-1,11
 148 94 148 94 186 94 c 0,12,13
 250 94 250 94 279 126 c 128,-1,14
 308 158 308 158 308 236 c 2,15,-1
 308 693 l 1,16,-1
 435 693 l 1,17,-1
 435 228 l 2,0,1
EndSplineSet
EndChar

StartChar: K
Encoding: 48 75 46
Width: 651
GlyphClass: 2
Flags: W
LayerCount: 2
Fore
SplineSet
497 0 m 1,0,1
 471 40 471 40 437 84 c 128,-1,2
 403 128 403 128 365.5 169 c 128,-1,3
 328 210 328 210 288 247 c 128,-1,4
 248 284 248 284 209 311 c 1,5,-1
 209 0 l 1,6,-1
 83 0 l 1,7,-1
 83 693 l 1,8,-1
 209 693 l 1,9,-1
 209 407 l 1,10,11
 242 440 242 440 278 477.5 c 128,-1,12
 314 515 314 515 349.5 553.5 c 128,-1,13
 385 592 385 592 417 628 c 128,-1,14
 449 664 449 664 475 693 c 1,15,-1
 626 693 l 1,16,17
 593 655 593 655 556 614 c 128,-1,18
 519 573 519 573 480 531.5 c 128,-1,19
 441 490 441 490 401.5 449 c 128,-1,20
 362 408 362 408 324 371 c 1,21,22
 366 339 366 339 409.5 296.5 c 128,-1,23
 453 254 453 254 495 205.5 c 128,-1,24
 537 157 537 157 575.5 104.5 c 128,-1,25
 614 52 614 52 646 0 c 1,26,-1
 497 0 l 1,0,1
EndSplineSet
EndChar

StartChar: L
Encoding: 49 76 47
Width: 534
GlyphClass: 2
Flags: W
LayerCount: 2
Fore
SplineSet
521 109 m 1,0,-1
 521 0 l 1,1,-1
 83 0 l 1,2,-1
 83 693 l 1,3,-1
 209 693 l 1,4,-1
 209 109 l 1,5,-1
 521 109 l 1,0,-1
EndSplineSet
EndChar

StartChar: M
Encoding: 50 77 48
Width: 884
GlyphClass: 2
Flags: W
LayerCount: 2
Fore
SplineSet
234 693 m 1,0,1
 256 655 256 655 283 600 c 128,-1,2
 310 545 310 545 338 484.5 c 128,-1,3
 366 424 366 424 393.5 361.5 c 128,-1,4
 421 299 421 299 444 246 c 1,5,6
 467 299 467 299 494 361.5 c 128,-1,7
 521 424 521 424 549 484.5 c 128,-1,8
 577 545 577 545 604 600 c 128,-1,9
 631 655 631 655 653 693 c 1,10,-1
 767 693 l 1,11,12
 776 617 776 617 784 531.5 c 128,-1,13
 792 446 792 446 798.5 356.5 c 128,-1,14
 805 267 805 267 810.5 176.5 c 128,-1,15
 816 86 816 86 820 0 c 1,16,-1
 696 0 l 1,17,18
 692 121 692 121 686.5 249 c 128,-1,19
 681 377 681 377 670 497 c 1,20,21
 659 474 659 474 644 442 c 128,-1,22
 629 410 629 410 612 372.5 c 128,-1,23
 595 335 595 335 577.5 295 c 128,-1,24
 560 255 560 255 543.5 217.5 c 128,-1,25
 527 180 527 180 513 147.5 c 128,-1,26
 499 115 499 115 489 92 c 1,27,-1
 395 92 l 1,28,29
 385 115 385 115 371 148 c 128,-1,30
 357 181 357 181 340.5 218.5 c 128,-1,31
 324 256 324 256 306.5 296 c 128,-1,32
 289 336 289 336 272 373 c 128,-1,33
 255 410 255 410 240 442.5 c 128,-1,34
 225 475 225 475 214 497 c 1,35,36
 203 377 203 377 197.5 249 c 128,-1,37
 192 121 192 121 188 0 c 1,38,-1
 64 0 l 1,39,40
 68 86 68 86 73.5 178 c 128,-1,41
 79 270 79 270 85.5 360.5 c 128,-1,42
 92 451 92 451 100 536 c 128,-1,43
 108 621 108 621 117 693 c 1,44,-1
 234 693 l 1,0,1
EndSplineSet
EndChar

StartChar: N
Encoding: 51 78 49
Width: 740
GlyphClass: 2
Flags: W
LayerCount: 2
Fore
SplineSet
550 0 m 1,0,1
 516 57 516 57 474 122.5 c 128,-1,2
 432 188 432 188 387 254.5 c 128,-1,3
 342 321 342 321 295.5 383.5 c 128,-1,4
 249 446 249 446 207 496 c 1,5,-1
 207 0 l 1,6,-1
 83 0 l 1,7,-1
 83 693 l 1,8,-1
 186 693 l 1,9,10
 226 651 226 651 272 593.5 c 128,-1,11
 318 536 318 536 364.5 474 c 128,-1,12
 411 412 411 412 454.5 349.5 c 128,-1,13
 498 287 498 287 532 233 c 1,14,-1
 532 693 l 1,15,-1
 657 693 l 1,16,-1
 657 0 l 1,17,-1
 550 0 l 1,0,1
EndSplineSet
EndChar

StartChar: O
Encoding: 52 79 50
Width: 782
GlyphClass: 2
Flags: W
LayerCount: 2
Fore
SplineSet
186 347 m 256,0,1
 186 290 186 290 200 243.5 c 128,-1,2
 214 197 214 197 240.5 164.5 c 128,-1,3
 267 132 267 132 305 114 c 128,-1,4
 343 96 343 96 391 96 c 0,5,6
 438 96 438 96 476 114 c 128,-1,7
 514 132 514 132 540.5 164.5 c 128,-1,8
 567 197 567 197 581 243.5 c 128,-1,9
 595 290 595 290 595 347 c 256,10,11
 595 404 595 404 581 450.5 c 128,-1,12
 567 497 567 497 540.5 529.5 c 128,-1,13
 514 562 514 562 476 580 c 128,-1,14
 438 598 438 598 391 598 c 0,15,16
 343 598 343 598 305 580 c 128,-1,17
 267 562 267 562 240.5 529 c 128,-1,18
 214 496 214 496 200 450 c 128,-1,19
 186 404 186 404 186 347 c 256,0,1
727 347 m 256,20,21
 727 258 727 258 700.5 190 c 128,-1,22
 674 122 674 122 628.5 76.5 c 128,-1,23
 583 31 583 31 522 8 c 128,-1,24
 461 -15 461 -15 392 -15 c 256,25,26
 323 -15 323 -15 261.5 8 c 128,-1,27
 200 31 200 31 154.5 76.5 c 128,-1,28
 109 122 109 122 82 190 c 128,-1,29
 55 258 55 258 55 347 c 256,30,31
 55 436 55 436 82 503.5 c 128,-1,32
 109 571 109 571 155.5 617 c 128,-1,33
 202 663 202 663 263 686 c 128,-1,34
 324 709 324 709 392 709 c 256,35,36
 460 709 460 709 521 686 c 128,-1,37
 582 663 582 663 627.5 617 c 128,-1,38
 673 571 673 571 700 503.5 c 128,-1,39
 727 436 727 436 727 347 c 256,20,21
EndSplineSet
EndChar

StartChar: P
Encoding: 53 80 51
Width: 623
GlyphClass: 2
Flags: W
LayerCount: 2
Fore
SplineSet
279 700 m 0,0,1
 430 700 430 700 510.5 645 c 128,-1,2
 591 590 591 590 591 473 c 0,3,4
 591 412 591 412 569.5 368.5 c 128,-1,5
 548 325 548 325 507 297.5 c 128,-1,6
 466 270 466 270 407 257 c 128,-1,7
 348 244 348 244 272 244 c 2,8,-1
 209 244 l 1,9,-1
 209 0 l 1,10,-1
 83 0 l 1,11,-1
 83 683 l 1,12,13
 127 693 127 693 180.5 696.5 c 128,-1,14
 234 700 234 700 279 700 c 0,0,1
288 591 m 0,15,16
 240 591 240 591 209 588 c 1,17,-1
 209 352 l 1,18,-1
 270 352 l 2,19,20
 361 352 361 352 410 377.5 c 128,-1,21
 459 403 459 403 459 474 c 0,22,23
 459 508 459 508 446 531 c 128,-1,24
 433 554 433 554 410 567 c 128,-1,25
 387 580 387 580 355.5 585.5 c 128,-1,26
 324 591 324 591 288 591 c 0,15,16
EndSplineSet
EndChar

StartChar: Q
Encoding: 54 81 52
Width: 782
GlyphClass: 2
Flags: W
LayerCount: 2
Fore
SplineSet
186 347 m 256,0,1
 186 290 186 290 200 243.5 c 128,-1,2
 214 197 214 197 240.5 164.5 c 128,-1,3
 267 132 267 132 305 114 c 128,-1,4
 343 96 343 96 391 96 c 0,5,6
 438 96 438 96 476 114 c 128,-1,7
 514 132 514 132 540.5 164.5 c 128,-1,8
 567 197 567 197 581 243.5 c 128,-1,9
 595 290 595 290 595 347 c 256,10,11
 595 404 595 404 581 450.5 c 128,-1,12
 567 497 567 497 540.5 529.5 c 128,-1,13
 514 562 514 562 476 580 c 128,-1,14
 438 598 438 598 391 598 c 0,15,16
 343 598 343 598 305 580 c 128,-1,17
 267 562 267 562 240.5 529 c 128,-1,18
 214 496 214 496 200 450 c 128,-1,19
 186 404 186 404 186 347 c 256,0,1
727 347 m 0,20,21
 727 272 727 272 708 212 c 128,-1,22
 689 152 689 152 655 107.5 c 128,-1,23
 621 63 621 63 575.5 35 c 128,-1,24
 530 7 530 7 476 -5 c 1,25,26
 479 -26 479 -26 497 -41 c 128,-1,27
 515 -56 515 -56 542.5 -66 c 128,-1,28
 570 -76 570 -76 605.5 -82.5 c 128,-1,29
 641 -89 641 -89 680 -92 c 1,30,-1
 652 -187 l 1,31,32
 523 -177 523 -177 447 -137.5 c 128,-1,33
 371 -98 371 -98 350 -12 c 1,34,35
 288 -6 288 -6 234.5 20 c 128,-1,36
 181 46 181 46 141 91 c 128,-1,37
 101 136 101 136 78 200 c 128,-1,38
 55 264 55 264 55 347 c 0,39,40
 55 436 55 436 82 503.5 c 128,-1,41
 109 571 109 571 155.5 617 c 128,-1,42
 202 663 202 663 263 686 c 128,-1,43
 324 709 324 709 392 709 c 256,44,45
 460 709 460 709 521 686 c 128,-1,46
 582 663 582 663 627.5 617 c 128,-1,47
 673 571 673 571 700 503.5 c 128,-1,48
 727 436 727 436 727 347 c 0,20,21
EndSplineSet
EndChar

StartChar: R
Encoding: 55 82 53
Width: 640
GlyphClass: 2
Flags: W
LayerCount: 2
Fore
SplineSet
274 700 m 0,0,1
 424 700 424 700 503.5 645 c 128,-1,2
 583 590 583 590 583 477 c 0,3,4
 583 336 583 336 444 286 c 1,5,6
 463 263 463 263 487 230 c 128,-1,7
 511 197 511 197 536 158.5 c 128,-1,8
 561 120 561 120 584 79.5 c 128,-1,9
 607 39 607 39 625 0 c 1,10,-1
 484 0 l 1,11,12
 465 36 465 36 443 72.5 c 128,-1,13
 421 109 421 109 398.5 143.5 c 128,-1,14
 376 178 376 178 354 208.5 c 128,-1,15
 332 239 332 239 313 263 c 1,16,17
 299 262 299 262 289 262 c 128,-1,18
 279 262 279 262 270 262 c 2,19,-1
 209 262 l 1,20,-1
 209 0 l 1,21,-1
 83 0 l 1,22,-1
 83 683 l 1,23,24
 129 693 129 693 181 696.5 c 128,-1,25
 233 700 233 700 274 700 c 0,0,1
283 591 m 0,26,27
 243 591 243 591 209 588 c 1,28,-1
 209 364 l 1,29,-1
 264 364 l 2,30,31
 310 364 310 364 345 369 c 128,-1,32
 380 374 380 374 403.5 387 c 128,-1,33
 427 400 427 400 439 422 c 128,-1,34
 451 444 451 444 451 478 c 0,35,36
 451 510 451 510 439 532 c 128,-1,37
 427 554 427 554 404.5 567 c 128,-1,38
 382 580 382 580 351 585.5 c 128,-1,39
 320 591 320 591 283 591 c 0,26,27
EndSplineSet
EndChar

StartChar: S
Encoding: 56 83 54
Width: 540
GlyphClass: 2
Flags: W
LayerCount: 2
Fore
SplineSet
251 94 m 0,0,1
 319 94 319 94 350 117 c 128,-1,2
 381 140 381 140 381 182 c 0,3,4
 381 207 381 207 370.5 225 c 128,-1,5
 360 243 360 243 340.5 257.5 c 128,-1,6
 321 272 321 272 293 284.5 c 128,-1,7
 265 297 265 297 229 309 c 0,8,9
 193 322 193 322 159.5 337.5 c 128,-1,10
 126 353 126 353 100.5 376 c 128,-1,11
 75 399 75 399 59.5 431 c 128,-1,12
 44 463 44 463 44 508 c 0,13,14
 44 602 44 602 109 655.5 c 128,-1,15
 174 709 174 709 286 709 c 0,16,17
 351 709 351 709 401.5 694.5 c 128,-1,18
 452 680 452 680 481 663 c 1,19,-1
 442 561 l 1,20,21
 408 580 408 580 367.5 590 c 128,-1,22
 327 600 327 600 284 600 c 0,23,24
 233 600 233 600 204.5 579 c 128,-1,25
 176 558 176 558 176 520 c 0,26,27
 176 497 176 497 185.5 480.5 c 128,-1,28
 195 464 195 464 212.5 451 c 128,-1,29
 230 438 230 438 253.5 427 c 128,-1,30
 277 416 277 416 305 406 c 0,31,32
 354 388 354 388 392.5 369.5 c 128,-1,33
 431 351 431 351 457.5 325.5 c 128,-1,34
 484 300 484 300 498 265.5 c 128,-1,35
 512 231 512 231 512 182 c 0,36,37
 512 88 512 88 445.5 36.5 c 128,-1,38
 379 -15 379 -15 251 -15 c 0,39,40
 208 -15 208 -15 172.5 -9.5 c 128,-1,41
 137 -4 137 -4 109.5 4 c 128,-1,42
 82 12 82 12 62 20.5 c 128,-1,43
 42 29 42 29 30 36 c 1,44,-1
 67 139 l 1,45,46
 94 124 94 124 140 109 c 128,-1,47
 186 94 186 94 251 94 c 0,0,1
EndSplineSet
EndChar

StartChar: T
Encoding: 57 84 55
Width: 579
GlyphClass: 2
Flags: W
LayerCount: 2
Fore
SplineSet
566 693 m 1,0,-1
 566 584 l 1,1,-1
 353 584 l 1,2,-1
 353 0 l 1,3,-1
 226 0 l 1,4,-1
 226 584 l 1,5,-1
 13 584 l 1,6,-1
 13 693 l 1,7,-1
 566 693 l 1,0,-1
EndSplineSet
EndChar

StartChar: U
Encoding: 58 85 56
Width: 703
GlyphClass: 2
Flags: W
LayerCount: 2
Fore
SplineSet
350 -15 m 256,0,1
 279 -15 279 -15 228 5.5 c 128,-1,2
 177 26 177 26 143.5 63 c 128,-1,3
 110 100 110 100 94 150 c 128,-1,4
 78 200 78 200 78 260 c 2,5,-1
 78 693 l 1,6,-1
 205 693 l 1,7,-1
 205 272 l 2,8,9
 205 225 205 225 215.5 191.5 c 128,-1,10
 226 158 226 158 245.5 137 c 128,-1,11
 265 116 265 116 291.5 106 c 128,-1,12
 318 96 318 96 351 96 c 256,13,14
 384 96 384 96 411 106 c 128,-1,15
 438 116 438 116 457.5 137 c 128,-1,16
 477 158 477 158 487.5 191.5 c 128,-1,17
 498 225 498 225 498 272 c 2,18,-1
 498 693 l 1,19,-1
 625 693 l 1,20,-1
 625 260 l 2,21,22
 625 200 625 200 608.5 150 c 128,-1,23
 592 100 592 100 558.5 63 c 128,-1,24
 525 26 525 26 473 5.5 c 128,-1,25
 421 -15 421 -15 350 -15 c 256,0,1
EndSplineSet
EndChar

StartChar: V
Encoding: 59 86 57
Width: 683
GlyphClass: 2
Flags: W
LayerCount: 2
Fore
SplineSet
281 0 m 1,0,1
 206 162 206 162 136.5 339 c 128,-1,2
 67 516 67 516 7 693 c 1,3,-1
 146 693 l 1,4,5
 170 623 170 623 195 550 c 128,-1,6
 220 477 220 477 245 406.5 c 128,-1,7
 270 336 270 336 295 270 c 128,-1,8
 320 204 320 204 344 149 c 1,9,10
 367 204 367 204 392 269.5 c 128,-1,11
 417 335 417 335 442.5 406 c 128,-1,12
 468 477 468 477 493 550 c 128,-1,13
 518 623 518 623 541 693 c 1,14,-1
 676 693 l 1,15,16
 615 516 615 516 546 339 c 128,-1,17
 477 162 477 162 402 0 c 1,18,-1
 281 0 l 1,0,1
EndSplineSet
EndChar

StartChar: W
Encoding: 60 87 58
Width: 938
GlyphClass: 2
Flags: W
LayerCount: 2
Fore
SplineSet
527 615 m 1,0,1
 543 561 543 561 561 502.5 c 128,-1,2
 579 444 579 444 598.5 385.5 c 128,-1,3
 618 327 618 327 637.5 270.5 c 128,-1,4
 657 214 657 214 675 164 c 1,5,6
 690 218 690 218 704 281.5 c 128,-1,7
 718 345 718 345 732 413.5 c 128,-1,8
 746 482 746 482 759.5 553 c 128,-1,9
 773 624 773 624 785 693 c 1,10,-1
 915 693 l 1,11,12
 880 505 880 505 837 331.5 c 128,-1,13
 794 158 794 158 741 0 c 1,14,-1
 621 0 l 1,15,16
 543 202 543 202 470 441 c 1,17,18
 433 320 433 320 395 211 c 128,-1,19
 357 102 357 102 319 0 c 1,20,-1
 199 0 l 1,21,22
 145 158 145 158 102.5 331.5 c 128,-1,23
 60 505 60 505 25 693 c 1,24,-1
 160 693 l 1,25,26
 172 625 172 625 185.5 554 c 128,-1,27
 199 483 199 483 213.5 414.5 c 128,-1,28
 228 346 228 346 243 282 c 128,-1,29
 258 218 258 218 273 164 c 1,30,31
 292 215 292 215 311.5 271.5 c 128,-1,32
 331 328 331 328 350 386.5 c 128,-1,33
 369 445 369 445 386.5 503 c 128,-1,34
 404 561 404 561 419 615 c 1,35,-1
 527 615 l 1,0,1
EndSplineSet
EndChar

StartChar: X
Encoding: 61 88 59
Width: 657
GlyphClass: 2
Flags: W
LayerCount: 2
Fore
SplineSet
494 0 m 1,0,1
 465 59 465 59 421 130 c 128,-1,2
 377 201 377 201 329 267 c 1,3,4
 309 241 309 241 285.5 205 c 128,-1,5
 262 169 262 169 238.5 131.5 c 128,-1,6
 215 94 215 94 195 59 c 128,-1,7
 175 24 175 24 163 0 c 1,8,-1
 20 0 l 1,9,10
 65 85 65 85 124 174.5 c 128,-1,11
 183 264 183 264 252 362 c 1,12,-1
 30 693 l 1,13,-1
 180 693 l 1,14,-1
 333 456 l 1,15,-1
 484 693 l 1,16,-1
 628 693 l 1,17,-1
 409 363 l 1,18,19
 485 260 485 260 543.5 168 c 128,-1,20
 602 76 602 76 642 0 c 1,21,-1
 494 0 l 1,0,1
EndSplineSet
EndChar

StartChar: Y
Encoding: 62 89 60
Width: 625
GlyphClass: 2
Flags: W
LayerCount: 2
Fore
SplineSet
316 386 m 1,0,1
 361 461 361 461 404 538 c 128,-1,2
 447 615 447 615 482 693 c 1,3,-1
 622 693 l 1,4,5
 566 587 566 587 505.5 482.5 c 128,-1,6
 445 378 445 378 376 272 c 1,7,-1
 376 0 l 1,8,-1
 250 0 l 1,9,-1
 250 270 l 1,10,11
 181 377 181 377 120 482 c 128,-1,12
 59 587 59 587 3 693 c 1,13,-1
 151 693 l 1,14,15
 186 615 186 615 228 538 c 128,-1,16
 270 461 270 461 316 386 c 1,0,1
EndSplineSet
EndChar

StartChar: Z
Encoding: 63 90 61
Width: 588
GlyphClass: 2
Flags: W
LayerCount: 2
Fore
SplineSet
543 600 m 1,0,1
 510 564 510 564 463 506.5 c 128,-1,2
 416 449 416 449 366 381.5 c 128,-1,3
 316 314 316 314 267.5 242.5 c 128,-1,4
 219 171 219 171 182 107 c 1,5,-1
 554 107 l 1,6,-1
 554 0 l 1,7,-1
 30 0 l 1,8,-1
 30 79 l 1,9,10
 50 116 50 116 76.5 159.5 c 128,-1,11
 103 203 103 203 133 249 c 128,-1,12
 163 295 163 295 195.5 342 c 128,-1,13
 228 389 228 389 260 432.5 c 128,-1,14
 292 476 292 476 322.5 515.5 c 128,-1,15
 353 555 353 555 380 586 c 1,16,-1
 47 586 l 1,17,-1
 47 693 l 1,18,-1
 543 693 l 1,19,-1
 543 600 l 1,0,1
EndSplineSet
EndChar

StartChar: bracketleft
Encoding: 64 91 62
Width: 346
GlyphClass: 2
Flags: W
LayerCount: 2
Fore
SplineSet
93 783 m 1,0,-1
 341 783 l 1,1,-1
 341 687 l 1,2,-1
 207 687 l 1,3,-1
 207 -89 l 1,4,-1
 341 -89 l 1,5,-1
 341 -185 l 1,6,-1
 93 -185 l 1,7,-1
 93 783 l 1,0,-1
EndSplineSet
Substitution2: "'case' Case-Sensitive Forms lookup 18 subtable" Bracketleft
EndChar

StartChar: backslash
Encoding: 65 92 63
Width: 416
GlyphClass: 2
Flags: W
LayerCount: 2
Fore
SplineSet
105 783 m 1,0,-1
 443 -185 l 1,1,-1
 319 -185 l 1,2,-1
 -17 783 l 1,3,-1
 105 783 l 1,0,-1
EndSplineSet
Substitution2: "'case' Case-Sensitive Forms lookup 18 subtable" Backslash
EndChar

StartChar: bracketright
Encoding: 66 93 64
Width: 346
GlyphClass: 2
Flags: W
LayerCount: 2
Fore
SplineSet
5 -185 m 1,0,-1
 5 -89 l 1,1,-1
 138 -89 l 1,2,-1
 138 687 l 1,3,-1
 5 687 l 1,4,-1
 5 783 l 1,5,-1
 253 783 l 1,6,-1
 253 -185 l 1,7,-1
 5 -185 l 1,0,-1
EndSplineSet
Substitution2: "'case' Case-Sensitive Forms lookup 18 subtable" Bracketright
EndChar

StartChar: asciicircum
Encoding: 67 94 65
Width: 568
GlyphClass: 2
Flags: W
LayerCount: 2
Fore
SplineSet
534 349 m 1,0,-1
 435 300 l 1,1,-1
 284 563 l 1,2,-1
 133 300 l 1,3,-1
 33 349 l 1,4,-1
 234 693 l 1,5,-1
 334 693 l 1,6,-1
 534 349 l 1,0,-1
EndSplineSet
EndChar

StartChar: underscore
Encoding: 68 95 66
Width: 500
GlyphClass: 2
Flags: W
LayerCount: 2
Fore
SplineSet
0 -84 m 1,0,-1
 500 -84 l 1,1,-1
 500 -185 l 1,2,-1
 0 -185 l 1,3,-1
 0 -84 l 1,0,-1
EndSplineSet
EndChar

StartChar: grave
Encoding: 69 96 67
Width: 392
GlyphClass: 2
Flags: W
LayerCount: 2
Fore
SplineSet
154 808 m 1,0,-1
 299 633 l 1,1,-1
 239 579 l 1,2,-1
 77 738 l 1,3,-1
 154 808 l 1,0,-1
EndSplineSet
EndChar

StartChar: a
Encoding: 70 97 68
Width: 534
GlyphClass: 2
Flags: W
LayerCount: 2
Fore
SplineSet
261 85 m 0,0,1
 317 85 317 85 346 91 c 1,2,-1
 346 225 l 1,3,4
 336 228 336 228 317 231 c 128,-1,5
 298 234 298 234 275 234 c 0,6,7
 255 234 255 234 234.5 231 c 128,-1,8
 214 228 214 228 197.5 220 c 128,-1,9
 181 212 181 212 171 197.5 c 128,-1,10
 161 183 161 183 161 161 c 0,11,12
 161 118 161 118 188 101.5 c 128,-1,13
 215 85 215 85 261 85 c 0,0,1
251 536 m 0,14,15
 311 536 311 536 352 521 c 128,-1,16
 393 506 393 506 417.5 479 c 128,-1,17
 442 452 442 452 452.5 413.5 c 128,-1,18
 463 375 463 375 463 329 c 2,19,-1
 463 12 l 1,20,21
 435 6 435 6 378.5 -2.5 c 128,-1,22
 322 -11 322 -11 251 -11 c 0,23,24
 204 -11 204 -11 165 -2 c 128,-1,25
 126 7 126 7 98.5 27 c 128,-1,26
 71 47 71 47 55.5 79 c 128,-1,27
 40 111 40 111 40 158 c 0,28,29
 40 203 40 203 57.5 234 c 128,-1,30
 75 265 75 265 105 284.5 c 128,-1,31
 135 304 135 304 174.5 312.5 c 128,-1,32
 214 321 214 321 257 321 c 0,33,34
 277 321 277 321 299 318.5 c 128,-1,35
 321 316 321 316 346 310 c 1,36,-1
 346 330 l 2,37,38
 346 351 346 351 341 370 c 128,-1,39
 336 389 336 389 323.5 403.5 c 128,-1,40
 311 418 311 418 290.5 426 c 128,-1,41
 270 434 270 434 239 434 c 0,42,43
 197 434 197 434 162 428 c 128,-1,44
 127 422 127 422 105 414 c 1,45,-1
 90 512 l 1,46,47
 113 520 113 520 157 528 c 128,-1,48
 201 536 201 536 251 536 c 0,14,15
EndSplineSet
Substitution2: "'case' Case-Sensitive Forms lookup 19 subtable" A
Substitution2: "'ordn' Ordinals in Latin lookup 9 subtable" ordfeminine
EndChar

StartChar: b
Encoding: 71 98 69
Width: 596
GlyphClass: 2
Flags: W
LayerCount: 2
Fore
SplineSet
424 263 m 0,0,1
 424 340 424 340 393.5 385 c 128,-1,2
 363 430 363 430 297 430 c 0,3,4
 267 430 267 430 240.5 421 c 128,-1,5
 214 412 214 412 198 401 c 1,6,-1
 198 100 l 1,7,8
 211 97 211 97 231.5 94.5 c 128,-1,9
 252 92 252 92 281 92 c 0,10,11
 348 92 348 92 386 137.5 c 128,-1,12
 424 183 424 183 424 263 c 0,0,1
548 261 m 0,13,14
 548 198 548 198 529.5 147.5 c 128,-1,15
 511 97 511 97 476.5 61 c 128,-1,16
 442 25 442 25 393 6 c 128,-1,17
 344 -13 344 -13 282 -13 c 0,18,19
 222 -13 222 -13 167.5 -4 c 128,-1,20
 113 5 113 5 77 16 c 1,21,-1
 77 756 l 1,22,-1
 198 776 l 1,23,-1
 198 505 l 1,24,25
 219 516 219 516 249.5 525 c 128,-1,26
 280 534 280 534 317 534 c 0,27,28
 372 534 372 534 415.5 514.5 c 128,-1,29
 459 495 459 495 488 459 c 128,-1,30
 517 423 517 423 532.5 372.5 c 128,-1,31
 548 322 548 322 548 261 c 0,13,14
EndSplineSet
Substitution2: "'case' Case-Sensitive Forms lookup 19 subtable" B
EndChar

StartChar: c
Encoding: 72 99 70
Width: 472
GlyphClass: 2
Flags: W
LayerCount: 2
Fore
SplineSet
48 261 m 0,0,1
 48 319 48 319 66 369.5 c 128,-1,2
 84 420 84 420 117.5 457 c 128,-1,3
 151 494 151 494 199 515 c 128,-1,4
 247 536 247 536 307 536 c 0,5,6
 381 536 381 536 447 509 c 1,7,-1
 421 410 l 1,8,9
 400 419 400 419 373.5 425 c 128,-1,10
 347 431 347 431 317 431 c 0,11,12
 246 431 246 431 209 386.5 c 128,-1,13
 172 342 172 342 172 261 c 0,14,15
 172 183 172 183 207 137.5 c 128,-1,16
 242 92 242 92 325 92 c 0,17,18
 356 92 356 92 386 98 c 128,-1,19
 416 104 416 104 438 113 c 1,20,-1
 455 13 l 1,21,22
 435 3 435 3 394.5 -5 c 128,-1,23
 354 -13 354 -13 311 -13 c 0,24,25
 244 -13 244 -13 194.5 7.5 c 128,-1,26
 145 28 145 28 112.5 64.5 c 128,-1,27
 80 101 80 101 64 151.5 c 128,-1,28
 48 202 48 202 48 261 c 0,0,1
EndSplineSet
Substitution2: "'case' Case-Sensitive Forms lookup 19 subtable" C
EndChar

StartChar: d
Encoding: 73 100 71
Width: 596
GlyphClass: 2
Flags: W
LayerCount: 2
Fore
SplineSet
172 263 m 0,0,1
 172 183 172 183 210 137.5 c 128,-1,2
 248 92 248 92 315 92 c 0,3,4
 344 92 344 92 364.5 94.5 c 128,-1,5
 385 97 385 97 398 100 c 1,6,-1
 398 400 l 1,7,8
 382 411 382 411 355.5 420.5 c 128,-1,9
 329 430 329 430 299 430 c 0,10,11
 233 430 233 430 202.5 385 c 128,-1,12
 172 340 172 340 172 263 c 0,0,1
519 16 m 1,13,14
 483 5 483 5 428.5 -4 c 128,-1,15
 374 -13 374 -13 314 -13 c 0,16,17
 252 -13 252 -13 203 6 c 128,-1,18
 154 25 154 25 119.5 60.5 c 128,-1,19
 85 96 85 96 66.5 146.5 c 128,-1,20
 48 197 48 197 48 260 c 0,21,22
 48 322 48 322 63.5 372.5 c 128,-1,23
 79 423 79 423 109 459 c 128,-1,24
 139 495 139 495 182 514.5 c 128,-1,25
 225 534 225 534 281 534 c 0,26,27
 319 534 319 534 348 525 c 128,-1,28
 377 516 377 516 398 505 c 1,29,-1
 398 756 l 1,30,-1
 519 776 l 1,31,-1
 519 16 l 1,13,14
EndSplineSet
Substitution2: "'case' Case-Sensitive Forms lookup 19 subtable" D
EndChar

StartChar: e
Encoding: 74 101 72
Width: 571
GlyphClass: 2
Flags: W
LayerCount: 2
Fore
SplineSet
48 259 m 0,0,1
 48 328 48 328 68.5 380 c 128,-1,2
 89 432 89 432 123 466.5 c 128,-1,3
 157 501 157 501 201 518.5 c 128,-1,4
 245 536 245 536 291 536 c 0,5,6
 399 536 399 536 459.5 469 c 128,-1,7
 520 402 520 402 520 269 c 0,8,9
 520 259 520 259 519.5 246.5 c 128,-1,10
 519 234 519 234 518 224 c 1,11,-1
 173 224 l 1,12,13
 178 161 178 161 217.5 126.5 c 128,-1,14
 257 92 257 92 332 92 c 0,15,16
 376 92 376 92 412.5 100 c 128,-1,17
 449 108 449 108 470 117 c 1,18,-1
 486 18 l 1,19,20
 476 13 476 13 458.5 7.5 c 128,-1,21
 441 2 441 2 418.5 -2.5 c 128,-1,22
 396 -7 396 -7 370 -10 c 128,-1,23
 344 -13 344 -13 317 -13 c 0,24,25
 248 -13 248 -13 197 7.5 c 128,-1,26
 146 28 146 28 113 64.5 c 128,-1,27
 80 101 80 101 64 150.5 c 128,-1,28
 48 200 48 200 48 259 c 0,0,1
399 313 m 1,29,30
 399 338 399 338 392 360.5 c 128,-1,31
 385 383 385 383 371.5 399.5 c 128,-1,32
 358 416 358 416 338.5 425.5 c 128,-1,33
 319 435 319 435 292 435 c 0,34,35
 264 435 264 435 243 424.5 c 128,-1,36
 222 414 222 414 207.5 397 c 128,-1,37
 193 380 193 380 185 358 c 128,-1,38
 177 336 177 336 174 313 c 1,39,-1
 399 313 l 1,29,30
EndSplineSet
Substitution2: "'case' Case-Sensitive Forms lookup 19 subtable" E
EndChar

StartChar: f
Encoding: 75 102 73
Width: 400
GlyphClass: 2
Flags: W
LayerCount: 2
Fore
SplineSet
290 776 m 0,0,1
 332 776 332 776 364 768.5 c 128,-1,2
 396 761 396 761 412 755 c 1,3,-1
 389 655 l 1,4,5
 372 663 372 663 349.5 668 c 128,-1,6
 327 673 327 673 301 673 c 0,7,8
 272 673 272 673 252 664.5 c 128,-1,9
 232 656 232 656 220 641 c 128,-1,10
 208 626 208 626 203 604.5 c 128,-1,11
 198 583 198 583 198 558 c 2,12,-1
 198 523 l 1,13,-1
 388 523 l 1,14,-1
 388 422 l 1,15,-1
 198 422 l 1,16,-1
 198 0 l 1,17,-1
 77 0 l 1,18,-1
 77 560 l 2,19,20
 77 661 77 661 130 718.5 c 128,-1,21
 183 776 183 776 290 776 c 0,0,1
EndSplineSet
Substitution2: "'case' Case-Sensitive Forms lookup 19 subtable" F
EndChar

StartChar: g
Encoding: 76 103 74
Width: 586
GlyphClass: 2
Flags: W
LayerCount: 2
Fore
SplineSet
172 275 m 0,0,1
 172 198 172 198 205.5 162.5 c 128,-1,2
 239 127 239 127 292 127 c 0,3,4
 321 127 321 127 346.5 135 c 128,-1,5
 372 143 372 143 388 154 c 1,6,-1
 388 425 l 1,7,8
 375 428 375 428 356 430.5 c 128,-1,9
 337 433 337 433 308 433 c 0,10,11
 242 433 242 433 207 389.5 c 128,-1,12
 172 346 172 346 172 275 c 0,0,1
509 53 m 2,13,14
 509 -72 509 -72 445.5 -130 c 128,-1,15
 382 -188 382 -188 251 -188 c 0,16,17
 203 -188 203 -188 157.5 -180 c 128,-1,18
 112 -172 112 -172 75 -159 c 1,19,-1
 97 -56 l 1,20,21
 128 -69 128 -69 167.5 -77 c 128,-1,22
 207 -85 207 -85 253 -85 c 0,23,24
 326 -85 326 -85 357 -55 c 128,-1,25
 388 -25 388 -25 388 34 c 2,26,-1
 388 54 l 1,27,28
 370 45 370 45 340.5 36 c 128,-1,29
 311 27 311 27 273 27 c 0,30,31
 223 27 223 27 181.5 43 c 128,-1,32
 140 59 140 59 110.5 90 c 128,-1,33
 81 121 81 121 64.5 167.5 c 128,-1,34
 48 214 48 214 48 275 c 0,35,36
 48 332 48 332 65.5 380 c 128,-1,37
 83 428 83 428 116.5 462 c 128,-1,38
 150 496 150 496 198 515 c 128,-1,39
 246 534 246 534 307 534 c 0,40,41
 366 534 366 534 419 525 c 128,-1,42
 472 516 472 516 509 506 c 1,43,-1
 509 53 l 2,13,14
EndSplineSet
Substitution2: "'case' Case-Sensitive Forms lookup 19 subtable" G
EndChar

StartChar: h
Encoding: 77 104 75
Width: 582
GlyphClass: 2
Flags: W
LayerCount: 2
Fore
SplineSet
77 0 m 1,0,-1
 77 756 l 1,1,-1
 198 776 l 1,2,-1
 198 517 l 1,3,4
 218 524 218 524 244.5 529 c 128,-1,5
 271 534 271 534 297 534 c 0,6,7
 360 534 360 534 401.5 516.5 c 128,-1,8
 443 499 443 499 468 467.5 c 128,-1,9
 493 436 493 436 503.5 392 c 128,-1,10
 514 348 514 348 514 294 c 2,11,-1
 514 0 l 1,12,-1
 393 0 l 1,13,-1
 393 275 l 2,14,15
 393 317 393 317 387.5 346.5 c 128,-1,16
 382 376 382 376 369.5 394.5 c 128,-1,17
 357 413 357 413 336 421.5 c 128,-1,18
 315 430 315 430 284 430 c 0,19,20
 260 430 260 430 235 425 c 128,-1,21
 210 420 210 420 198 416 c 1,22,-1
 198 0 l 1,23,-1
 77 0 l 1,0,-1
EndSplineSet
Substitution2: "'case' Case-Sensitive Forms lookup 19 subtable" H
EndChar

StartChar: i
Encoding: 78 105 76
Width: 276
GlyphClass: 2
Flags: W
LayerCount: 2
Fore
SplineSet
199 0 m 1,0,-1
 78 0 l 1,1,-1
 78 523 l 1,2,-1
 199 523 l 1,3,-1
 199 0 l 1,0,-1
212 676 m 0,4,5
 212 642 212 642 190 622 c 128,-1,6
 168 602 168 602 138 602 c 0,7,8
 107 602 107 602 85 622 c 128,-1,9
 63 642 63 642 63 676 c 0,10,11
 63 711 63 711 85 731 c 128,-1,12
 107 751 107 751 138 751 c 0,13,14
 168 751 168 751 190 731 c 128,-1,15
 212 711 212 711 212 676 c 0,4,5
EndSplineSet
Substitution2: "'case' Case-Sensitive Forms lookup 19 subtable" I
Substitution2: "'locl' Localized Forms in Latin lookup 2 subtable" i.locl
Substitution2: "'locl' Localized Forms in Latin lookup 1 subtable" i.locl
Substitution2: "'locl' Localized Forms in Latin lookup 0 subtable" i.locl
EndChar

StartChar: j
Encoding: 79 106 77
Width: 275
GlyphClass: 2
Flags: W
LayerCount: 2
Fore
SplineSet
10 -186 m 0,0,1
 -3 -186 -3 -186 -26.5 -183.5 c 128,-1,2
 -50 -181 -50 -181 -68 -174 c 1,3,-1
 -52 -75 l 1,4,5
 -30 -82 -30 -82 1 -82 c 0,6,7
 43 -82 43 -82 60 -57.5 c 128,-1,8
 77 -33 77 -33 77 16 c 2,9,-1
 77 523 l 1,10,-1
 198 523 l 1,11,-1
 198 14 l 2,12,13
 198 -88 198 -88 149.5 -137 c 128,-1,14
 101 -186 101 -186 10 -186 c 0,0,1
211 676 m 0,15,16
 211 642 211 642 189 622 c 128,-1,17
 167 602 167 602 137 602 c 0,18,19
 106 602 106 602 84 622 c 128,-1,20
 62 642 62 642 62 676 c 0,21,22
 62 711 62 711 84 731 c 128,-1,23
 106 751 106 751 137 751 c 0,24,25
 167 751 167 751 189 731 c 128,-1,26
 211 711 211 711 211 676 c 0,15,16
EndSplineSet
Substitution2: "'case' Case-Sensitive Forms lookup 19 subtable" J
EndChar

StartChar: k
Encoding: 80 107 78
Width: 551
GlyphClass: 2
Flags: W
LayerCount: 2
Fore
SplineSet
198 319 m 1,0,1
 221 343 221 343 247 370.5 c 128,-1,2
 273 398 273 398 298 425.5 c 128,-1,3
 323 453 323 453 345.5 478.5 c 128,-1,4
 368 504 368 504 384 523 c 1,5,-1
 527 523 l 1,6,7
 477 467 477 467 421.5 407 c 128,-1,8
 366 347 366 347 310 290 c 1,9,10
 340 265 340 265 373 229.5 c 128,-1,11
 406 194 406 194 437 154 c 128,-1,12
 468 114 468 114 495 74 c 128,-1,13
 522 34 522 34 540 0 c 1,14,-1
 400 0 l 1,15,16
 382 31 382 31 358.5 65 c 128,-1,17
 335 99 335 99 308 131 c 128,-1,18
 281 163 281 163 253 191.5 c 128,-1,19
 225 220 225 220 198 240 c 1,20,-1
 198 0 l 1,21,-1
 77 0 l 1,22,-1
 77 756 l 1,23,-1
 198 776 l 1,24,-1
 198 319 l 1,0,1
EndSplineSet
Substitution2: "'case' Case-Sensitive Forms lookup 19 subtable" K
EndChar

StartChar: l
Encoding: 81 108 79
Width: 297
GlyphClass: 2
Flags: W
LayerCount: 2
Fore
SplineSet
259 -10 m 1,0,1
 205 -9 205 -9 169.5 2 c 128,-1,2
 134 13 134 13 113 33.5 c 128,-1,3
 92 54 92 54 83.5 84.5 c 128,-1,4
 75 115 75 115 75 154 c 2,5,-1
 75 756 l 1,6,-1
 196 776 l 1,7,-1
 196 177 l 2,8,9
 196 155 196 155 199.5 140 c 128,-1,10
 203 125 203 125 212 114.5 c 128,-1,11
 221 104 221 104 236.5 98.5 c 128,-1,12
 252 93 252 93 276 90 c 1,13,-1
 259 -10 l 1,0,1
EndSplineSet
Substitution2: "'case' Case-Sensitive Forms lookup 19 subtable" L
EndChar

StartChar: m
Encoding: 82 109 80
Width: 865
GlyphClass: 2
Flags: W
LayerCount: 2
Fore
SplineSet
375 275 m 2,0,1
 375 357 375 357 354.5 393.5 c 128,-1,2
 334 430 334 430 278 430 c 0,3,4
 258 430 258 430 234 427 c 128,-1,5
 210 424 210 424 198 422 c 1,6,-1
 198 0 l 1,7,-1
 77 0 l 1,8,-1
 77 506 l 1,9,10
 112 516 112 516 168.5 525 c 128,-1,11
 225 534 225 534 288 534 c 0,12,13
 342 534 342 534 376.5 520 c 128,-1,14
 411 506 411 506 434 483 c 1,15,16
 445 491 445 491 462 500 c 128,-1,17
 479 509 479 509 500 516.5 c 128,-1,18
 521 524 521 524 544.5 529 c 128,-1,19
 568 534 568 534 592 534 c 0,20,21
 653 534 653 534 692.5 516.5 c 128,-1,22
 732 499 732 499 754.5 467.5 c 128,-1,23
 777 436 777 436 785.5 391.5 c 128,-1,24
 794 347 794 347 794 294 c 2,25,-1
 794 0 l 1,26,-1
 673 0 l 1,27,-1
 673 275 l 2,28,29
 673 357 673 357 653 393.5 c 128,-1,30
 633 430 633 430 576 430 c 0,31,32
 547 430 547 430 521 420.5 c 128,-1,33
 495 411 495 411 482 402 c 1,34,35
 490 377 490 377 493 349 c 128,-1,36
 496 321 496 321 496 289 c 2,37,-1
 496 0 l 1,38,-1
 375 0 l 1,39,-1
 375 275 l 2,0,1
EndSplineSet
Substitution2: "'case' Case-Sensitive Forms lookup 19 subtable" M
EndChar

StartChar: n
Encoding: 83 110 81
Width: 585
GlyphClass: 2
Flags: W
LayerCount: 2
Fore
SplineSet
77 506 m 1,0,1
 112 516 112 516 168 525 c 128,-1,2
 224 534 224 534 292 534 c 0,3,4
 356 534 356 534 399 516.5 c 128,-1,5
 442 499 442 499 467.5 467.5 c 128,-1,6
 493 436 493 436 503.5 391.5 c 128,-1,7
 514 347 514 347 514 294 c 2,8,-1
 514 0 l 1,9,-1
 393 0 l 1,10,-1
 393 275 l 2,11,12
 393 317 393 317 387.5 346.5 c 128,-1,13
 382 376 382 376 369.5 394.5 c 128,-1,14
 357 413 357 413 335.5 421.5 c 128,-1,15
 314 430 314 430 283 430 c 0,16,17
 260 430 260 430 235 427 c 128,-1,18
 210 424 210 424 198 422 c 1,19,-1
 198 0 l 1,20,-1
 77 0 l 1,21,-1
 77 506 l 1,0,1
EndSplineSet
Substitution2: "'case' Case-Sensitive Forms lookup 19 subtable" N
EndChar

StartChar: o
Encoding: 84 111 82
Width: 598
GlyphClass: 2
Flags: W
LayerCount: 2
Fore
SplineSet
550 262 m 256,0,1
 550 200 550 200 532 149 c 128,-1,2
 514 98 514 98 481 62 c 128,-1,3
 448 26 448 26 401.5 6 c 128,-1,4
 355 -14 355 -14 299 -14 c 256,5,6
 243 -14 243 -14 197 6 c 128,-1,7
 151 26 151 26 118 62 c 128,-1,8
 85 98 85 98 66.5 149 c 128,-1,9
 48 200 48 200 48 262 c 256,10,11
 48 324 48 324 66.5 374.5 c 128,-1,12
 85 425 85 425 118.5 461 c 128,-1,13
 152 497 152 497 198 516.5 c 128,-1,14
 244 536 244 536 299 536 c 256,15,16
 354 536 354 536 400.5 516.5 c 128,-1,17
 447 497 447 497 480 461 c 128,-1,18
 513 425 513 425 531.5 374.5 c 128,-1,19
 550 324 550 324 550 262 c 256,0,1
426 262 m 0,20,21
 426 340 426 340 392.5 385.5 c 128,-1,22
 359 431 359 431 299 431 c 256,23,24
 239 431 239 431 205.5 385.5 c 128,-1,25
 172 340 172 340 172 262 c 0,26,27
 172 183 172 183 205.5 137 c 128,-1,28
 239 91 239 91 299 91 c 256,29,30
 359 91 359 91 392.5 137 c 128,-1,31
 426 183 426 183 426 262 c 0,20,21
EndSplineSet
Substitution2: "'case' Case-Sensitive Forms lookup 19 subtable" O
Substitution2: "'ordn' Ordinals in Latin lookup 9 subtable" ordmasculine
EndChar

StartChar: p
Encoding: 85 112 83
Width: 596
GlyphClass: 2
Flags: W
LayerCount: 2
Fore
SplineSet
424 259 m 0,0,1
 424 340 424 340 387.5 385 c 128,-1,2
 351 430 351 430 270 430 c 0,3,4
 253 430 253 430 234.5 428.5 c 128,-1,5
 216 427 216 427 198 422 c 1,6,-1
 198 123 l 1,7,8
 214 112 214 112 240.5 102.5 c 128,-1,9
 267 93 267 93 297 93 c 0,10,11
 363 93 363 93 393.5 138 c 128,-1,12
 424 183 424 183 424 259 c 0,0,1
548 261 m 0,13,14
 548 201 548 201 532.5 151 c 128,-1,15
 517 101 517 101 488 65 c 128,-1,16
 459 29 459 29 415.5 9 c 128,-1,17
 372 -11 372 -11 317 -11 c 0,18,19
 280 -11 280 -11 249 -2 c 128,-1,20
 218 7 218 7 198 18 c 1,21,-1
 198 -185 l 1,22,-1
 77 -185 l 1,23,-1
 77 506 l 1,24,25
 114 516 114 516 168 525 c 128,-1,26
 222 534 222 534 282 534 c 0,27,28
 344 534 344 534 393 515 c 128,-1,29
 442 496 442 496 476.5 460.5 c 128,-1,30
 511 425 511 425 529.5 374.5 c 128,-1,31
 548 324 548 324 548 261 c 0,13,14
EndSplineSet
Substitution2: "'case' Case-Sensitive Forms lookup 19 subtable" P
EndChar

StartChar: q
Encoding: 86 113 84
Width: 596
GlyphClass: 2
Flags: W
LayerCount: 2
Fore
SplineSet
172 259 m 0,0,1
 172 183 172 183 202.5 138 c 128,-1,2
 233 93 233 93 299 93 c 0,3,4
 329 93 329 93 355.5 102.5 c 128,-1,5
 382 112 382 112 398 123 c 1,6,-1
 398 422 l 1,7,8
 385 425 385 425 365.5 427.5 c 128,-1,9
 346 430 346 430 315 430 c 0,10,11
 248 430 248 430 210 384.5 c 128,-1,12
 172 339 172 339 172 259 c 0,0,1
48 261 m 0,13,14
 48 323 48 323 66.5 373.5 c 128,-1,15
 85 424 85 424 119.5 459.5 c 128,-1,16
 154 495 154 495 203 514.5 c 128,-1,17
 252 534 252 534 314 534 c 256,18,19
 376 534 376 534 430 525 c 128,-1,20
 484 516 484 516 519 506 c 1,21,-1
 519 -185 l 1,22,-1
 398 -185 l 1,23,-1
 398 18 l 1,24,25
 377 7 377 7 346.5 -2 c 128,-1,26
 316 -11 316 -11 279 -11 c 0,27,28
 223 -11 223 -11 180 8.5 c 128,-1,29
 137 28 137 28 108 64 c 128,-1,30
 79 100 79 100 63.5 150 c 128,-1,31
 48 200 48 200 48 261 c 0,13,14
EndSplineSet
Substitution2: "'case' Case-Sensitive Forms lookup 19 subtable" Q
EndChar

StartChar: r
Encoding: 87 114 85
Width: 403
GlyphClass: 2
Flags: W
LayerCount: 2
Fore
SplineSet
375 414 m 1,0,1
 360 419 360 419 333.5 424.5 c 128,-1,2
 307 430 307 430 272 430 c 0,3,4
 252 430 252 430 229.5 426 c 128,-1,5
 207 422 207 422 198 419 c 1,6,-1
 198 0 l 1,7,-1
 77 0 l 1,8,-1
 77 498 l 1,9,10
 112 511 112 511 164.5 522.5 c 128,-1,11
 217 534 217 534 281 534 c 0,12,13
 293 534 293 534 309 532.5 c 128,-1,14
 325 531 325 531 341 528.5 c 128,-1,15
 357 526 357 526 372 522.5 c 128,-1,16
 387 519 387 519 396 516 c 1,17,-1
 375 414 l 1,0,1
EndSplineSet
Substitution2: "'case' Case-Sensitive Forms lookup 19 subtable" R
EndChar

StartChar: s
Encoding: 88 115 86
Width: 457
GlyphClass: 2
Flags: W
LayerCount: 2
Fore
SplineSet
208 87 m 256,0,1
 256 87 256 87 278 98.5 c 128,-1,2
 300 110 300 110 300 138 c 0,3,4
 300 164 300 164 276.5 181 c 128,-1,5
 253 198 253 198 199 218 c 0,6,7
 166 230 166 230 138.5 243.5 c 128,-1,8
 111 257 111 257 91 275 c 128,-1,9
 71 293 71 293 59.5 318.5 c 128,-1,10
 48 344 48 344 48 381 c 0,11,12
 48 453 48 453 101 494.5 c 128,-1,13
 154 536 154 536 245 536 c 0,14,15
 291 536 291 536 333 527.5 c 128,-1,16
 375 519 375 519 396 511 c 1,17,-1
 374 413 l 1,18,19
 354 422 354 422 323 429.5 c 128,-1,20
 292 437 292 437 251 437 c 0,21,22
 214 437 214 437 191 424.5 c 128,-1,23
 168 412 168 412 168 386 c 0,24,25
 168 373 168 373 172.5 363 c 128,-1,26
 177 353 177 353 188 344.5 c 128,-1,27
 199 336 199 336 217 327.5 c 128,-1,28
 235 319 235 319 261 310 c 0,29,30
 304 294 304 294 334 278.5 c 128,-1,31
 364 263 364 263 383.5 243.5 c 128,-1,32
 403 224 403 224 412 199 c 128,-1,33
 421 174 421 174 421 139 c 0,34,35
 421 64 421 64 365.5 25.5 c 128,-1,36
 310 -13 310 -13 207 -13 c 0,37,38
 138 -13 138 -13 96 -1.5 c 128,-1,39
 54 10 54 10 37 17 c 1,40,-1
 58 118 l 1,41,42
 85 107 85 107 122.5 97 c 128,-1,43
 160 87 160 87 208 87 c 256,0,1
EndSplineSet
Substitution2: "'case' Case-Sensitive Forms lookup 19 subtable" S
EndChar

StartChar: t
Encoding: 89 116 87
Width: 418
GlyphClass: 2
Flags: W
LayerCount: 2
Fore
SplineSet
71 661 m 1,0,-1
 192 681 l 1,1,-1
 192 523 l 1,2,-1
 378 523 l 1,3,-1
 378 422 l 1,4,-1
 192 422 l 1,5,-1
 192 209 l 2,6,7
 192 146 192 146 212 119 c 128,-1,8
 232 92 232 92 280 92 c 0,9,10
 313 92 313 92 338.5 99 c 128,-1,11
 364 106 364 106 379 112 c 1,12,-1
 399 16 l 1,13,14
 378 7 378 7 344 -2.5 c 128,-1,15
 310 -12 310 -12 264 -12 c 0,16,17
 208 -12 208 -12 170.5 3 c 128,-1,18
 133 18 133 18 111 46.5 c 128,-1,19
 89 75 89 75 80 115.5 c 128,-1,20
 71 156 71 156 71 208 c 2,21,-1
 71 661 l 1,0,-1
EndSplineSet
Substitution2: "'case' Case-Sensitive Forms lookup 19 subtable" T
EndChar

StartChar: u
Encoding: 90 117 88
Width: 583
GlyphClass: 2
Flags: W
LayerCount: 2
Fore
SplineSet
506 16 m 1,0,1
 471 7 471 7 415 -2.5 c 128,-1,2
 359 -12 359 -12 292 -12 c 0,3,4
 229 -12 229 -12 186.5 6 c 128,-1,5
 144 24 144 24 118.5 56 c 128,-1,6
 93 88 93 88 82 132.5 c 128,-1,7
 71 177 71 177 71 230 c 2,8,-1
 71 523 l 1,9,-1
 192 523 l 1,10,-1
 192 249 l 2,11,12
 192 165 192 165 216.5 129 c 128,-1,13
 241 93 241 93 302 93 c 0,14,15
 324 93 324 93 348.5 95 c 128,-1,16
 373 97 373 97 385 100 c 1,17,-1
 385 523 l 1,18,-1
 506 523 l 1,19,-1
 506 16 l 1,0,1
EndSplineSet
Substitution2: "'case' Case-Sensitive Forms lookup 19 subtable" U
EndChar

StartChar: v
Encoding: 91 118 89
Width: 526
GlyphClass: 2
Flags: W
LayerCount: 2
Fore
SplineSet
211 0 m 1,0,1
 161 103 161 103 108.5 236.5 c 128,-1,2
 56 370 56 370 13 523 c 1,3,-1
 142 523 l 1,4,5
 153 479 153 479 167.5 428.5 c 128,-1,6
 182 378 182 378 198.5 327.5 c 128,-1,7
 215 277 215 277 232.5 229.5 c 128,-1,8
 250 182 250 182 265 144 c 1,9,10
 280 182 280 182 297 229.5 c 128,-1,11
 314 277 314 277 330.5 327.5 c 128,-1,12
 347 378 347 378 362 428.5 c 128,-1,13
 377 479 377 479 388 523 c 1,14,-1
 513 523 l 1,15,16
 470 370 470 370 417.5 236.5 c 128,-1,17
 365 103 365 103 315 0 c 1,18,-1
 211 0 l 1,0,1
EndSplineSet
Substitution2: "'case' Case-Sensitive Forms lookup 19 subtable" V
EndChar

StartChar: w
Encoding: 92 119 90
Width: 780
GlyphClass: 2
Flags: W
LayerCount: 2
Fore
SplineSet
389 329 m 1,0,1
 366 241 366 241 339.5 157.5 c 128,-1,2
 313 74 313 74 287 0 c 1,3,-1
 188 0 l 1,4,5
 168 46 168 46 146 105 c 128,-1,6
 124 164 124 164 102 231 c 128,-1,7
 80 298 80 298 58 372 c 128,-1,8
 36 446 36 446 15 523 c 1,9,-1
 143 523 l 1,10,11
 152 481 152 481 164 432.5 c 128,-1,12
 176 384 176 384 189 333.5 c 128,-1,13
 202 283 202 283 216 235 c 128,-1,14
 230 187 230 187 244 147 c 1,15,16
 259 193 259 193 273.5 242 c 128,-1,17
 288 291 288 291 301 340 c 128,-1,18
 314 389 314 389 325.5 435.5 c 128,-1,19
 337 482 337 482 346 523 c 1,20,-1
 439 523 l 1,21,22
 448 482 448 482 459 435.5 c 128,-1,23
 470 389 470 389 482.5 340 c 128,-1,24
 495 291 495 291 509.5 242 c 128,-1,25
 524 193 524 193 539 147 c 1,26,27
 552 187 552 187 566 235 c 128,-1,28
 580 283 580 283 593.5 333.5 c 128,-1,29
 607 384 607 384 619 432.5 c 128,-1,30
 631 481 631 481 640 523 c 1,31,-1
 765 523 l 1,32,33
 744 446 744 446 722 372 c 128,-1,34
 700 298 700 298 678 231 c 128,-1,35
 656 164 656 164 634 105 c 128,-1,36
 612 46 612 46 591 0 c 1,37,-1
 493 0 l 1,38,39
 467 74 467 74 439.5 157.5 c 128,-1,40
 412 241 412 241 389 329 c 1,0,1
EndSplineSet
Substitution2: "'case' Case-Sensitive Forms lookup 19 subtable" W
EndChar

StartChar: x
Encoding: 93 120 91
Width: 529
GlyphClass: 2
Flags: W
LayerCount: 2
Fore
SplineSet
265 352 m 1,0,-1
 376 523 l 1,1,-1
 503 523 l 1,2,-1
 331 276 l 1,3,4
 385 206 385 206 434.5 134.5 c 128,-1,5
 484 63 484 63 516 0 c 1,6,-1
 385 0 l 1,7,8
 376 19 376 19 361.5 43.5 c 128,-1,9
 347 68 347 68 330.5 94.5 c 128,-1,10
 314 121 314 121 296 147 c 128,-1,11
 278 173 278 173 261 196 c 1,12,13
 226 151 226 151 192.5 96.5 c 128,-1,14
 159 42 159 42 137 0 c 1,15,-1
 13 0 l 1,16,17
 28 30 28 30 49 64 c 128,-1,18
 70 98 70 98 94 133.5 c 128,-1,19
 118 169 118 169 143.5 204.5 c 128,-1,20
 169 240 169 240 194 272 c 1,21,-1
 21 523 l 1,22,-1
 154 523 l 1,23,-1
 265 352 l 1,0,-1
EndSplineSet
Substitution2: "'case' Case-Sensitive Forms lookup 19 subtable" X
EndChar

StartChar: y
Encoding: 94 121 92
Width: 519
GlyphClass: 2
Flags: W
LayerCount: 2
Fore
SplineSet
504 523 m 1,0,1
 423 225 423 225 316 -17 c 0,2,3
 296 -62 296 -62 275 -94 c 128,-1,4
 254 -126 254 -126 228 -147 c 128,-1,5
 202 -168 202 -168 170 -177.5 c 128,-1,6
 138 -187 138 -187 96 -187 c 0,7,8
 68 -187 68 -187 40.5 -181 c 128,-1,9
 13 -175 13 -175 -1 -168 c 1,10,-1
 21 -71 l 1,11,12
 57 -85 57 -85 92 -85 c 0,13,14
 139 -85 139 -85 165.5 -62.5 c 128,-1,15
 192 -40 192 -40 212 7 c 1,16,17
 155 117 155 117 102.5 247 c 128,-1,18
 50 377 50 377 9 523 c 1,19,-1
 138 523 l 1,20,21
 148 481 148 481 162.5 432 c 128,-1,22
 177 383 177 383 194 332.5 c 128,-1,23
 211 282 211 282 230 232 c 128,-1,24
 249 182 249 182 268 139 c 1,25,26
 300 228 300 228 328 328.5 c 128,-1,27
 356 429 356 429 379 523 c 1,28,-1
 504 523 l 1,0,1
EndSplineSet
Substitution2: "'case' Case-Sensitive Forms lookup 19 subtable" Y
EndChar

StartChar: z
Encoding: 95 122 93
Width: 484
GlyphClass: 2
Flags: W
LayerCount: 2
Fore
SplineSet
443 438 m 1,0,1
 423 417 423 417 390.5 379 c 128,-1,2
 358 341 358 341 321 294.5 c 128,-1,3
 284 248 284 248 246.5 197.5 c 128,-1,4
 209 147 209 147 179 101 c 1,5,-1
 449 101 l 1,6,-1
 449 0 l 1,7,-1
 33 0 l 1,8,-1
 33 75 l 1,9,10
 55 115 55 115 88 162 c 128,-1,11
 121 209 121 209 156 256.5 c 128,-1,12
 191 304 191 304 225.5 347 c 128,-1,13
 260 390 260 390 287 422 c 1,14,-1
 46 422 l 1,15,-1
 46 523 l 1,16,-1
 443 523 l 1,17,-1
 443 438 l 1,0,1
EndSplineSet
Substitution2: "'case' Case-Sensitive Forms lookup 19 subtable" Z
EndChar

StartChar: braceleft
Encoding: 96 123 94
Width: 348
GlyphClass: 2
Flags: W
LayerCount: 2
Fore
SplineSet
37 346 m 1,0,1
 83 346 83 346 104.5 374.5 c 128,-1,2
 126 403 126 403 126 442 c 2,3,-1
 126 589 l 2,4,5
 126 636 126 636 135 672.5 c 128,-1,6
 144 709 144 709 167 733.5 c 128,-1,7
 190 758 190 758 231 770.5 c 128,-1,8
 272 783 272 783 336 783 c 2,9,-1
 343 783 l 1,10,-1
 343 687 l 1,11,12
 314 687 314 687 294 683 c 128,-1,13
 274 679 274 679 262 668.5 c 128,-1,14
 250 658 250 658 244.5 640.5 c 128,-1,15
 239 623 239 623 239 596 c 2,16,-1
 239 453 l 2,17,18
 239 393 239 393 223.5 357.5 c 128,-1,19
 208 322 208 322 171 299 c 1,20,21
 208 276 208 276 223.5 240 c 128,-1,22
 239 204 239 204 239 145 c 2,23,-1
 239 1 l 2,24,25
 239 -26 239 -26 244.5 -43 c 128,-1,26
 250 -60 250 -60 262 -70.5 c 128,-1,27
 274 -81 274 -81 294 -85 c 128,-1,28
 314 -89 314 -89 343 -89 c 1,29,-1
 343 -185 l 1,30,31
 276 -185 276 -185 234 -173 c 128,-1,32
 192 -161 192 -161 168 -136.5 c 128,-1,33
 144 -112 144 -112 135 -76 c 128,-1,34
 126 -40 126 -40 126 8 c 2,35,-1
 126 156 l 2,36,37
 126 194 126 194 104.5 222.5 c 128,-1,38
 83 251 83 251 37 251 c 1,39,-1
 37 346 l 1,0,1
EndSplineSet
Substitution2: "'case' Case-Sensitive Forms lookup 18 subtable" Braceleft
EndChar

StartChar: bar
Encoding: 97 124 95
Width: 300
GlyphClass: 2
Flags: W
LayerCount: 2
Fore
SplineSet
93 783 m 1,0,-1
 207 783 l 1,1,-1
 207 -185 l 1,2,-1
 93 -185 l 1,3,-1
 93 783 l 1,0,-1
EndSplineSet
EndChar

StartChar: braceright
Encoding: 98 125 96
Width: 348
GlyphClass: 2
Flags: W
LayerCount: 2
Fore
SplineSet
311 251 m 1,0,1
 265 251 265 251 243.5 222.5 c 128,-1,2
 222 194 222 194 222 156 c 2,3,-1
 222 8 l 2,4,5
 222 -40 222 -40 213 -76 c 128,-1,6
 204 -112 204 -112 180 -136.5 c 128,-1,7
 156 -161 156 -161 114 -173 c 128,-1,8
 72 -185 72 -185 5 -185 c 1,9,-1
 5 -89 l 1,10,11
 63 -89 63 -89 86 -70.5 c 128,-1,12
 109 -52 109 -52 109 1 c 2,13,-1
 109 145 l 2,14,15
 109 204 109 204 124.5 240 c 128,-1,16
 140 276 140 276 177 299 c 1,17,18
 140 322 140 322 124.5 357.5 c 128,-1,19
 109 393 109 393 109 453 c 2,20,-1
 109 596 l 2,21,22
 109 623 109 623 103.5 640.5 c 128,-1,23
 98 658 98 658 86 668.5 c 128,-1,24
 74 679 74 679 54 683 c 128,-1,25
 34 687 34 687 5 687 c 1,26,-1
 5 783 l 1,27,-1
 12 783 l 2,28,29
 76 783 76 783 117 770.5 c 128,-1,30
 158 758 158 758 181 733.5 c 128,-1,31
 204 709 204 709 213 672.5 c 128,-1,32
 222 636 222 636 222 589 c 2,33,-1
 222 442 l 2,34,35
 222 403 222 403 243.5 374.5 c 128,-1,36
 265 346 265 346 311 346 c 1,37,-1
 311 251 l 1,0,1
EndSplineSet
Substitution2: "'case' Case-Sensitive Forms lookup 18 subtable" Braceright
EndChar

StartChar: asciitilde
Encoding: 99 126 97
Width: 568
GlyphClass: 2
Flags: W
LayerCount: 2
Fore
SplineSet
385 207 m 0,0,1
 354 207 354 207 327.5 219.5 c 128,-1,2
 301 232 301 232 276 247 c 128,-1,3
 251 262 251 262 228 274.5 c 128,-1,4
 205 287 205 287 181 287 c 256,5,6
 157 287 157 287 142 268.5 c 128,-1,7
 127 250 127 250 116 212 c 1,8,-1
 33 235 l 1,9,10
 38 259 38 259 47.5 286.5 c 128,-1,11
 57 314 57 314 74.5 337.5 c 128,-1,12
 92 361 92 361 118 377 c 128,-1,13
 144 393 144 393 181 393 c 0,14,15
 212 393 212 393 238.5 380.5 c 128,-1,16
 265 368 265 368 290 352.5 c 128,-1,17
 315 337 315 337 338 324.5 c 128,-1,18
 361 312 361 312 385 312 c 0,19,20
 410 312 410 312 425 331 c 128,-1,21
 440 350 440 350 450 388 c 1,22,-1
 533 365 l 1,23,24
 528 341 528 341 518.5 313.5 c 128,-1,25
 509 286 509 286 491.5 262.5 c 128,-1,26
 474 239 474 239 448 223 c 128,-1,27
 422 207 422 207 385 207 c 0,0,1
EndSplineSet
EndChar

StartChar: exclamdown
Encoding: 101 161 99
Width: 306
GlyphClass: 2
Flags: W
LayerCount: 2
Fore
SplineSet
218 -183 m 1,0,-1
 89 -183 l 1,1,-1
 89 3 l 2,2,3
 89 85 89 85 95 154.5 c 128,-1,4
 101 224 101 224 111 294 c 1,5,-1
 197 294 l 1,6,7
 206 224 206 224 212 155 c 128,-1,8
 218 86 218 86 218 3 c 2,9,-1
 218 -183 l 1,0,-1
233 444 m 256,10,11
 233 409 233 409 210 386.5 c 128,-1,12
 187 364 187 364 153 364 c 0,13,14
 120 364 120 364 96.5 386.5 c 128,-1,15
 73 409 73 409 73 444 c 256,16,17
 73 479 73 479 96.5 501 c 128,-1,18
 120 523 120 523 153 523 c 0,19,20
 187 523 187 523 210 501 c 128,-1,21
 233 479 233 479 233 444 c 256,10,11
EndSplineSet
Substitution2: "'case' Case-Sensitive Forms lookup 18 subtable" Exclamdown
EndChar

StartChar: cent
Encoding: 102 162 100
Width: 568
GlyphClass: 2
Flags: W
LayerCount: 2
Fore
SplineSet
252 36 m 1,0,1
 158 57 158 57 112 126.5 c 128,-1,2
 66 196 66 196 66 292 c 0,3,4
 66 338 66 338 78.5 380 c 128,-1,5
 91 422 91 422 115 455.5 c 128,-1,6
 139 489 139 489 173.5 512.5 c 128,-1,7
 208 536 208 536 252 547 c 1,8,-1
 252 692 l 1,9,-1
 365 692 l 1,10,-1
 365 555 l 1,11,12
 418 551 418 551 468 531 c 1,13,-1
 441 433 l 1,14,15
 420 441 420 441 394 447 c 128,-1,16
 368 453 368 453 337 453 c 0,17,18
 266 453 266 453 228.5 411 c 128,-1,19
 191 369 191 369 191 292 c 0,20,21
 191 217 191 217 226.5 174.5 c 128,-1,22
 262 132 262 132 344 132 c 0,23,24
 376 132 376 132 406.5 138 c 128,-1,25
 437 144 437 144 459 153 c 1,26,-1
 476 54 l 1,27,28
 459 46 459 46 429 39 c 128,-1,29
 399 32 399 32 365 29 c 1,30,-1
 365 -109 l 1,31,-1
 252 -109 l 1,32,-1
 252 36 l 1,0,1
EndSplineSet
EndChar

StartChar: sterling
Encoding: 103 163 101
Width: 568
GlyphClass: 2
Flags: W
LayerCount: 2
Fore
SplineSet
259 383 m 1,0,-1
 437 383 l 1,1,-1
 437 285 l 1,2,-1
 259 285 l 1,3,4
 259 242 259 242 255.5 193.5 c 128,-1,5
 252 145 252 145 245 102 c 1,6,-1
 520 102 l 1,7,-1
 520 0 l 1,8,-1
 110 0 l 1,9,10
 140 153 140 153 140 285 c 1,11,-1
 50 285 l 1,12,-1
 50 383 l 1,13,-1
 140 383 l 1,14,-1
 140 449 l 2,15,16
 140 525 140 525 157 574.5 c 128,-1,17
 174 624 174 624 204 653 c 128,-1,18
 234 682 234 682 276 694 c 128,-1,19
 318 706 318 706 368 706 c 0,20,21
 410 706 410 706 442.5 698 c 128,-1,22
 475 690 475 690 505 677 c 1,23,-1
 475 579 l 1,24,25
 428 601 428 601 372 602 c 0,26,27
 346 602 346 602 325 595.5 c 128,-1,28
 304 589 304 589 289.5 572.5 c 128,-1,29
 275 556 275 556 267 527.5 c 128,-1,30
 259 499 259 499 259 456 c 2,31,-1
 259 383 l 1,0,-1
EndSplineSet
EndChar

StartChar: currency
Encoding: 104 164 102
Width: 568
GlyphClass: 2
Flags: W
LayerCount: 2
Fore
SplineSet
284 541 m 0,0,1
 339 541 339 541 382 518 c 1,2,-1
 457 591 l 1,3,-1
 532 516 l 1,4,-1
 459 445 l 1,5,6
 484 404 484 404 484 347 c 0,7,8
 484 289 484 289 459 249 c 1,9,-1
 532 177 l 1,10,-1
 456 102 l 1,11,-1
 382 175 l 1,12,13
 339 152 339 152 284 152 c 0,14,15
 228 152 228 152 185 175 c 1,16,-1
 111 103 l 1,17,-1
 35 177 l 1,18,-1
 108 248 l 1,19,20
 83 289 83 289 83 347 c 0,21,22
 83 404 83 404 108 445 c 1,23,-1
 35 516 l 1,24,-1
 111 591 l 1,25,-1
 185 518 l 1,26,27
 228 541 228 541 284 541 c 0,0,1
284 241 m 0,28,29
 325 241 325 241 354.5 268.5 c 128,-1,30
 384 296 384 296 384 347 c 0,31,32
 384 397 384 397 354.5 424.5 c 128,-1,33
 325 452 325 452 284 452 c 0,34,35
 242 452 242 452 213 424.5 c 128,-1,36
 184 397 184 397 184 347 c 0,37,38
 184 296 184 296 213 268.5 c 128,-1,39
 242 241 242 241 284 241 c 0,28,29
EndSplineSet
EndChar

StartChar: yen
Encoding: 105 165 103
Width: 568
GlyphClass: 2
Flags: W
LayerCount: 2
Fore
SplineSet
500 108 m 1,0,-1
 345 108 l 1,1,-1
 345 0 l 1,2,-1
 224 0 l 1,3,-1
 224 108 l 1,4,-1
 69 108 l 1,5,-1
 69 193 l 1,6,-1
 224 193 l 1,7,-1
 224 277 l 1,8,-1
 69 277 l 1,9,-1
 69 362 l 1,10,-1
 187 362 l 1,11,12
 139 444 139 444 91.5 531 c 128,-1,13
 44 618 44 618 7 693 c 1,14,-1
 143 693 l 1,15,16
 177 619 177 619 212 545.5 c 128,-1,17
 247 472 247 472 287 403 c 1,18,19
 325 472 325 472 359 546 c 128,-1,20
 393 620 393 620 426 693 c 1,21,-1
 561 693 l 1,22,23
 519 612 519 612 475.5 529.5 c 128,-1,24
 432 447 432 447 381 362 c 1,25,-1
 500 362 l 1,26,-1
 500 277 l 1,27,-1
 345 277 l 1,28,-1
 345 193 l 1,29,-1
 500 193 l 1,30,-1
 500 108 l 1,0,-1
EndSplineSet
EndChar

StartChar: brokenbar
Encoding: 106 166 104
Width: 300
GlyphClass: 2
Flags: W
LayerCount: 2
Fore
SplineSet
93 205 m 1,0,-1
 207 205 l 1,1,-1
 207 -185 l 1,2,-1
 93 -185 l 1,3,-1
 93 205 l 1,0,-1
93 783 m 1,4,-1
 207 783 l 1,5,-1
 207 393 l 1,6,-1
 93 393 l 1,7,-1
 93 783 l 1,4,-1
EndSplineSet
EndChar

StartChar: section
Encoding: 107 167 105
Width: 509
GlyphClass: 2
Flags: W
LayerCount: 2
Fore
SplineSet
70 26 m 1,0,1
 108 10 108 10 149 1 c 128,-1,2
 190 -8 190 -8 234 -8 c 0,3,4
 249 -8 249 -8 266 -6 c 128,-1,5
 283 -4 283 -4 297.5 2 c 128,-1,6
 312 8 312 8 321.5 18.5 c 128,-1,7
 331 29 331 29 331 46 c 0,8,9
 331 72 331 72 308 88 c 128,-1,10
 285 104 285 104 227 125 c 0,11,12
 189 138 189 138 156 152.5 c 128,-1,13
 123 167 123 167 98 187.5 c 128,-1,14
 73 208 73 208 58.5 237 c 128,-1,15
 44 266 44 266 44 308 c 0,16,17
 44 333 44 333 51 354 c 128,-1,18
 58 375 58 375 70 392.5 c 128,-1,19
 82 410 82 410 97 424.5 c 128,-1,20
 112 439 112 439 127 451 c 1,21,22
 103 471 103 471 89.5 496 c 128,-1,23
 76 521 76 521 76 552 c 0,24,25
 76 625 76 625 128.5 667 c 128,-1,26
 181 709 181 709 278 709 c 0,27,28
 326 709 326 709 372.5 699 c 128,-1,29
 419 689 419 689 451 677 c 1,30,-1
 422 578 l 1,31,32
 394 589 394 589 359.5 598.5 c 128,-1,33
 325 608 325 608 277 608 c 0,34,35
 239 608 239 608 216.5 595.5 c 128,-1,36
 194 583 194 583 194 558 c 0,37,38
 194 530 194 530 215 514.5 c 128,-1,39
 236 499 236 499 287 482 c 0,40,41
 327 468 327 468 360.5 453.5 c 128,-1,42
 394 439 394 439 418.5 418 c 128,-1,43
 443 397 443 397 456.5 368.5 c 128,-1,44
 470 340 470 340 470 300 c 0,45,46
 470 252 470 252 446 219.5 c 128,-1,47
 422 187 422 187 390 163 c 1,48,49
 451 119 451 119 451 48 c 0,50,51
 451 2 451 2 433 -28 c 128,-1,52
 415 -58 415 -58 384.5 -76 c 128,-1,53
 354 -94 354 -94 315 -101.5 c 128,-1,54
 276 -109 276 -109 234 -109 c 0,55,56
 171 -109 171 -109 120.5 -96.5 c 128,-1,57
 70 -84 70 -84 40 -70 c 1,58,-1
 70 26 l 1,0,1
204 401 m 1,59,60
 181 384 181 384 167 363 c 128,-1,61
 153 342 153 342 153 318 c 0,62,63
 153 277 153 277 186.5 255.5 c 128,-1,64
 220 234 220 234 277 215 c 2,65,-1
 307 204 l 1,66,67
 330 221 330 221 344 242 c 128,-1,68
 358 263 358 263 358 287 c 0,69,70
 358 312 358 312 346.5 328 c 128,-1,71
 335 344 335 344 314.5 356 c 128,-1,72
 294 368 294 368 266 378 c 128,-1,73
 238 388 238 388 204 401 c 1,59,60
EndSplineSet
EndChar

StartChar: dieresis
Encoding: 108 168 106
Width: 405
GlyphClass: 2
Flags: W
LayerCount: 2
Fore
SplineSet
99 609 m 256,0,1
 72 609 72 609 52 627 c 128,-1,2
 32 645 32 645 32 676 c 256,3,4
 32 707 32 707 52 725.5 c 128,-1,5
 72 744 72 744 99 744 c 256,6,7
 126 744 126 744 146.5 725.5 c 128,-1,8
 167 707 167 707 167 676 c 256,9,10
 167 645 167 645 146.5 627 c 128,-1,11
 126 609 126 609 99 609 c 256,0,1
306 609 m 256,12,13
 279 609 279 609 258.5 627 c 128,-1,14
 238 645 238 645 238 676 c 256,15,16
 238 707 238 707 258.5 725.5 c 128,-1,17
 279 744 279 744 306 744 c 256,18,19
 333 744 333 744 353 725.5 c 128,-1,20
 373 707 373 707 373 676 c 256,21,22
 373 645 373 645 353 627 c 128,-1,23
 333 609 333 609 306 609 c 256,12,13
EndSplineSet
EndChar

StartChar: copyright
Encoding: 109 169 107
Width: 814
GlyphClass: 2
Flags: W
LayerCount: 2
Fore
SplineSet
752 347 m 0,0,1
 752 261 752 261 724 194 c 128,-1,2
 696 127 696 127 648.5 80.5 c 128,-1,3
 601 34 601 34 538.5 9.5 c 128,-1,4
 476 -15 476 -15 407 -15 c 0,5,6
 339 -15 339 -15 276.5 9.5 c 128,-1,7
 214 34 214 34 166.5 80.5 c 128,-1,8
 119 127 119 127 90.5 194 c 128,-1,9
 62 261 62 261 62 347 c 0,10,11
 62 432 62 432 90.5 499.5 c 128,-1,12
 119 567 119 567 166.5 613.5 c 128,-1,13
 214 660 214 660 276.5 684.5 c 128,-1,14
 339 709 339 709 407 709 c 0,15,16
 476 709 476 709 538.5 684.5 c 128,-1,17
 601 660 601 660 648.5 613.5 c 128,-1,18
 696 567 696 567 724 499.5 c 128,-1,19
 752 432 752 432 752 347 c 0,0,1
665 347 m 256,20,21
 665 410 665 410 646 461.5 c 128,-1,22
 627 513 627 513 592.5 550 c 128,-1,23
 558 587 558 587 511 607 c 128,-1,24
 464 627 464 627 407 627 c 256,25,26
 350 627 350 627 303 607 c 128,-1,27
 256 587 256 587 222 550 c 128,-1,28
 188 513 188 513 169 461.5 c 128,-1,29
 150 410 150 410 150 347 c 256,30,31
 150 284 150 284 169 232 c 128,-1,32
 188 180 188 180 222 143 c 128,-1,33
 256 106 256 106 303 86 c 128,-1,34
 350 66 350 66 407 66 c 256,35,36
 464 66 464 66 511 86 c 128,-1,37
 558 106 558 106 592.5 143 c 128,-1,38
 627 180 627 180 646 232 c 128,-1,39
 665 284 665 284 665 347 c 256,20,21
421 150 m 0,40,41
 333 150 333 150 283.5 201.5 c 128,-1,42
 234 253 234 253 234 348 c 0,43,44
 234 394 234 394 248 431 c 128,-1,45
 262 468 262 468 287 493 c 128,-1,46
 312 518 312 518 346 531.5 c 128,-1,47
 380 545 380 545 420 545 c 0,48,49
 470 545 470 545 501 531.5 c 128,-1,50
 532 518 532 518 542 512 c 1,51,-1
 514 438 l 1,52,53
 501 446 501 446 479.5 453.5 c 128,-1,54
 458 461 458 461 426 461 c 0,55,56
 384 461 384 461 357 432.5 c 128,-1,57
 330 404 330 404 330 350 c 0,58,59
 330 326 330 326 335.5 304.5 c 128,-1,60
 341 283 341 283 352.5 267.5 c 128,-1,61
 364 252 364 252 382.5 243 c 128,-1,62
 401 234 401 234 427 234 c 0,63,64
 462 234 462 234 484.5 241.5 c 128,-1,65
 507 249 507 249 522 256 c 1,66,-1
 546 180 l 1,67,68
 534 174 534 174 501 162 c 128,-1,69
 468 150 468 150 421 150 c 0,40,41
EndSplineSet
EndChar

StartChar: ordfeminine
Encoding: 110 170 108
Width: 402
GlyphClass: 2
Flags: W
LayerCount: 2
Fore
SplineSet
126 437 m 0,0,1
 126 422 126 422 133.5 413 c 128,-1,2
 141 404 141 404 153.5 399.5 c 128,-1,3
 166 395 166 395 181.5 393.5 c 128,-1,4
 197 392 197 392 213 392 c 0,5,6
 230 392 230 392 243.5 393 c 128,-1,7
 257 394 257 394 264 396 c 1,8,-1
 264 484 l 1,9,10
 255 486 255 486 240.5 487.5 c 128,-1,11
 226 489 226 489 212 489 c 0,12,13
 200 489 200 489 185 487.5 c 128,-1,14
 170 486 170 486 157 480.5 c 128,-1,15
 144 475 144 475 135 464.5 c 128,-1,16
 126 454 126 454 126 437 c 0,0,1
194 707 m 0,17,18
 238 707 238 707 268.5 696.5 c 128,-1,19
 299 686 299 686 317.5 667 c 128,-1,20
 336 648 336 648 344 621 c 128,-1,21
 352 594 352 594 352 561 c 2,22,-1
 352 334 l 1,23,24
 329 329 329 329 287 323.5 c 128,-1,25
 245 318 245 318 195 318 c 0,26,27
 123 318 123 318 79 345.5 c 128,-1,28
 35 373 35 373 35 440 c 0,29,30
 35 473 35 473 48 495 c 128,-1,31
 61 517 61 517 83.5 530.5 c 128,-1,32
 106 544 106 544 135.5 550 c 128,-1,33
 165 556 165 556 198 556 c 0,34,35
 215 556 215 556 231.5 554.5 c 128,-1,36
 248 553 248 553 264 551 c 1,37,-1
 264 557 l 2,38,39
 264 586 264 586 248 607 c 128,-1,40
 232 628 232 628 186 628 c 0,41,42
 160 628 160 628 132.5 624.5 c 128,-1,43
 105 621 105 621 85 614 c 1,44,-1
 72 690 l 1,45,46
 91 696 91 696 125 701.5 c 128,-1,47
 159 707 159 707 194 707 c 0,17,18
EndSplineSet
EndChar

StartChar: logicalnot
Encoding: 112 172 110
Width: 568
GlyphClass: 2
Flags: W
LayerCount: 2
Fore
SplineSet
516 47 m 1,0,-1
 408 47 l 1,1,-1
 408 295 l 1,2,-1
 52 295 l 1,3,-1
 52 397 l 1,4,-1
 516 397 l 1,5,-1
 516 47 l 1,0,-1
EndSplineSet
EndChar

StartChar: registered
Encoding: 114 174 112
Width: 814
GlyphClass: 2
Flags: W
LayerCount: 2
Fore
SplineSet
752 347 m 0,0,1
 752 261 752 261 724 194 c 128,-1,2
 696 127 696 127 648.5 80.5 c 128,-1,3
 601 34 601 34 538.5 9.5 c 128,-1,4
 476 -15 476 -15 407 -15 c 0,5,6
 339 -15 339 -15 276.5 9.5 c 128,-1,7
 214 34 214 34 166.5 80.5 c 128,-1,8
 119 127 119 127 90.5 194 c 128,-1,9
 62 261 62 261 62 347 c 0,10,11
 62 432 62 432 90.5 499.5 c 128,-1,12
 119 567 119 567 166.5 613.5 c 128,-1,13
 214 660 214 660 276.5 684.5 c 128,-1,14
 339 709 339 709 407 709 c 0,15,16
 476 709 476 709 538.5 684.5 c 128,-1,17
 601 660 601 660 648.5 613.5 c 128,-1,18
 696 567 696 567 724 499.5 c 128,-1,19
 752 432 752 432 752 347 c 0,0,1
665 347 m 256,20,21
 665 410 665 410 646 461.5 c 128,-1,22
 627 513 627 513 592.5 550 c 128,-1,23
 558 587 558 587 511 607 c 128,-1,24
 464 627 464 627 407 627 c 256,25,26
 350 627 350 627 303 607 c 128,-1,27
 256 587 256 587 222 550 c 128,-1,28
 188 513 188 513 169 461.5 c 128,-1,29
 150 410 150 410 150 347 c 256,30,31
 150 284 150 284 169 232 c 128,-1,32
 188 180 188 180 222 143 c 128,-1,33
 256 106 256 106 303 86 c 128,-1,34
 350 66 350 66 407 66 c 256,35,36
 464 66 464 66 511 86 c 128,-1,37
 558 106 558 106 592.5 143 c 128,-1,38
 627 180 627 180 646 232 c 128,-1,39
 665 284 665 284 665 347 c 256,20,21
487 162 m 1,40,41
 467 204 467 204 447 238.5 c 128,-1,42
 427 273 427 273 409 296 c 1,43,-1
 355 296 l 1,44,-1
 355 162 l 1,45,-1
 271 162 l 1,46,-1
 271 527 l 1,47,48
 302 535 302 535 332 538 c 128,-1,49
 362 541 362 541 385 541 c 0,50,51
 468 541 468 541 510.5 510 c 128,-1,52
 553 479 553 479 553 416 c 0,53,54
 553 382 553 382 536.5 356.5 c 128,-1,55
 520 331 520 331 489 317 c 1,56,57
 509 288 509 288 532 250 c 128,-1,58
 555 212 555 212 577 162 c 1,59,-1
 487 162 l 1,40,41
355 364 m 1,60,-1
 383 364 l 2,61,62
 422 364 422 364 445 374.5 c 128,-1,63
 468 385 468 385 468 417 c 0,64,65
 468 445 468 445 446.5 456.5 c 128,-1,66
 425 468 425 468 392 468 c 0,67,68
 383 468 383 468 374.5 468 c 128,-1,69
 366 468 366 468 355 466 c 1,70,-1
 355 364 l 1,60,-1
EndSplineSet
EndChar

StartChar: macron
Encoding: 115 175 113
Width: 389
GlyphClass: 2
Flags: W
LayerCount: 2
Fore
SplineSet
346 718 m 1,0,-1
 346 631 l 1,1,-1
 43 631 l 1,2,-1
 43 718 l 1,3,-1
 346 718 l 1,0,-1
EndSplineSet
EndChar

StartChar: degree
Encoding: 116 176 114
Width: 347
GlyphClass: 2
Flags: W
LayerCount: 2
Fore
SplineSet
173 778 m 256,0,1
 203 778 203 778 230.5 768 c 128,-1,2
 258 758 258 758 279 739 c 128,-1,3
 300 720 300 720 312 692.5 c 128,-1,4
 324 665 324 665 324 631 c 256,5,6
 324 597 324 597 312 569.5 c 128,-1,7
 300 542 300 542 279 523 c 128,-1,8
 258 504 258 504 230.5 494 c 128,-1,9
 203 484 203 484 173 484 c 256,10,11
 143 484 143 484 116 494 c 128,-1,12
 89 504 89 504 68 523 c 128,-1,13
 47 542 47 542 35 569.5 c 128,-1,14
 23 597 23 597 23 631 c 256,15,16
 23 665 23 665 35 692.5 c 128,-1,17
 47 720 47 720 68 739 c 128,-1,18
 89 758 89 758 116 768 c 128,-1,19
 143 778 143 778 173 778 c 256,0,1
173 565 m 256,20,21
 199 565 199 565 218 582.5 c 128,-1,22
 237 600 237 600 237 631 c 256,23,24
 237 662 237 662 218 680 c 128,-1,25
 199 698 199 698 173 698 c 256,26,27
 147 698 147 698 128 680 c 128,-1,28
 109 662 109 662 109 631 c 256,29,30
 109 600 109 600 128 582.5 c 128,-1,31
 147 565 147 565 173 565 c 256,20,21
EndSplineSet
EndChar

StartChar: plusminus
Encoding: 117 177 115
Width: 568
GlyphClass: 2
Flags: W
LayerCount: 2
Fore
SplineSet
52 437 m 1,0,-1
 230 437 l 1,1,-1
 230 622 l 1,2,-1
 338 622 l 1,3,-1
 338 437 l 1,4,-1
 516 437 l 1,5,-1
 516 335 l 1,6,-1
 338 335 l 1,7,-1
 338 149 l 1,8,-1
 230 149 l 1,9,-1
 230 335 l 1,10,-1
 52 335 l 1,11,-1
 52 437 l 1,0,-1
52 102 m 1,12,-1
 516 102 l 1,13,-1
 516 0 l 1,14,-1
 52 0 l 1,15,-1
 52 102 l 1,12,-1
EndSplineSet
EndChar

StartChar: twosuperior
Encoding: 118 178 116
Width: 363
GlyphClass: 2
Flags: W
LayerCount: 2
Fore
SplineSet
309 592 m 0,0,1
 309 571 309 571 301.5 553 c 128,-1,2
 294 535 294 535 280 517 c 128,-1,3
 266 499 266 499 245.5 480 c 128,-1,4
 225 461 225 461 198 437 c 0,5,6
 183 424 183 424 169.5 410 c 128,-1,7
 156 396 156 396 151 385 c 1,8,-1
 322 385 l 1,9,-1
 322 308 l 1,10,-1
 45 308 l 1,11,12
 44 327 44 327 45 343 c 0,13,14
 49 391 49 391 76.5 426 c 128,-1,15
 104 461 104 461 147 497 c 0,16,17
 177 523 177 523 196 544 c 128,-1,18
 215 565 215 565 215 586 c 0,19,20
 215 606 215 606 202.5 616.5 c 128,-1,21
 190 627 190 627 167 627 c 0,22,23
 135 627 135 627 110.5 613.5 c 128,-1,24
 86 600 86 600 72 589 c 1,25,-1
 28 653 l 1,26,27
 49 673 49 673 86.5 691 c 128,-1,28
 124 709 124 709 169 709 c 0,29,30
 243 709 243 709 276 677.5 c 128,-1,31
 309 646 309 646 309 592 c 0,0,1
EndSplineSet
Substitution2: "Single Substitution lookup 26 subtable" twoinferior
Substitution2: "'sinf' Scientific Inferiors lookup 13 subtable" two.sinf
Substitution2: "'subs' Subscript lookup 12 subtable" two.sinf
Substitution2: "'sups' Superscript lookup 11 subtable" two.sups
Substitution2: "'dnom' Denominators lookup 10 subtable" twoinferior
EndChar

StartChar: threesuperior
Encoding: 119 179 117
Width: 363
GlyphClass: 2
Flags: W
LayerCount: 2
Fore
SplineSet
154 378 m 0,0,1
 199 378 199 378 215.5 391.5 c 128,-1,2
 232 405 232 405 232 426 c 0,3,4
 232 454 232 454 206.5 466 c 128,-1,5
 181 478 181 478 142 478 c 2,6,-1
 112 478 l 1,7,-1
 112 548 l 1,8,-1
 145 548 l 2,9,10
 171 548 171 548 193 558 c 128,-1,11
 215 568 215 568 215 592 c 0,12,13
 215 631 215 631 160 631 c 0,14,15
 134 631 134 631 111.5 622.5 c 128,-1,16
 89 614 89 614 70 605 c 1,17,-1
 38 672 l 1,18,19
 58 686 58 686 94 697.5 c 128,-1,20
 130 709 130 709 165 709 c 0,21,22
 203 709 203 709 229.5 700.5 c 128,-1,23
 256 692 256 692 272.5 677 c 128,-1,24
 289 662 289 662 296 642 c 128,-1,25
 303 622 303 622 303 600 c 0,26,27
 303 554 303 554 254 522 c 1,28,29
 288 508 288 508 305.5 483 c 128,-1,30
 323 458 323 458 323 425 c 0,31,32
 323 399 323 399 314 376 c 128,-1,33
 305 353 305 353 285 336 c 128,-1,34
 265 319 265 319 233 309.5 c 128,-1,35
 201 300 201 300 155 300 c 0,36,37
 123 300 123 300 88 307.5 c 128,-1,38
 53 315 53 315 32 325 c 1,39,-1
 51 400 l 1,40,41
 80 389 80 389 103.5 383.5 c 128,-1,42
 127 378 127 378 154 378 c 0,0,1
EndSplineSet
Substitution2: "Single Substitution lookup 26 subtable" threeinferior
Substitution2: "'sinf' Scientific Inferiors lookup 13 subtable" three.sinf
Substitution2: "'subs' Subscript lookup 12 subtable" three.sinf
Substitution2: "'sups' Superscript lookup 11 subtable" three.sups
Substitution2: "'dnom' Denominators lookup 10 subtable" threeinferior
EndChar

StartChar: acute
Encoding: 120 180 118
Width: 392
GlyphClass: 2
Flags: W
LayerCount: 2
Fore
SplineSet
316 737 m 1,0,-1
 153 579 l 1,1,-1
 93 633 l 1,2,-1
 240 808 l 1,3,-1
 316 737 l 1,0,-1
EndSplineSet
EndChar

StartChar: mu
Encoding: 121 181 119
Width: 591
GlyphClass: 2
Flags: W
LayerCount: 2
Fore
SplineSet
198 523 m 1,0,-1
 198 243 l 2,1,2
 198 200 198 200 204.5 171.5 c 128,-1,3
 211 143 211 143 224.5 125.5 c 128,-1,4
 238 108 238 108 259 100.5 c 128,-1,5
 280 93 280 93 309 93 c 0,6,7
 332 93 332 93 356.5 95 c 128,-1,8
 381 97 381 97 393 100 c 1,9,-1
 393 523 l 1,10,-1
 514 523 l 1,11,-1
 514 16 l 1,12,13
 478 7 478 7 425.5 -2 c 128,-1,14
 373 -11 373 -11 312 -11 c 0,15,16
 271 -11 271 -11 241.5 -2.5 c 128,-1,17
 212 6 212 6 192 21 c 1,18,19
 195 -3 195 -3 196 -29.5 c 128,-1,20
 197 -56 197 -56 197 -91 c 2,21,-1
 197 -176 l 1,22,-1
 77 -176 l 1,23,-1
 77 523 l 1,24,-1
 198 523 l 1,0,-1
EndSplineSet
EndChar

StartChar: paragraph
Encoding: 122 182 120
Width: 683
GlyphClass: 2
Flags: W
LayerCount: 2
Fore
SplineSet
267 260 m 1,0,1
 155 273 155 273 97.5 324.5 c 128,-1,2
 40 376 40 376 40 477 c 0,3,4
 40 586 40 586 127 643 c 128,-1,5
 214 700 214 700 368 700 c 0,6,7
 420 700 420 700 479.5 695 c 128,-1,8
 539 690 539 690 586 679 c 1,9,-1
 586 -185 l 1,10,-1
 477 -185 l 1,11,-1
 477 596 l 1,12,13
 466 598 466 598 448 599 c 128,-1,14
 430 600 430 600 416 600 c 0,15,16
 406 600 406 600 395.5 600 c 128,-1,17
 385 600 385 600 377 599 c 1,18,-1
 377 -185 l 1,19,-1
 267 -185 l 1,20,-1
 267 260 l 1,0,1
EndSplineSet
EndChar

StartChar: cedilla
Encoding: 124 184 122
Width: 390
GlyphClass: 2
Flags: W
LayerCount: 2
Fore
SplineSet
214 -39 m 1,0,1
 246 -54 246 -54 258.5 -73 c 128,-1,2
 271 -92 271 -92 271 -120 c 0,3,4
 271 -155 271 -155 241 -180 c 128,-1,5
 211 -205 211 -205 151 -205 c 0,6,7
 103 -205 103 -205 66 -192 c 1,8,-1
 80 -120 l 1,9,10
 90 -123 90 -123 106 -127 c 128,-1,11
 122 -131 122 -131 139 -131 c 256,12,13
 156 -131 156 -131 165.5 -125 c 128,-1,14
 175 -119 175 -119 175 -107 c 0,15,16
 175 -91 175 -91 161 -83.5 c 128,-1,17
 147 -76 147 -76 133 -71 c 2,18,-1
 123 -68 l 1,19,20
 126 -58 126 -58 132 -45 c 128,-1,21
 138 -32 138 -32 144 -19 c 128,-1,22
 150 -6 150 -6 155 4.5 c 128,-1,23
 160 15 160 15 163 20 c 1,24,-1
 243 20 l 1,25,26
 237 9 237 9 228 -9 c 128,-1,27
 219 -27 219 -27 214 -39 c 1,0,1
EndSplineSet
EndChar

StartChar: onesuperior
Encoding: 125 185 123
Width: 363
GlyphClass: 2
Flags: W
LayerCount: 2
Fore
SplineSet
47 619 m 1,0,1
 87 634 87 634 125 655 c 128,-1,2
 163 676 163 676 191 701 c 1,3,-1
 259 701 l 1,4,-1
 259 308 l 1,5,-1
 167 308 l 1,6,-1
 167 590 l 1,7,8
 147 578 147 578 122 567.5 c 128,-1,9
 97 557 97 557 72 549 c 1,10,-1
 47 619 l 1,11,-1
 47 619 l 1,0,1
EndSplineSet
Substitution2: "Single Substitution lookup 26 subtable" oneinferior
Substitution2: "'sinf' Scientific Inferiors lookup 13 subtable" one.sinf
Substitution2: "'subs' Subscript lookup 12 subtable" one.sinf
Substitution2: "'sups' Superscript lookup 11 subtable" one.sups
Substitution2: "'dnom' Denominators lookup 10 subtable" oneinferior
EndChar

StartChar: ordmasculine
Encoding: 126 186 124
Width: 455
GlyphClass: 2
Flags: W
LayerCount: 2
Fore
SplineSet
415 512 m 256,0,1
 415 467 415 467 401 431 c 128,-1,2
 387 395 387 395 362.5 369.5 c 128,-1,3
 338 344 338 344 303.5 330.5 c 128,-1,4
 269 317 269 317 228 317 c 256,5,6
 187 317 187 317 152.5 330.5 c 128,-1,7
 118 344 118 344 93 369.5 c 128,-1,8
 68 395 68 395 54 431 c 128,-1,9
 40 467 40 467 40 512 c 256,10,11
 40 557 40 557 54 593.5 c 128,-1,12
 68 630 68 630 93 655.5 c 128,-1,13
 118 681 118 681 152.5 694.5 c 128,-1,14
 187 708 187 708 228 708 c 256,15,16
 269 708 269 708 303.5 694.5 c 128,-1,17
 338 681 338 681 362.5 655.5 c 128,-1,18
 387 630 387 630 401 593.5 c 128,-1,19
 415 557 415 557 415 512 c 256,0,1
321 512 m 0,20,21
 321 564 321 564 297 594.5 c 128,-1,22
 273 625 273 625 228 625 c 256,23,24
 183 625 183 625 158.5 594.5 c 128,-1,25
 134 564 134 564 134 512 c 0,26,27
 134 461 134 461 158.5 430.5 c 128,-1,28
 183 400 183 400 228 400 c 256,29,30
 273 400 273 400 297 430.5 c 128,-1,31
 321 461 321 461 321 512 c 0,20,21
EndSplineSet
EndChar

StartChar: questiondown
Encoding: 131 191 129
Width: 424
GlyphClass: 2
Flags: W
LayerCount: 2
Fore
SplineSet
240 -96 m 0,0,1
 275 -96 275 -96 307 -87.5 c 128,-1,2
 339 -79 339 -79 374 -60 c 1,3,-1
 408 -153 l 1,4,5
 371 -174 371 -174 323.5 -186.5 c 128,-1,6
 276 -199 276 -199 226 -199 c 0,7,8
 166 -199 166 -199 127 -182.5 c 128,-1,9
 88 -166 88 -166 65 -141 c 128,-1,10
 42 -116 42 -116 33 -86 c 128,-1,11
 24 -56 24 -56 24 -28 c 0,12,13
 24 6 24 6 36.5 33 c 128,-1,14
 49 60 49 60 68 83 c 128,-1,15
 87 106 87 106 109 126.5 c 128,-1,16
 131 147 131 147 150 168.5 c 128,-1,17
 169 190 169 190 181.5 214 c 128,-1,18
 194 238 194 238 194 268 c 0,19,20
 194 273 194 273 194 279.5 c 128,-1,21
 194 286 194 286 193 292 c 1,22,-1
 297 292 l 1,23,24
 299 282 299 282 300 270.5 c 128,-1,25
 301 259 301 259 301 249 c 0,26,27
 301 216 301 216 290 190 c 128,-1,28
 279 164 279 164 262 142 c 128,-1,29
 245 120 245 120 225.5 101 c 128,-1,30
 206 82 206 82 189 63 c 128,-1,31
 172 44 172 44 161 24 c 128,-1,32
 150 4 150 4 150 -20 c 0,33,34
 150 -53 150 -53 172.5 -74.5 c 128,-1,35
 195 -96 195 -96 240 -96 c 0,0,1
162 444 m 256,36,37
 162 479 162 479 185 501 c 128,-1,38
 208 523 208 523 242 523 c 0,39,40
 275 523 275 523 298.5 501 c 128,-1,41
 322 479 322 479 322 444 c 256,42,43
 322 409 322 409 298.5 386.5 c 128,-1,44
 275 364 275 364 242 364 c 0,45,46
 208 364 208 364 185 386.5 c 128,-1,47
 162 409 162 409 162 444 c 256,36,37
EndSplineSet
Substitution2: "'case' Case-Sensitive Forms lookup 18 subtable" Questiondown
EndChar

StartChar: Aring
Encoding: 137 197 135
Width: 684
GlyphClass: 2
Flags: W
LayerCount: 2
Fore
SplineSet
452 752 m 0,0,1
 452 723 452 723 441.5 702 c 128,-1,2
 431 681 431 681 413 667 c 1,3,4
 446 596 446 596 477.5 522.5 c 128,-1,5
 509 449 509 449 541.5 368 c 128,-1,6
 574 287 574 287 607.5 196.5 c 128,-1,7
 641 106 641 106 679 0 c 1,8,-1
 543 0 l 1,9,10
 529 41 529 41 514 81 c 128,-1,11
 499 121 499 121 485 163 c 1,12,-1
 193 163 l 1,13,14
 179 121 179 121 164.5 80.5 c 128,-1,15
 150 40 150 40 136 0 c 1,16,-1
 5 0 l 1,17,18
 42 106 42 106 75.5 196.5 c 128,-1,19
 109 287 109 287 141 368 c 128,-1,20
 173 449 173 449 204.5 522.5 c 128,-1,21
 236 596 236 596 269 667 c 1,22,23
 252 681 252 681 241.5 702 c 128,-1,24
 231 723 231 723 231 752 c 0,25,26
 231 777 231 777 240 797.5 c 128,-1,27
 249 818 249 818 264 831.5 c 128,-1,28
 279 845 279 845 299 852.5 c 128,-1,29
 319 860 319 860 341 860 c 256,30,31
 363 860 363 860 383 852.5 c 128,-1,32
 403 845 403 845 418.5 831.5 c 128,-1,33
 434 818 434 818 443 797.5 c 128,-1,34
 452 777 452 777 452 752 c 0,0,1
339 559 m 1,35,36
 316 506 316 506 286.5 430 c 128,-1,37
 257 354 257 354 225 265 c 1,38,-1
 453 265 l 1,39,40
 421 354 421 354 391 431 c 128,-1,41
 361 508 361 508 339 559 c 1,35,36
392 752 m 0,42,43
 392 777 392 777 377 791.5 c 128,-1,44
 362 806 362 806 341 806 c 0,45,46
 321 806 321 806 306 791.5 c 128,-1,47
 291 777 291 777 291 752 c 0,48,49
 291 726 291 726 306 712 c 128,-1,50
 321 698 321 698 341 698 c 0,51,52
 362 698 362 698 377 712 c 128,-1,53
 392 726 392 726 392 752 c 0,42,43
EndSplineSet
EndChar

StartChar: AE
Encoding: 138 198 136
Width: 957
GlyphClass: 2
Flags: W
LayerCount: 2
Fore
SplineSet
478 171 m 1,0,-1
 231 171 l 1,1,2
 208 129 208 129 184 85.5 c 128,-1,3
 160 42 160 42 140 0 c 1,4,-1
 3 0 l 1,5,6
 121 217 121 217 225 386.5 c 128,-1,7
 329 556 329 556 426 693 c 1,8,-1
 899 693 l 1,9,-1
 899 587 l 1,10,-1
 601 587 l 1,11,-1
 601 414 l 1,12,-1
 864 414 l 1,13,-1
 864 311 l 1,14,-1
 601 311 l 1,15,-1
 601 106 l 1,16,-1
 923 106 l 1,17,-1
 923 0 l 1,18,-1
 478 0 l 1,19,-1
 478 171 l 1,0,-1
478 579 m 1,20,21
 457 549 457 549 433 513 c 128,-1,22
 409 477 409 477 384 437 c 128,-1,23
 359 397 359 397 334 355 c 128,-1,24
 309 313 309 313 285 272 c 1,25,-1
 478 272 l 1,26,-1
 478 579 l 1,20,21
EndSplineSet
EndChar

StartChar: Ccedilla
Encoding: 139 199 137
Width: 638
GlyphClass: 2
Flags: W
LayerCount: 2
Fore
SplineSet
401 -39 m 1,0,1
 433 -54 433 -54 445.5 -73 c 128,-1,2
 458 -92 458 -92 458 -120 c 0,3,4
 458 -155 458 -155 428 -180 c 128,-1,5
 398 -205 398 -205 338 -205 c 0,6,7
 290 -205 290 -205 253 -192 c 1,8,-1
 267 -120 l 1,9,10
 277 -123 277 -123 293 -127 c 128,-1,11
 309 -131 309 -131 326 -131 c 256,12,13
 343 -131 343 -131 352.5 -125 c 128,-1,14
 362 -119 362 -119 362 -107 c 0,15,16
 362 -91 362 -91 348 -83.5 c 128,-1,17
 334 -76 334 -76 320 -71 c 2,18,-1
 310 -68 l 1,19,20
 314 -56 314 -56 320.5 -40.5 c 128,-1,21
 327 -25 327 -25 334 -11 c 1,22,23
 203 5 203 5 130 97 c 128,-1,24
 57 189 57 189 57 347 c 0,25,26
 57 434 57 434 83.5 501 c 128,-1,27
 110 568 110 568 156 614.5 c 128,-1,28
 202 661 202 661 264 685 c 128,-1,29
 326 709 326 709 397 709 c 0,30,31
 440 709 440 709 475 702.5 c 128,-1,32
 510 696 510 696 536 688 c 128,-1,33
 562 680 562 680 579 671 c 128,-1,34
 596 662 596 662 603 658 c 1,35,-1
 566 555 l 1,36,37
 542 570 542 570 497.5 583.5 c 128,-1,38
 453 597 453 597 401 597 c 0,39,40
 356 597 356 597 317 581.5 c 128,-1,41
 278 566 278 566 249.5 535 c 128,-1,42
 221 504 221 504 205 457 c 128,-1,43
 189 410 189 410 189 348 c 0,44,45
 189 293 189 293 201.5 247 c 128,-1,46
 214 201 214 201 240 167.5 c 128,-1,47
 266 134 266 134 306 115.5 c 128,-1,48
 346 97 346 97 402 97 c 0,49,50
 469 97 469 97 511 110.5 c 128,-1,51
 553 124 553 124 576 136 c 1,52,-1
 610 33 l 1,53,54
 588 19 588 19 536 3.5 c 128,-1,55
 484 -12 484 -12 412 -15 c 1,56,57
 408 -22 408 -22 405.5 -28 c 128,-1,58
 403 -34 403 -34 401 -39 c 1,0,1
EndSplineSet
EndChar

StartChar: Eth
Encoding: 148 208 146
Width: 740
GlyphClass: 2
Flags: W
LayerCount: 2
Fore
SplineSet
16 408 m 1,0,-1
 97 408 l 1,1,-1
 97 683 l 1,2,3
 145 694 145 694 199 697 c 128,-1,4
 253 700 253 700 295 700 c 0,5,6
 382 700 382 700 454 679.5 c 128,-1,7
 526 659 526 659 577.5 615.5 c 128,-1,8
 629 572 629 572 657 505.5 c 128,-1,9
 685 439 685 439 685 347 c 0,10,11
 685 257 685 257 657 190.5 c 128,-1,12
 629 124 629 124 577.5 79.5 c 128,-1,13
 526 35 526 35 453.5 13.5 c 128,-1,14
 381 -8 381 -8 293 -8 c 0,15,16
 251 -8 251 -8 198 -4.5 c 128,-1,17
 145 -1 145 -1 97 10 c 1,18,-1
 97 313 l 1,19,-1
 16 313 l 1,20,-1
 16 408 l 1,0,-1
223 408 m 1,21,-1
 351 408 l 1,22,-1
 351 313 l 1,23,-1
 223 313 l 1,24,-1
 223 104 l 1,25,26
 234 103 234 103 252 102.5 c 128,-1,27
 270 102 270 102 301 102 c 0,28,29
 428 102 428 102 490.5 166.5 c 128,-1,30
 553 231 553 231 553 347 c 0,31,32
 553 465 553 465 492 528 c 128,-1,33
 431 591 431 591 303 591 c 0,34,35
 247 591 247 591 223 588 c 1,36,-1
 223 408 l 1,21,-1
EndSplineSet
EndChar

StartChar: multiply
Encoding: 155 215 153
Width: 568
GlyphClass: 2
Flags: W
LayerCount: 2
Fore
SplineSet
425 507 m 1,0,-1
 496 435 l 1,1,-1
 355 294 l 1,2,-1
 496 154 l 1,3,-1
 425 82 l 1,4,-1
 284 223 l 1,5,-1
 143 82 l 1,6,-1
 72 154 l 1,7,-1
 213 294 l 1,8,-1
 72 435 l 1,9,-1
 143 507 l 1,10,-1
 284 366 l 1,11,-1
 425 507 l 1,0,-1
EndSplineSet
EndChar

StartChar: Oslash
Encoding: 156 216 154
Width: 782
GlyphClass: 2
Flags: W
LayerCount: 2
Fore
SplineSet
727 347 m 0,0,1
 727 258 727 258 700.5 190 c 128,-1,2
 674 122 674 122 628.5 76.5 c 128,-1,3
 583 31 583 31 522 8 c 128,-1,4
 461 -15 461 -15 392 -15 c 0,5,6
 341 -15 341 -15 294 -2.5 c 128,-1,7
 247 10 247 10 207 35 c 1,8,-1
 149 -41 l 1,9,-1
 76 14 l 1,10,-1
 138 94 l 1,11,12
 99 139 99 139 77 202.5 c 128,-1,13
 55 266 55 266 55 347 c 0,14,15
 55 436 55 436 82 503.5 c 128,-1,16
 109 571 109 571 155.5 617 c 128,-1,17
 202 663 202 663 263 686 c 128,-1,18
 324 709 324 709 392 709 c 0,19,20
 442 709 442 709 488 696.5 c 128,-1,21
 534 684 534 684 574 659 c 1,22,-1
 632 734 l 1,23,-1
 706 679 l 1,24,-1
 644 599 l 1,25,26
 682 554 682 554 704.5 491 c 128,-1,27
 727 428 727 428 727 347 c 0,0,1
186 347 m 0,28,29
 186 260 186 260 218 199 c 1,30,-1
 501 565 l 1,31,32
 454 598 454 598 391 598 c 0,33,34
 343 598 343 598 305 580 c 128,-1,35
 267 562 267 562 240.5 529 c 128,-1,36
 214 496 214 496 200 450 c 128,-1,37
 186 404 186 404 186 347 c 0,28,29
595 347 m 0,38,39
 595 390 595 390 586.5 427 c 128,-1,40
 578 464 578 464 563 494 c 1,41,-1
 280 128 l 1,42,43
 326 96 326 96 391 96 c 0,44,45
 438 96 438 96 476 114 c 128,-1,46
 514 132 514 132 540.5 164.5 c 128,-1,47
 567 197 567 197 581 243.5 c 128,-1,48
 595 290 595 290 595 347 c 0,38,39
EndSplineSet
EndChar

StartChar: Thorn
Encoding: 162 222 160
Width: 628
GlyphClass: 2
Flags: W
LayerCount: 2
Fore
SplineSet
286 589 m 0,0,1
 430 589 430 589 511 535 c 128,-1,2
 592 481 592 481 592 363 c 0,3,4
 592 302 592 302 570.5 258.5 c 128,-1,5
 549 215 549 215 508 187.5 c 128,-1,6
 467 160 467 160 408 147.5 c 128,-1,7
 349 135 349 135 273 135 c 2,8,-1
 210 135 l 1,9,-1
 210 0 l 1,10,-1
 84 0 l 1,11,-1
 84 693 l 1,12,-1
 210 693 l 1,13,-1
 210 586 l 1,14,15
 228 588 228 588 248.5 588.5 c 128,-1,16
 269 589 269 589 286 589 c 0,0,1
279 481 m 0,17,18
 256 481 256 481 237 480.5 c 128,-1,19
 218 480 218 480 210 479 c 1,20,-1
 210 241 l 1,21,-1
 271 241 l 2,22,23
 316 241 316 241 351.5 246.5 c 128,-1,24
 387 252 387 252 411 266.5 c 128,-1,25
 435 281 435 281 447.5 304.5 c 128,-1,26
 460 328 460 328 460 364 c 0,27,28
 460 398 460 398 447 421 c 128,-1,29
 434 444 434 444 410 457 c 128,-1,30
 386 470 386 470 352.5 475.5 c 128,-1,31
 319 481 319 481 279 481 c 0,17,18
EndSplineSet
EndChar

StartChar: germandbls
Encoding: 163 223 161
Width: 634
GlyphClass: 2
Flags: W
LayerCount: 2
Fore
SplineSet
515 613 m 0,0,1
 515 568 515 568 499 539 c 128,-1,2
 483 510 483 510 462 487 c 0,3,4
 439 461 439 461 422 441.5 c 128,-1,5
 405 422 405 422 405 396 c 0,6,7
 405 381 405 381 412.5 370 c 128,-1,8
 420 359 420 359 432.5 350 c 128,-1,9
 445 341 445 341 461.5 332.5 c 128,-1,10
 478 324 478 324 495 315 c 0,11,12
 517 303 517 303 537 289 c 128,-1,13
 557 275 557 275 572 256.5 c 128,-1,14
 587 238 587 238 595.5 214 c 128,-1,15
 604 190 604 190 604 158 c 0,16,17
 604 77 604 77 557 32.5 c 128,-1,18
 510 -12 510 -12 406 -12 c 0,19,20
 372 -12 372 -12 334.5 -5 c 128,-1,21
 297 2 297 2 262 16 c 1,22,-1
 283 116 l 1,23,24
 291 113 291 113 304 108 c 128,-1,25
 317 103 317 103 333 98.5 c 128,-1,26
 349 94 349 94 366.5 91 c 128,-1,27
 384 88 384 88 401 88 c 0,28,29
 443 88 443 88 463 106 c 128,-1,30
 483 124 483 124 483 156 c 256,31,32
 483 188 483 188 458.5 210.5 c 128,-1,33
 434 233 434 233 384 256 c 0,34,35
 353 270 353 270 333.5 284.5 c 128,-1,36
 314 299 314 299 303.5 314 c 128,-1,37
 293 329 293 329 289 345.5 c 128,-1,38
 285 362 285 362 285 380 c 0,39,40
 285 420 285 420 305.5 449 c 128,-1,41
 326 478 326 478 351 505 c 0,42,43
 369 525 369 525 384 546.5 c 128,-1,44
 399 568 399 568 399 594 c 0,45,46
 399 633 399 633 375.5 653 c 128,-1,47
 352 673 352 673 308 673 c 0,48,49
 250 673 250 673 223 639 c 128,-1,50
 196 605 196 605 196 544 c 2,51,-1
 196 0 l 1,52,-1
 77 0 l 1,53,-1
 77 543 l 2,54,55
 77 595 77 595 91 637.5 c 128,-1,56
 105 680 105 680 133 711 c 128,-1,57
 161 742 161 742 203.5 759 c 128,-1,58
 246 776 246 776 302 776 c 256,59,60
 358 776 358 776 398.5 763 c 128,-1,61
 439 750 439 750 465 728 c 128,-1,62
 491 706 491 706 503 676.5 c 128,-1,63
 515 647 515 647 515 613 c 0,0,1
EndSplineSet
EndChar

StartChar: ae
Encoding: 170 230 168
Width: 869
GlyphClass: 2
Flags: W
LayerCount: 2
Fore
SplineSet
253 536 m 0,0,1
 319 536 319 536 358 516 c 128,-1,2
 397 496 397 496 421 456 c 1,3,4
 455 498 455 498 499 517 c 128,-1,5
 543 536 543 536 592 536 c 0,6,7
 698 536 698 536 758 469 c 128,-1,8
 818 402 818 402 818 269 c 0,9,10
 818 257 818 257 817 246 c 128,-1,11
 816 235 816 235 816 224 c 1,12,-1
 471 224 l 1,13,14
 476 161 476 161 515.5 126.5 c 128,-1,15
 555 92 555 92 629 92 c 0,16,17
 674 92 674 92 710.5 100 c 128,-1,18
 747 108 747 108 768 117 c 1,19,-1
 784 18 l 1,20,21
 774 13 774 13 756.5 7.5 c 128,-1,22
 739 2 739 2 716.5 -2.5 c 128,-1,23
 694 -7 694 -7 667.5 -10 c 128,-1,24
 641 -13 641 -13 614 -13 c 0,25,26
 556 -13 556 -13 513 1 c 128,-1,27
 470 15 470 15 438 40 c 1,28,29
 399 15 399 15 352.5 1.5 c 128,-1,30
 306 -12 306 -12 253 -12 c 0,31,32
 205 -12 205 -12 165.5 -2.5 c 128,-1,33
 126 7 126 7 98 27.5 c 128,-1,34
 70 48 70 48 55 80 c 128,-1,35
 40 112 40 112 40 158 c 0,36,37
 40 203 40 203 58 234 c 128,-1,38
 76 265 76 265 107 284.5 c 128,-1,39
 138 304 138 304 177.5 312.5 c 128,-1,40
 217 321 217 321 261 321 c 0,41,42
 289 321 289 321 315 317 c 128,-1,43
 341 313 341 313 352 310 c 1,44,-1
 352 332 l 2,45,46
 352 353 352 353 346.5 372 c 128,-1,47
 341 391 341 391 328.5 404.5 c 128,-1,48
 316 418 316 418 294.5 426 c 128,-1,49
 273 434 273 434 242 434 c 0,50,51
 200 434 200 434 164.5 428 c 128,-1,52
 129 422 129 422 106 414 c 1,53,-1
 91 512 l 1,54,55
 114 520 114 520 158.5 528 c 128,-1,56
 203 536 203 536 253 536 c 0,0,1
267 85 m 0,57,58
 309 85 309 85 336.5 92.5 c 128,-1,59
 364 100 364 100 381 110 c 1,60,61
 367 142 367 142 360.5 169.5 c 128,-1,62
 354 197 354 197 352 226 c 1,63,64
 339 229 339 229 319.5 231.5 c 128,-1,65
 300 234 300 234 279 234 c 256,66,67
 258 234 258 234 237 231 c 128,-1,68
 216 228 216 228 199 220 c 128,-1,69
 182 212 182 212 171.5 197.5 c 128,-1,70
 161 183 161 183 161 161 c 0,71,72
 161 118 161 118 189 101.5 c 128,-1,73
 217 85 217 85 267 85 c 0,57,58
697 313 m 1,74,75
 697 338 697 338 690 360.5 c 128,-1,76
 683 383 683 383 669.5 399.5 c 128,-1,77
 656 416 656 416 636.5 425.5 c 128,-1,78
 617 435 617 435 590 435 c 0,79,80
 562 435 562 435 541 424.5 c 128,-1,81
 520 414 520 414 505.5 397 c 128,-1,82
 491 380 491 380 483 358 c 128,-1,83
 475 336 475 336 472 313 c 1,84,-1
 697 313 l 1,74,75
EndSplineSet
Substitution2: "'case' Case-Sensitive Forms lookup 19 subtable" AE
EndChar

StartChar: ccedilla
Encoding: 171 231 169
Width: 472
GlyphClass: 2
Flags: W
LayerCount: 2
Fore
SplineSet
317 -39 m 1,0,1
 349 -54 349 -54 361.5 -73 c 128,-1,2
 374 -92 374 -92 374 -120 c 0,3,4
 374 -155 374 -155 344 -180 c 128,-1,5
 314 -205 314 -205 254 -205 c 0,6,7
 206 -205 206 -205 169 -192 c 1,8,-1
 183 -120 l 1,9,10
 193 -123 193 -123 209 -127 c 128,-1,11
 225 -131 225 -131 242 -131 c 256,12,13
 259 -131 259 -131 268.5 -125 c 128,-1,14
 278 -119 278 -119 278 -107 c 0,15,16
 278 -91 278 -91 264 -83.5 c 128,-1,17
 250 -76 250 -76 236 -71 c 2,18,-1
 226 -68 l 1,19,20
 230 -55 230 -55 237 -38.5 c 128,-1,21
 244 -22 244 -22 251 -8 c 1,22,23
 199 1 199 1 161 24 c 128,-1,24
 123 47 123 47 98 82.5 c 128,-1,25
 73 118 73 118 60.5 163 c 128,-1,26
 48 208 48 208 48 261 c 0,27,28
 48 319 48 319 66 369.5 c 128,-1,29
 84 420 84 420 117.5 457 c 128,-1,30
 151 494 151 494 199 515 c 128,-1,31
 247 536 247 536 307 536 c 0,32,33
 381 536 381 536 447 509 c 1,34,-1
 421 410 l 1,35,36
 400 419 400 419 373.5 425 c 128,-1,37
 347 431 347 431 317 431 c 0,38,39
 246 431 246 431 209 386.5 c 128,-1,40
 172 342 172 342 172 261 c 0,41,42
 172 183 172 183 207 137.5 c 128,-1,43
 242 92 242 92 325 92 c 0,44,45
 356 92 356 92 386 98 c 128,-1,46
 416 104 416 104 438 113 c 1,47,-1
 455 13 l 1,48,49
 437 4 437 4 402 -3 c 128,-1,50
 367 -10 367 -10 329 -12 c 1,51,52
 325 -20 325 -20 322 -27 c 128,-1,53
 319 -34 319 -34 317 -39 c 1,0,1
EndSplineSet
Substitution2: "'case' Case-Sensitive Forms lookup 19 subtable" Ccedilla
EndChar

StartChar: eth
Encoding: 180 240 178
Width: 591
GlyphClass: 2
Flags: W
LayerCount: 2
Fore
SplineSet
469 611 m 1,0,1
 506 545 506 545 525 472 c 128,-1,2
 544 399 544 399 544 318 c 0,3,4
 544 248 544 248 530.5 187.5 c 128,-1,5
 517 127 517 127 487 82 c 128,-1,6
 457 37 457 37 408.5 11.5 c 128,-1,7
 360 -14 360 -14 290 -14 c 0,8,9
 229 -14 229 -14 183.5 7 c 128,-1,10
 138 28 138 28 107.5 63 c 128,-1,11
 77 98 77 98 62 144 c 128,-1,12
 47 190 47 190 47 241 c 0,13,14
 47 296 47 296 62 341 c 128,-1,15
 77 386 77 386 107 418 c 128,-1,16
 137 450 137 450 181 467.5 c 128,-1,17
 225 485 225 485 282 485 c 0,18,19
 315 485 315 485 350.5 475.5 c 128,-1,20
 386 466 386 466 413 450 c 1,21,22
 401 517 401 517 364 575 c 1,23,-1
 248 536 l 1,24,-1
 222 610 l 1,25,-1
 313 641 l 1,26,27
 281 676 281 676 234 709 c 1,28,-1
 305 778 l 1,29,30
 333 761 333 761 363 736 c 128,-1,31
 393 711 393 711 421 677 c 1,32,-1
 541 718 l 1,33,-1
 567 645 l 1,34,-1
 469 611 l 1,0,1
421 319 m 0,35,36
 421 322 421 322 421 329.5 c 128,-1,37
 421 337 421 337 420 343 c 0,38,39
 391 368 391 368 359.5 376.5 c 128,-1,40
 328 385 328 385 300 385 c 0,41,42
 264 385 264 385 239 374 c 128,-1,43
 214 363 214 363 198.5 343.5 c 128,-1,44
 183 324 183 324 176 298 c 128,-1,45
 169 272 169 272 169 242 c 0,46,47
 169 210 169 210 176.5 183 c 128,-1,48
 184 156 184 156 199 135.5 c 128,-1,49
 214 115 214 115 237 103.5 c 128,-1,50
 260 92 260 92 290 92 c 0,51,52
 331 92 331 92 356.5 109.5 c 128,-1,53
 382 127 382 127 396.5 158 c 128,-1,54
 411 189 411 189 416 230.5 c 128,-1,55
 421 272 421 272 421 319 c 0,35,36
EndSplineSet
Substitution2: "'case' Case-Sensitive Forms lookup 19 subtable" Eth
EndChar

StartChar: divide
Encoding: 187 247 185
Width: 568
GlyphClass: 2
Flags: W
LayerCount: 2
Fore
SplineSet
357 492 m 0,0,1
 357 457 357 457 335 438 c 128,-1,2
 313 419 313 419 284 419 c 256,3,4
 255 419 255 419 233.5 438 c 128,-1,5
 212 457 212 457 212 492 c 0,6,7
 212 526 212 526 233.5 545 c 128,-1,8
 255 564 255 564 284 564 c 256,9,10
 313 564 313 564 335 545 c 128,-1,11
 357 526 357 526 357 492 c 0,0,1
357 96 m 0,12,13
 357 62 357 62 335 43 c 128,-1,14
 313 24 313 24 284 24 c 256,15,16
 255 24 255 24 233.5 43 c 128,-1,17
 212 62 212 62 212 96 c 0,18,19
 212 131 212 131 233.5 150 c 128,-1,20
 255 169 255 169 284 169 c 256,21,22
 313 169 313 169 335 150 c 128,-1,23
 357 131 357 131 357 96 c 0,12,13
52 345 m 1,24,-1
 516 345 l 1,25,-1
 516 243 l 1,26,-1
 52 243 l 1,27,-1
 52 345 l 1,24,-1
EndSplineSet
EndChar

StartChar: oslash
Encoding: 188 248 186
Width: 598
GlyphClass: 2
Flags: W
LayerCount: 2
Fore
SplineSet
550 262 m 0,0,1
 550 200 550 200 532 149 c 128,-1,2
 514 98 514 98 481 62 c 128,-1,3
 448 26 448 26 401.5 6 c 128,-1,4
 355 -14 355 -14 299 -14 c 0,5,6
 261 -14 261 -14 227 -4 c 128,-1,7
 193 6 193 6 164 23 c 1,8,-1
 117 -38 l 1,9,-1
 55 9 l 1,10,-1
 106 75 l 1,11,12
 78 111 78 111 63 158 c 128,-1,13
 48 205 48 205 48 262 c 0,14,15
 48 324 48 324 66.5 374.5 c 128,-1,16
 85 425 85 425 118.5 461 c 128,-1,17
 152 497 152 497 198 516.5 c 128,-1,18
 244 536 244 536 299 536 c 0,19,20
 375 536 375 536 434 499 c 1,21,-1
 481 560 l 1,22,-1
 542 514 l 1,23,-1
 491 448 l 1,24,25
 519 413 519 413 534.5 366 c 128,-1,26
 550 319 550 319 550 262 c 0,0,1
430 262 m 0,27,28
 430 311 430 311 416 350 c 1,29,-1
 228 107 l 1,30,31
 258 86 258 86 299 86 c 0,32,33
 362 86 362 86 396 133.5 c 128,-1,34
 430 181 430 181 430 262 c 0,27,28
168 262 m 0,35,36
 168 212 168 212 182 173 c 1,37,-1
 369 415 l 1,38,39
 337 436 337 436 299 436 c 0,40,41
 237 436 237 436 202.5 389.5 c 128,-1,42
 168 343 168 343 168 262 c 0,35,36
EndSplineSet
Substitution2: "'case' Case-Sensitive Forms lookup 19 subtable" Oslash
EndChar

StartChar: thorn
Encoding: 194 254 192
Width: 596
GlyphClass: 2
Flags: W
LayerCount: 2
Fore
SplineSet
550 261 m 0,0,1
 550 201 550 201 534.5 151 c 128,-1,2
 519 101 519 101 489.5 65 c 128,-1,3
 460 29 460 29 417 9 c 128,-1,4
 374 -11 374 -11 318 -11 c 0,5,6
 280 -11 280 -11 249.5 -2 c 128,-1,7
 219 7 219 7 198 18 c 1,8,-1
 198 -185 l 1,9,-1
 77 -185 l 1,10,-1
 77 756 l 1,11,-1
 198 776 l 1,12,-1
 198 519 l 1,13,14
 219 526 219 526 244 530 c 128,-1,15
 269 534 269 534 290 534 c 0,16,17
 349 534 349 534 397 515 c 128,-1,18
 445 496 445 496 479 460.5 c 128,-1,19
 513 425 513 425 531.5 374.5 c 128,-1,20
 550 324 550 324 550 261 c 0,0,1
426 259 m 0,21,22
 426 291 426 291 417 322 c 128,-1,23
 408 353 408 353 390 377 c 128,-1,24
 372 401 372 401 344 415.5 c 128,-1,25
 316 430 316 430 279 430 c 0,26,27
 252 430 252 430 230.5 426 c 128,-1,28
 209 422 209 422 198 417 c 1,29,-1
 198 123 l 1,30,31
 214 112 214 112 240.5 102.5 c 128,-1,32
 267 93 267 93 298 93 c 0,33,34
 365 93 365 93 395.5 138 c 128,-1,35
 426 183 426 183 426 259 c 0,21,22
EndSplineSet
Substitution2: "'case' Case-Sensitive Forms lookup 19 subtable" Thorn
EndChar

StartChar: Aogonek
Encoding: 200 260 198
Width: 684
GlyphClass: 2
Flags: W
LayerCount: 2
Fore
SplineSet
339 559 m 1,0,1
 316 506 316 506 286.5 430 c 128,-1,2
 257 354 257 354 225 265 c 1,3,-1
 453 265 l 1,4,5
 421 354 421 354 391.5 430 c 128,-1,6
 362 506 362 506 339 559 c 1,0,1
543 0 m 1,7,8
 529 41 529 41 514 81 c 128,-1,9
 499 121 499 121 485 163 c 1,10,-1
 193 163 l 1,11,12
 179 121 179 121 164.5 80.5 c 128,-1,13
 150 40 150 40 136 0 c 1,14,-1
 5 0 l 1,15,16
 44 111 44 111 79 205 c 128,-1,17
 114 299 114 299 147.5 383 c 128,-1,18
 181 467 181 467 214 543 c 128,-1,19
 247 619 247 619 282 693 c 1,20,-1
 401 693 l 1,21,22
 436 619 436 619 469 543 c 128,-1,23
 502 467 502 467 535.5 383.5 c 128,-1,24
 569 300 569 300 604 206 c 128,-1,25
 639 112 639 112 678 1 c 1,26,27
 668 -6 668 -6 654.5 -17 c 128,-1,28
 641 -28 641 -28 629 -40.5 c 128,-1,29
 617 -53 617 -53 608.5 -66 c 128,-1,30
 600 -79 600 -79 600 -91 c 0,31,32
 600 -118 600 -118 635 -118 c 0,33,34
 643 -118 643 -118 655 -116.5 c 128,-1,35
 667 -115 667 -115 681 -110 c 1,36,-1
 690 -191 l 1,37,38
 675 -197 675 -197 652 -200.5 c 128,-1,39
 629 -204 629 -204 608 -204 c 0,40,41
 546 -204 546 -204 518 -181.5 c 128,-1,42
 490 -159 490 -159 490 -121 c 0,43,44
 490 -102 490 -102 499 -83 c 128,-1,45
 508 -64 508 -64 521.5 -48.5 c 128,-1,46
 535 -33 535 -33 549.5 -20.5 c 128,-1,47
 564 -8 564 -8 575 0 c 1,48,-1
 543 0 l 1,7,8
EndSplineSet
EndChar

StartChar: aogonek
Encoding: 201 261 199
Width: 534
GlyphClass: 2
Flags: W
LayerCount: 2
Fore
SplineSet
251 536 m 0,0,1
 311 536 311 536 352 521 c 128,-1,2
 393 506 393 506 417.5 479 c 128,-1,3
 442 452 442 452 452.5 413.5 c 128,-1,4
 463 375 463 375 463 329 c 2,5,-1
 463 12 l 1,6,7
 452 3 452 3 435.5 -10 c 128,-1,8
 419 -23 419 -23 403 -40 c 0,9,10
 389 -54 389 -54 381 -66 c 128,-1,11
 373 -78 373 -78 373 -91 c 0,12,13
 373 -118 373 -118 408 -118 c 0,14,15
 416 -118 416 -118 428 -116.5 c 128,-1,16
 440 -115 440 -115 454 -110 c 1,17,-1
 464 -191 l 1,18,19
 448 -197 448 -197 425.5 -200.5 c 128,-1,20
 403 -204 403 -204 381 -204 c 0,21,22
 319 -204 319 -204 291.5 -181.5 c 128,-1,23
 264 -159 264 -159 264 -121 c 0,24,25
 264 -98 264 -98 275 -77.5 c 128,-1,26
 286 -57 286 -57 303 -39 c 0,27,28
 317 -22 317 -22 337 -7 c 1,29,30
 317 -9 317 -9 295.5 -10 c 128,-1,31
 274 -11 274 -11 251 -11 c 0,32,33
 204 -11 204 -11 165 -2 c 128,-1,34
 126 7 126 7 98.5 27 c 128,-1,35
 71 47 71 47 55.5 79 c 128,-1,36
 40 111 40 111 40 158 c 0,37,38
 40 203 40 203 57.5 234 c 128,-1,39
 75 265 75 265 105 284.5 c 128,-1,40
 135 304 135 304 174.5 312.5 c 128,-1,41
 214 321 214 321 257 321 c 0,42,43
 277 321 277 321 299 318.5 c 128,-1,44
 321 316 321 316 346 310 c 1,45,-1
 346 330 l 2,46,47
 346 351 346 351 341 370 c 128,-1,48
 336 389 336 389 323.5 403.5 c 128,-1,49
 311 418 311 418 290.5 426 c 128,-1,50
 270 434 270 434 239 434 c 0,51,52
 197 434 197 434 162 428 c 128,-1,53
 127 422 127 422 105 414 c 1,54,-1
 90 512 l 1,55,56
 113 520 113 520 157 528 c 128,-1,57
 201 536 201 536 251 536 c 0,0,1
261 85 m 0,58,59
 317 85 317 85 346 91 c 1,60,-1
 346 225 l 1,61,62
 336 228 336 228 317 231 c 128,-1,63
 298 234 298 234 275 234 c 0,64,65
 255 234 255 234 234.5 231 c 128,-1,66
 214 228 214 228 197.5 220 c 128,-1,67
 181 212 181 212 171 197.5 c 128,-1,68
 161 183 161 183 161 161 c 0,69,70
 161 118 161 118 188 101.5 c 128,-1,71
 215 85 215 85 261 85 c 0,58,59
EndSplineSet
Substitution2: "'case' Case-Sensitive Forms lookup 19 subtable" Aogonek
EndChar

StartChar: dcroat
Encoding: 213 273 211
Width: 596
GlyphClass: 2
Flags: W
LayerCount: 2
Fore
SplineSet
519 686 m 1,0,-1
 587 686 l 1,1,-1
 587 605 l 1,2,-1
 519 605 l 1,3,-1
 519 16 l 1,4,5
 483 5 483 5 428.5 -4 c 128,-1,6
 374 -13 374 -13 314 -13 c 0,7,8
 252 -13 252 -13 203 6 c 128,-1,9
 154 25 154 25 119.5 60 c 128,-1,10
 85 95 85 95 66.5 144.5 c 128,-1,11
 48 194 48 194 48 256 c 0,12,13
 48 316 48 316 63.5 366 c 128,-1,14
 79 416 79 416 109 451.5 c 128,-1,15
 139 487 139 487 182 506.5 c 128,-1,16
 225 526 225 526 281 526 c 0,17,18
 319 526 319 526 348 517 c 128,-1,19
 377 508 377 508 398 497 c 1,20,-1
 398 605 l 1,21,-1
 238 605 l 1,22,-1
 238 686 l 1,23,-1
 398 686 l 1,24,-1
 398 756 l 1,25,-1
 519 776 l 1,26,-1
 519 686 l 1,0,-1
172 259 m 0,27,28
 172 182 172 182 210 137 c 128,-1,29
 248 92 248 92 315 92 c 0,30,31
 344 92 344 92 364.5 94.5 c 128,-1,32
 385 97 385 97 398 100 c 1,33,-1
 398 392 l 1,34,35
 382 403 382 403 355.5 412.5 c 128,-1,36
 329 422 329 422 299 422 c 0,37,38
 233 422 233 422 202.5 377.5 c 128,-1,39
 172 333 172 333 172 259 c 0,27,28
EndSplineSet
Substitution2: "'case' Case-Sensitive Forms lookup 19 subtable" Dcroat
EndChar

StartChar: Eogonek
Encoding: 220 280 218
Width: 586
GlyphClass: 2
Flags: W
LayerCount: 2
Fore
SplineSet
482 -204 m 0,0,1
 420 -204 420 -204 392 -181.5 c 128,-1,2
 364 -159 364 -159 364 -121 c 0,3,4
 364 -98 364 -98 374.5 -77.5 c 128,-1,5
 385 -57 385 -57 402 -39 c 0,6,7
 412 -27 412 -27 421.5 -17.5 c 128,-1,8
 431 -8 431 -8 442 0 c 1,9,-1
 83 0 l 1,10,-1
 83 693 l 1,11,-1
 528 693 l 1,12,-1
 528 586 l 1,13,-1
 209 586 l 1,14,-1
 209 415 l 1,15,-1
 493 415 l 1,16,-1
 493 310 l 1,17,-1
 209 310 l 1,18,-1
 209 107 l 1,19,-1
 552 107 l 1,20,-1
 552 1 l 1,21,22
 543 -6 543 -6 529.5 -16 c 128,-1,23
 516 -26 516 -26 503 -40 c 0,24,25
 489 -54 489 -54 481.5 -66 c 128,-1,26
 474 -78 474 -78 474 -91 c 0,27,28
 474 -118 474 -118 509 -118 c 0,29,30
 517 -118 517 -118 529 -116.5 c 128,-1,31
 541 -115 541 -115 555 -110 c 1,32,-1
 564 -191 l 1,33,34
 549 -197 549 -197 526 -200.5 c 128,-1,35
 503 -204 503 -204 482 -204 c 0,0,1
EndSplineSet
EndChar

StartChar: eogonek
Encoding: 221 281 219
Width: 571
GlyphClass: 2
Flags: W
LayerCount: 2
Fore
SplineSet
48 259 m 0,0,1
 48 328 48 328 68.5 380 c 128,-1,2
 89 432 89 432 123 466.5 c 128,-1,3
 157 501 157 501 201 518.5 c 128,-1,4
 245 536 245 536 291 536 c 0,5,6
 399 536 399 536 459.5 469 c 128,-1,7
 520 402 520 402 520 269 c 0,8,9
 520 259 520 259 519.5 246.5 c 128,-1,10
 519 234 519 234 518 224 c 1,11,-1
 173 224 l 1,12,13
 178 161 178 161 217.5 126.5 c 128,-1,14
 257 92 257 92 332 92 c 0,15,16
 376 92 376 92 412.5 100 c 128,-1,17
 449 108 449 108 470 117 c 1,18,-1
 486 18 l 1,19,20
 471 7 471 7 454 -6.5 c 128,-1,21
 437 -20 437 -20 422 -35 c 128,-1,22
 407 -50 407 -50 397 -64.5 c 128,-1,23
 387 -79 387 -79 387 -91 c 0,24,25
 387 -118 387 -118 422 -118 c 0,26,27
 442 -118 442 -118 468 -110 c 1,28,-1
 477 -191 l 1,29,30
 461 -198 461 -198 437.5 -201 c 128,-1,31
 414 -204 414 -204 395 -204 c 0,32,33
 336 -204 336 -204 306.5 -182.5 c 128,-1,34
 277 -161 277 -161 277 -121 c 0,35,36
 277 -92 277 -92 295.5 -65 c 128,-1,37
 314 -38 314 -38 343 -12 c 1,38,39
 337 -13 337 -13 330 -13 c 128,-1,40
 323 -13 323 -13 317 -13 c 0,41,42
 248 -13 248 -13 197 7.5 c 128,-1,43
 146 28 146 28 113 64.5 c 128,-1,44
 80 101 80 101 64 150.5 c 128,-1,45
 48 200 48 200 48 259 c 0,0,1
399 313 m 1,46,47
 399 338 399 338 392 360.5 c 128,-1,48
 385 383 385 383 371.5 399.5 c 128,-1,49
 358 416 358 416 338.5 425.5 c 128,-1,50
 319 435 319 435 292 435 c 0,51,52
 264 435 264 435 243 424.5 c 128,-1,53
 222 414 222 414 207.5 397 c 128,-1,54
 193 380 193 380 185 358 c 128,-1,55
 177 336 177 336 174 313 c 1,56,-1
 399 313 l 1,46,47
EndSplineSet
Substitution2: "'case' Case-Sensitive Forms lookup 19 subtable" Eogonek
EndChar

StartChar: Hbar
Encoding: 234 294 232
Width: 747
GlyphClass: 2
Flags: W
LayerCount: 2
Fore
SplineSet
16 603 m 1,0,-1
 97 603 l 1,1,-1
 97 693 l 1,2,-1
 223 693 l 1,3,-1
 223 603 l 1,4,-1
 524 603 l 1,5,-1
 524 693 l 1,6,-1
 650 693 l 1,7,-1
 650 603 l 1,8,-1
 731 603 l 1,9,-1
 731 512 l 1,10,-1
 650 512 l 1,11,-1
 650 0 l 1,12,-1
 524 0 l 1,13,-1
 524 307 l 1,14,-1
 223 307 l 1,15,-1
 223 0 l 1,16,-1
 97 0 l 1,17,-1
 97 512 l 1,18,-1
 16 512 l 1,19,-1
 16 603 l 1,0,-1
524 512 m 1,20,-1
 223 512 l 1,21,-1
 223 416 l 1,22,-1
 524 416 l 1,23,-1
 524 512 l 1,20,-1
EndSplineSet
EndChar

StartChar: hbar
Encoding: 235 295 233
Width: 582
GlyphClass: 2
Flags: W
LayerCount: 2
Fore
SplineSet
198 605 m 1,0,-1
 198 508 l 1,1,2
 218 515 218 515 244.5 520 c 128,-1,3
 271 525 271 525 297 525 c 0,4,5
 360 525 360 525 401.5 507.5 c 128,-1,6
 443 490 443 490 468 458.5 c 128,-1,7
 493 427 493 427 503.5 383 c 128,-1,8
 514 339 514 339 514 285 c 2,9,-1
 514 0 l 1,10,-1
 393 0 l 1,11,-1
 393 266 l 2,12,13
 393 308 393 308 387.5 337.5 c 128,-1,14
 382 367 382 367 369.5 385.5 c 128,-1,15
 357 404 357 404 336 412.5 c 128,-1,16
 315 421 315 421 284 421 c 0,17,18
 260 421 260 421 235 416 c 128,-1,19
 210 411 210 411 198 407 c 1,20,-1
 198 0 l 1,21,-1
 77 0 l 1,22,-1
 77 605 l 1,23,-1
 9 605 l 1,24,-1
 9 686 l 1,25,-1
 77 686 l 1,26,-1
 77 756 l 1,27,-1
 198 776 l 1,28,-1
 198 686 l 1,29,-1
 358 686 l 1,30,-1
 358 605 l 1,31,-1
 198 605 l 1,0,-1
EndSplineSet
Substitution2: "'case' Case-Sensitive Forms lookup 19 subtable" Hbar
EndChar

StartChar: Iogonek
Encoding: 242 302 240
Width: 292
GlyphClass: 2
Flags: W
LayerCount: 2
Fore
SplineSet
86 693 m 1,0,-1
 212 693 l 1,1,-1
 212 0 l 1,2,3
 201 -9 201 -9 188 -20 c 128,-1,4
 175 -31 175 -31 164 -43.5 c 128,-1,5
 153 -56 153 -56 145 -68.5 c 128,-1,6
 137 -81 137 -81 137 -91 c 0,7,8
 137 -118 137 -118 172 -118 c 0,9,10
 180 -118 180 -118 192 -116.5 c 128,-1,11
 204 -115 204 -115 218 -110 c 1,12,-1
 227 -191 l 1,13,14
 212 -197 212 -197 189 -200.5 c 128,-1,15
 166 -204 166 -204 145 -204 c 0,16,17
 85 -204 85 -204 56 -182.5 c 128,-1,18
 27 -161 27 -161 27 -125 c 0,19,20
 27 -104 27 -104 35.5 -86 c 128,-1,21
 44 -68 44 -68 58 -52.5 c 128,-1,22
 72 -37 72 -37 89.5 -24 c 128,-1,23
 107 -11 107 -11 125 0 c 1,24,-1
 86 0 l 1,25,-1
 86 693 l 1,0,-1
EndSplineSet
EndChar

StartChar: iogonek
Encoding: 243 303 241
Width: 276
GlyphClass: 2
Flags: W
LayerCount: 2
Fore
SplineSet
132 -204 m 0,0,1
 72 -204 72 -204 43.5 -182.5 c 128,-1,2
 15 -161 15 -161 15 -125 c 0,3,4
 15 -105 15 -105 23 -87 c 128,-1,5
 31 -69 31 -69 44.5 -53.5 c 128,-1,6
 58 -38 58 -38 75.5 -24.5 c 128,-1,7
 93 -11 93 -11 112 0 c 1,8,-1
 78 0 l 1,9,-1
 78 523 l 1,10,-1
 199 523 l 1,11,-1
 199 0 l 1,12,13
 187 -9 187 -9 174 -21 c 128,-1,14
 161 -33 161 -33 150 -45 c 128,-1,15
 139 -57 139 -57 131.5 -69 c 128,-1,16
 124 -81 124 -81 124 -91 c 0,17,18
 124 -118 124 -118 159 -118 c 0,19,20
 167 -118 167 -118 179 -116.5 c 128,-1,21
 191 -115 191 -115 205 -110 c 1,22,-1
 215 -191 l 1,23,24
 199 -197 199 -197 176.5 -200.5 c 128,-1,25
 154 -204 154 -204 132 -204 c 0,0,1
212 676 m 0,26,27
 212 642 212 642 190 622 c 128,-1,28
 168 602 168 602 138 602 c 0,29,30
 107 602 107 602 85 622 c 128,-1,31
 63 642 63 642 63 676 c 0,32,33
 63 711 63 711 85 731 c 128,-1,34
 107 751 107 751 138 751 c 0,35,36
 168 751 168 751 190 731 c 128,-1,37
 212 711 212 711 212 676 c 0,26,27
EndSplineSet
Substitution2: "'case' Case-Sensitive Forms lookup 19 subtable" Iogonek
EndChar

StartChar: dotlessi
Encoding: 245 305 243
Width: 276
GlyphClass: 2
Flags: W
LayerCount: 2
Fore
SplineSet
199 0 m 1,0,-1
 78 0 l 1,1,-1
 78 523 l 1,2,-1
 199 523 l 1,3,-1
 199 0 l 1,0,-1
EndSplineSet
EndChar

StartChar: kgreenlandic
Encoding: 252 312 250
Width: 560
GlyphClass: 2
Flags: W
LayerCount: 2
Fore
SplineSet
198 313 m 1,0,1
 221 336 221 336 248 364.5 c 128,-1,2
 275 393 275 393 301.5 422 c 128,-1,3
 328 451 328 451 352 477.5 c 128,-1,4
 376 504 376 504 392 523 c 1,5,-1
 534 523 l 1,6,7
 512 497 512 497 483.5 466 c 128,-1,8
 455 435 455 435 424.5 402.5 c 128,-1,9
 394 370 394 370 364.5 339.5 c 128,-1,10
 335 309 335 309 311 285 c 1,11,12
 342 259 342 259 375.5 224.5 c 128,-1,13
 409 190 409 190 441.5 151.5 c 128,-1,14
 474 113 474 113 502 73.5 c 128,-1,15
 530 34 530 34 549 0 c 1,16,-1
 409 0 l 1,17,18
 390 30 390 30 364.5 63 c 128,-1,19
 339 96 339 96 311 127.5 c 128,-1,20
 283 159 283 159 254 187 c 128,-1,21
 225 215 225 215 198 235 c 1,22,-1
 198 0 l 1,23,-1
 77 0 l 1,24,-1
 77 523 l 1,25,-1
 198 523 l 1,26,-1
 198 313 l 1,0,1
EndSplineSet
Substitution2: "'case' Case-Sensitive Forms lookup 19 subtable" kgreenlandic.case
EndChar

StartChar: Lslash
Encoding: 261 321 259
Width: 554
GlyphClass: 2
Flags: W
LayerCount: 2
Fore
SplineSet
-5 319 m 1,0,-1
 103 374 l 1,1,-1
 103 693 l 1,2,-1
 229 693 l 1,3,-1
 229 438 l 1,4,-1
 349 499 l 1,5,-1
 389 416 l 1,6,-1
 229 334 l 1,7,-1
 229 109 l 1,8,-1
 541 109 l 1,9,-1
 541 0 l 1,10,-1
 103 0 l 1,11,-1
 103 270 l 1,12,-1
 36 236 l 1,13,-1
 -5 319 l 1,0,-1
EndSplineSet
EndChar

StartChar: lslash
Encoding: 262 322 260
Width: 324
GlyphClass: 2
Flags: W
LayerCount: 2
Fore
SplineSet
0 383 m 1,0,-1
 98 432 l 1,1,-1
 98 756 l 1,2,-1
 219 776 l 1,3,-1
 219 493 l 1,4,-1
 291 530 l 1,5,-1
 329 453 l 1,6,-1
 219 397 l 1,7,-1
 219 177 l 2,8,9
 219 155 219 155 222.5 140 c 128,-1,10
 226 125 226 125 235 114.5 c 128,-1,11
 244 104 244 104 259.5 98.5 c 128,-1,12
 275 93 275 93 299 90 c 1,13,-1
 282 -10 l 1,14,15
 228 -9 228 -9 192.5 2 c 128,-1,16
 157 13 157 13 136 33.5 c 128,-1,17
 115 54 115 54 106.5 84.5 c 128,-1,18
 98 115 98 115 98 154 c 2,19,-1
 98 336 l 1,20,-1
 39 306 l 1,21,-1
 0 383 l 1,0,-1
EndSplineSet
Substitution2: "'case' Case-Sensitive Forms lookup 19 subtable" Lslash
EndChar

StartChar: Eng
Encoding: 270 330 268
Width: 740
GlyphClass: 2
Flags: W
LayerCount: 2
Fore
SplineSet
532 33 m 1,0,1
 497 88 497 88 457 150 c 128,-1,2
 417 212 417 212 374 273.5 c 128,-1,3
 331 335 331 335 288.5 392.5 c 128,-1,4
 246 450 246 450 207 496 c 1,5,-1
 207 0 l 1,6,-1
 83 0 l 1,7,-1
 83 693 l 1,8,-1
 185 693 l 1,9,10
 225 651 225 651 271.5 594 c 128,-1,11
 318 537 318 537 364.5 475 c 128,-1,12
 411 413 411 413 454 350 c 128,-1,13
 497 287 497 287 532 233 c 1,14,-1
 532 693 l 1,15,-1
 657 693 l 1,16,-1
 657 8 l 2,17,18
 657 -41 657 -41 648.5 -77.5 c 128,-1,19
 640 -114 640 -114 619.5 -138.5 c 128,-1,20
 599 -163 599 -163 566 -175 c 128,-1,21
 533 -187 533 -187 485 -187 c 0,22,23
 471 -187 471 -187 449.5 -184.5 c 128,-1,24
 428 -182 428 -182 410 -177 c 1,25,-1
 425 -80 l 1,26,27
 436 -84 436 -84 447.5 -85 c 128,-1,28
 459 -86 459 -86 473 -86 c 0,29,30
 507 -86 507 -86 519.5 -63.5 c 128,-1,31
 532 -41 532 -41 532 2 c 2,32,-1
 532 33 l 1,0,1
EndSplineSet
EndChar

StartChar: eng
Encoding: 271 331 269
Width: 585
GlyphClass: 2
Flags: W
LayerCount: 2
Fore
SplineSet
393 275 m 2,0,1
 393 317 393 317 387.5 346.5 c 128,-1,2
 382 376 382 376 369.5 394.5 c 128,-1,3
 357 413 357 413 335.5 421.5 c 128,-1,4
 314 430 314 430 283 430 c 0,5,6
 260 430 260 430 235 427 c 128,-1,7
 210 424 210 424 198 422 c 1,8,-1
 198 0 l 1,9,-1
 77 0 l 1,10,-1
 77 506 l 1,11,12
 112 516 112 516 168 525 c 128,-1,13
 224 534 224 534 292 534 c 0,14,15
 356 534 356 534 399 516.5 c 128,-1,16
 442 499 442 499 467.5 467.5 c 128,-1,17
 493 436 493 436 503.5 391.5 c 128,-1,18
 514 347 514 347 514 294 c 2,19,-1
 514 1 l 2,20,21
 514 -46 514 -46 505.5 -81 c 128,-1,22
 497 -116 497 -116 477.5 -139.5 c 128,-1,23
 458 -163 458 -163 426 -174.5 c 128,-1,24
 394 -186 394 -186 346 -186 c 0,25,26
 332 -186 332 -186 312 -183.5 c 128,-1,27
 292 -181 292 -181 275 -176 c 1,28,-1
 288 -86 l 1,29,30
 298 -89 298 -89 309.5 -90.5 c 128,-1,31
 321 -92 321 -92 332 -92 c 0,32,33
 365 -92 365 -92 379 -71.5 c 128,-1,34
 393 -51 393 -51 393 -10 c 2,35,-1
 393 275 l 2,0,1
EndSplineSet
Substitution2: "'case' Case-Sensitive Forms lookup 19 subtable" Eng
EndChar

StartChar: OE
Encoding: 278 338 276
Width: 994
GlyphClass: 2
Flags: W
LayerCount: 2
Fore
SplineSet
544 0 m 2,0,1
 520 -3 520 -3 491.5 -5 c 128,-1,2
 463 -7 463 -7 440 -7 c 0,3,4
 356 -7 356 -7 285 14.5 c 128,-1,5
 214 36 214 36 163 80 c 128,-1,6
 112 124 112 124 83.5 190.5 c 128,-1,7
 55 257 55 257 55 347 c 256,8,9
 55 437 55 437 83.5 503 c 128,-1,10
 112 569 112 569 163.5 612.5 c 128,-1,11
 215 656 215 656 285.5 677.5 c 128,-1,12
 356 699 356 699 440 699 c 0,13,14
 463 699 463 699 491.5 697.5 c 128,-1,15
 520 696 520 696 544 693 c 2,16,-1
 936 693 l 1,17,-1
 936 587 l 1,18,-1
 633 587 l 1,19,-1
 633 414 l 1,20,-1
 900 414 l 1,21,-1
 900 311 l 1,22,-1
 633 311 l 1,23,-1
 633 106 l 1,24,-1
 960 106 l 1,25,-1
 960 0 l 1,26,-1
 544 0 l 2,0,1
439 101 m 0,27,28
 476 101 476 101 509 104 c 1,29,-1
 509 588 l 1,30,31
 488 590 488 590 472 590.5 c 128,-1,32
 456 591 456 591 439 591 c 0,33,34
 317 591 317 591 251.5 527.5 c 128,-1,35
 186 464 186 464 186 347 c 0,36,37
 186 229 186 229 251.5 165 c 128,-1,38
 317 101 317 101 439 101 c 0,27,28
EndSplineSet
EndChar

StartChar: oe
Encoding: 279 339 277
Width: 943
GlyphClass: 2
Flags: W
LayerCount: 2
Fore
SplineSet
688 -13 m 0,0,1
 616 -13 616 -13 564.5 11.5 c 128,-1,2
 513 36 513 36 481 83 c 1,3,4
 448 35 448 35 401 10.5 c 128,-1,5
 354 -14 354 -14 297 -14 c 0,6,7
 241 -14 241 -14 195.5 6 c 128,-1,8
 150 26 150 26 117 62 c 128,-1,9
 84 98 84 98 66 149 c 128,-1,10
 48 200 48 200 48 262 c 256,11,12
 48 324 48 324 66.5 374.5 c 128,-1,13
 85 425 85 425 118 461 c 128,-1,14
 151 497 151 497 196.5 516.5 c 128,-1,15
 242 536 242 536 297 536 c 0,16,17
 358 536 358 536 405 511 c 128,-1,18
 452 486 452 486 484 438 c 1,19,20
 519 490 519 490 566 513 c 128,-1,21
 613 536 613 536 663 536 c 0,22,23
 772 536 772 536 832 469 c 128,-1,24
 892 402 892 402 892 269 c 0,25,26
 892 257 892 257 891.5 245 c 128,-1,27
 891 233 891 233 890 224 c 1,28,-1
 543 224 l 1,29,30
 548 161 548 161 588 126.5 c 128,-1,31
 628 92 628 92 703 92 c 0,32,33
 748 92 748 92 784.5 100 c 128,-1,34
 821 108 821 108 842 117 c 1,35,-1
 858 18 l 1,36,37
 848 13 848 13 830.5 7.5 c 128,-1,38
 813 2 813 2 790.5 -2.5 c 128,-1,39
 768 -7 768 -7 741.5 -10 c 128,-1,40
 715 -13 715 -13 688 -13 c 0,0,1
771 313 m 1,41,42
 771 338 771 338 764 360.5 c 128,-1,43
 757 383 757 383 743.5 399.5 c 128,-1,44
 730 416 730 416 710.5 425.5 c 128,-1,45
 691 435 691 435 664 435 c 0,46,47
 636 435 636 435 615 424.5 c 128,-1,48
 594 414 594 414 579.5 397 c 128,-1,49
 565 380 565 380 557 358 c 128,-1,50
 549 336 549 336 546 313 c 1,51,-1
 771 313 l 1,41,42
425 262 m 0,52,53
 425 340 425 340 391.5 385.5 c 128,-1,54
 358 431 358 431 298 431 c 256,55,56
 238 431 238 431 204.5 385.5 c 128,-1,57
 171 340 171 340 171 262 c 0,58,59
 171 183 171 183 204.5 137 c 128,-1,60
 238 91 238 91 298 91 c 256,61,62
 358 91 358 91 391.5 137 c 128,-1,63
 425 183 425 183 425 262 c 0,52,53
EndSplineSet
Substitution2: "'case' Case-Sensitive Forms lookup 19 subtable" OE
EndChar

StartChar: Scedilla
Encoding: 290 350 288
Width: 540
GlyphClass: 2
Flags: W
LayerCount: 2
Fore
SplineSet
251 94 m 0,0,1
 319 94 319 94 350 117 c 128,-1,2
 381 140 381 140 381 182 c 0,3,4
 381 207 381 207 370.5 225 c 128,-1,5
 360 243 360 243 340.5 257.5 c 128,-1,6
 321 272 321 272 293 284.5 c 128,-1,7
 265 297 265 297 229 309 c 0,8,9
 193 322 193 322 159.5 337.5 c 128,-1,10
 126 353 126 353 100.5 376 c 128,-1,11
 75 399 75 399 59.5 431 c 128,-1,12
 44 463 44 463 44 508 c 0,13,14
 44 602 44 602 109 655.5 c 128,-1,15
 174 709 174 709 286 709 c 0,16,17
 351 709 351 709 401.5 694.5 c 128,-1,18
 452 680 452 680 481 663 c 1,19,-1
 442 561 l 1,20,21
 408 580 408 580 367.5 590 c 128,-1,22
 327 600 327 600 284 600 c 0,23,24
 233 600 233 600 204.5 579 c 128,-1,25
 176 558 176 558 176 520 c 0,26,27
 176 497 176 497 185.5 480.5 c 128,-1,28
 195 464 195 464 212.5 451 c 128,-1,29
 230 438 230 438 253.5 427 c 128,-1,30
 277 416 277 416 305 406 c 0,31,32
 354 388 354 388 392.5 369.5 c 128,-1,33
 431 351 431 351 457.5 325.5 c 128,-1,34
 484 300 484 300 498 265.5 c 128,-1,35
 512 231 512 231 512 182 c 0,36,37
 512 98 512 98 460 48.5 c 128,-1,38
 408 -1 408 -1 308 -12 c 1,39,40
 304 -20 304 -20 300.5 -26.5 c 128,-1,41
 297 -33 297 -33 295 -39 c 1,42,43
 327 -54 327 -54 339.5 -73 c 128,-1,44
 352 -92 352 -92 352 -120 c 0,45,46
 352 -155 352 -155 322 -180 c 128,-1,47
 292 -205 292 -205 232 -205 c 0,48,49
 184 -205 184 -205 147 -192 c 1,50,-1
 161 -120 l 1,51,52
 171 -123 171 -123 187 -127 c 128,-1,53
 203 -131 203 -131 220 -131 c 256,54,55
 237 -131 237 -131 246.5 -125 c 128,-1,56
 256 -119 256 -119 256 -107 c 0,57,58
 256 -91 256 -91 242 -83.5 c 128,-1,59
 228 -76 228 -76 214 -71 c 2,60,-1
 204 -68 l 1,61,62
 208 -57 208 -57 214 -42.5 c 128,-1,63
 220 -28 220 -28 226 -14 c 1,64,65
 150 -11 150 -11 101.5 6 c 128,-1,66
 53 23 53 23 30 36 c 1,67,-1
 67 139 l 1,68,69
 94 124 94 124 140 109 c 128,-1,70
 186 94 186 94 251 94 c 0,0,1
EndSplineSet
EndChar

StartChar: scedilla
Encoding: 291 351 289
Width: 457
GlyphClass: 2
Flags: W
LayerCount: 2
Fore
SplineSet
251 -39 m 1,0,1
 283 -54 283 -54 295.5 -73 c 128,-1,2
 308 -92 308 -92 308 -120 c 0,3,4
 308 -155 308 -155 278 -180 c 128,-1,5
 248 -205 248 -205 188 -205 c 0,6,7
 140 -205 140 -205 103 -192 c 1,8,-1
 117 -120 l 1,9,10
 127 -123 127 -123 143 -127 c 128,-1,11
 159 -131 159 -131 176 -131 c 256,12,13
 193 -131 193 -131 202.5 -125 c 128,-1,14
 212 -119 212 -119 212 -107 c 0,15,16
 212 -91 212 -91 198 -83.5 c 128,-1,17
 184 -76 184 -76 170 -71 c 2,18,-1
 160 -68 l 1,19,20
 164 -57 164 -57 170 -41.5 c 128,-1,21
 176 -26 176 -26 183 -12 c 1,22,23
 125 -10 125 -10 88.5 0.5 c 128,-1,24
 52 11 52 11 37 17 c 1,25,-1
 58 118 l 1,26,27
 85 107 85 107 122.5 97 c 128,-1,28
 160 87 160 87 208 87 c 256,29,30
 256 87 256 87 278 98.5 c 128,-1,31
 300 110 300 110 300 138 c 0,32,33
 300 164 300 164 276.5 181 c 128,-1,34
 253 198 253 198 199 218 c 0,35,36
 166 230 166 230 138.5 243.5 c 128,-1,37
 111 257 111 257 91 275 c 128,-1,38
 71 293 71 293 59.5 318.5 c 128,-1,39
 48 344 48 344 48 381 c 0,40,41
 48 453 48 453 101 494.5 c 128,-1,42
 154 536 154 536 245 536 c 0,43,44
 291 536 291 536 333 527.5 c 128,-1,45
 375 519 375 519 396 511 c 1,46,-1
 374 413 l 1,47,48
 354 422 354 422 323 429.5 c 128,-1,49
 292 437 292 437 251 437 c 0,50,51
 214 437 214 437 191 424.5 c 128,-1,52
 168 412 168 412 168 386 c 0,53,54
 168 373 168 373 172.5 363 c 128,-1,55
 177 353 177 353 188 344.5 c 128,-1,56
 199 336 199 336 217 327.5 c 128,-1,57
 235 319 235 319 261 310 c 0,58,59
 304 294 304 294 334 278.5 c 128,-1,60
 364 263 364 263 383.5 243.5 c 128,-1,61
 403 224 403 224 412 199 c 128,-1,62
 421 174 421 174 421 139 c 0,63,64
 421 75 421 75 380.5 38 c 128,-1,65
 340 1 340 1 265 -9 c 1,66,67
 256 -25 256 -25 251 -39 c 1,0,1
EndSplineSet
Substitution2: "'case' Case-Sensitive Forms lookup 19 subtable" Scedilla
EndChar

StartChar: uni0162
Encoding: 294 354 292
Width: 579
GlyphClass: 2
Flags: W
LayerCount: 2
Fore
SplineSet
308 -39 m 1,0,1
 340 -54 340 -54 352.5 -73 c 128,-1,2
 365 -92 365 -92 365 -120 c 0,3,4
 365 -155 365 -155 335 -180 c 128,-1,5
 305 -205 305 -205 245 -205 c 0,6,7
 197 -205 197 -205 160 -192 c 1,8,-1
 174 -120 l 1,9,10
 184 -123 184 -123 200 -127 c 128,-1,11
 216 -131 216 -131 233 -131 c 256,12,13
 250 -131 250 -131 259.5 -125 c 128,-1,14
 269 -119 269 -119 269 -107 c 0,15,16
 269 -91 269 -91 255 -83.5 c 128,-1,17
 241 -76 241 -76 227 -71 c 2,18,-1
 217 -68 l 1,19,20
 222 -54 222 -54 230.5 -34.5 c 128,-1,21
 239 -15 239 -15 247 0 c 1,22,-1
 226 0 l 1,23,-1
 226 584 l 1,24,-1
 13 584 l 1,25,-1
 13 693 l 1,26,-1
 566 693 l 1,27,-1
 566 584 l 1,28,-1
 353 584 l 1,29,-1
 353 0 l 1,30,-1
 326 0 l 1,31,32
 321 -10 321 -10 316 -20.5 c 128,-1,33
 311 -31 311 -31 308 -39 c 1,0,1
EndSplineSet
EndChar

StartChar: uni0163
Encoding: 295 355 293
Width: 418
GlyphClass: 2
Flags: W
LayerCount: 2
Fore
SplineSet
284 -39 m 1,0,1
 316 -54 316 -54 328.5 -73 c 128,-1,2
 341 -92 341 -92 341 -120 c 0,3,4
 341 -155 341 -155 311 -180 c 128,-1,5
 281 -205 281 -205 221 -205 c 0,6,7
 173 -205 173 -205 136 -192 c 1,8,-1
 150 -120 l 1,9,10
 160 -123 160 -123 176 -127 c 128,-1,11
 192 -131 192 -131 209 -131 c 256,12,13
 226 -131 226 -131 235.5 -125 c 128,-1,14
 245 -119 245 -119 245 -107 c 0,15,16
 245 -91 245 -91 231 -83.5 c 128,-1,17
 217 -76 217 -76 203 -71 c 2,18,-1
 193 -68 l 1,19,20
 197 -56 197 -56 204 -39.5 c 128,-1,21
 211 -23 211 -23 218 -9 c 1,22,23
 176 -3 176 -3 147.5 14 c 128,-1,24
 119 31 119 31 102 59 c 128,-1,25
 85 87 85 87 78 124.5 c 128,-1,26
 71 162 71 162 71 208 c 2,27,-1
 71 661 l 1,28,-1
 192 681 l 1,29,-1
 192 523 l 1,30,-1
 378 523 l 1,31,-1
 378 422 l 1,32,-1
 192 422 l 1,33,-1
 192 209 l 2,34,35
 192 146 192 146 212 119 c 128,-1,36
 232 92 232 92 280 92 c 0,37,38
 313 92 313 92 338.5 99 c 128,-1,39
 364 106 364 106 379 112 c 1,40,-1
 399 16 l 1,41,42
 382 8 382 8 356.5 0.5 c 128,-1,43
 331 -7 331 -7 297 -10 c 1,44,45
 293 -18 293 -18 289.5 -25.5 c 128,-1,46
 286 -33 286 -33 284 -39 c 1,0,1
EndSplineSet
Substitution2: "'case' Case-Sensitive Forms lookup 19 subtable" uni0162
EndChar

StartChar: Tbar
Encoding: 298 358 296
Width: 579
GlyphClass: 2
Flags: W
LayerCount: 2
Fore
SplineSet
566 693 m 1,0,-1
 566 584 l 1,1,-1
 353 584 l 1,2,-1
 353 385 l 1,3,-1
 488 385 l 1,4,-1
 488 292 l 1,5,-1
 353 292 l 1,6,-1
 353 0 l 1,7,-1
 226 0 l 1,8,-1
 226 292 l 1,9,-1
 91 292 l 1,10,-1
 91 385 l 1,11,-1
 226 385 l 1,12,-1
 226 584 l 1,13,-1
 13 584 l 1,14,-1
 13 693 l 1,15,-1
 566 693 l 1,0,-1
EndSplineSet
EndChar

StartChar: tbar
Encoding: 299 359 297
Width: 418
GlyphClass: 2
Flags: W
LayerCount: 2
Fore
SplineSet
71 661 m 1,0,-1
 192 681 l 1,1,-1
 192 523 l 1,2,-1
 378 523 l 1,3,-1
 378 422 l 1,4,-1
 192 422 l 1,5,-1
 192 313 l 1,6,-1
 378 313 l 1,7,-1
 378 232 l 1,8,-1
 192 232 l 1,9,-1
 192 209 l 2,10,11
 192 146 192 146 212 119 c 128,-1,12
 232 92 232 92 280 92 c 0,13,14
 313 92 313 92 338.5 99 c 128,-1,15
 364 106 364 106 379 112 c 1,16,-1
 399 16 l 1,17,18
 378 7 378 7 344 -2.5 c 128,-1,19
 310 -12 310 -12 264 -12 c 0,20,21
 208 -12 208 -12 170.5 3 c 128,-1,22
 133 18 133 18 111 46.5 c 128,-1,23
 89 75 89 75 80 115.5 c 128,-1,24
 71 156 71 156 71 208 c 2,25,-1
 71 661 l 1,0,-1
EndSplineSet
Substitution2: "'case' Case-Sensitive Forms lookup 19 subtable" Tbar
EndChar

StartChar: Uogonek
Encoding: 310 370 308
Width: 703
GlyphClass: 2
Flags: W
LayerCount: 2
Fore
SplineSet
406 -204 m 0,0,1
 344 -204 344 -204 316 -181.5 c 128,-1,2
 288 -159 288 -159 288 -121 c 0,3,4
 288 -92 288 -92 307 -65 c 128,-1,5
 326 -38 326 -38 347 -15 c 1,6,7
 277 -14 277 -14 226 7 c 128,-1,8
 175 28 175 28 142 64.5 c 128,-1,9
 109 101 109 101 93.5 151 c 128,-1,10
 78 201 78 201 78 260 c 2,11,-1
 78 693 l 1,12,-1
 205 693 l 1,13,-1
 205 272 l 2,14,15
 205 225 205 225 215.5 191.5 c 128,-1,16
 226 158 226 158 245.5 137 c 128,-1,17
 265 116 265 116 291.5 106 c 128,-1,18
 318 96 318 96 351 96 c 256,19,20
 384 96 384 96 411 106 c 128,-1,21
 438 116 438 116 457.5 137 c 128,-1,22
 477 158 477 158 487.5 191.5 c 128,-1,23
 498 225 498 225 498 272 c 2,24,-1
 498 693 l 1,25,-1
 625 693 l 1,26,-1
 625 260 l 2,27,28
 625 179 625 179 596.5 118 c 128,-1,29
 568 57 568 57 505 20 c 0,30,31
 480 4 480 4 462.5 -8.5 c 128,-1,32
 445 -21 445 -21 426 -40 c 0,33,34
 412 -54 412 -54 405 -66 c 128,-1,35
 398 -78 398 -78 398 -91 c 0,36,37
 398 -118 398 -118 433 -118 c 0,38,39
 441 -118 441 -118 453 -116.5 c 128,-1,40
 465 -115 465 -115 479 -110 c 1,41,-1
 488 -191 l 1,42,43
 473 -197 473 -197 450 -200.5 c 128,-1,44
 427 -204 427 -204 406 -204 c 0,0,1
EndSplineSet
EndChar

StartChar: uogonek
Encoding: 311 371 309
Width: 583
GlyphClass: 2
Flags: W
LayerCount: 2
Fore
SplineSet
425 -203 m 0,0,1
 363 -203 363 -203 335 -180 c 128,-1,2
 307 -157 307 -157 307 -119 c 0,3,4
 307 -97 307 -97 318.5 -76.5 c 128,-1,5
 330 -56 330 -56 346 -37 c 0,6,7
 353 -29 353 -29 361 -21.5 c 128,-1,8
 369 -14 369 -14 377 -7 c 1,9,10
 357 -9 357 -9 335.5 -10.5 c 128,-1,11
 314 -12 314 -12 292 -12 c 0,12,13
 229 -12 229 -12 186.5 6 c 128,-1,14
 144 24 144 24 118.5 56 c 128,-1,15
 93 88 93 88 82 132.5 c 128,-1,16
 71 177 71 177 71 230 c 2,17,-1
 71 523 l 1,18,-1
 192 523 l 1,19,-1
 192 249 l 2,20,21
 192 165 192 165 216.5 129 c 128,-1,22
 241 93 241 93 302 93 c 0,23,24
 324 93 324 93 348.5 95 c 128,-1,25
 373 97 373 97 385 100 c 1,26,-1
 385 523 l 1,27,-1
 506 523 l 1,28,-1
 506 15 l 1,29,30
 495 6 495 6 479 -8 c 128,-1,31
 463 -22 463 -22 447 -39 c 0,32,33
 433 -53 433 -53 425 -65 c 128,-1,34
 417 -77 417 -77 417 -89 c 0,35,36
 417 -116 417 -116 452 -116 c 0,37,38
 460 -116 460 -116 472 -115 c 128,-1,39
 484 -114 484 -114 498 -109 c 1,40,-1
 507 -189 l 1,41,42
 492 -196 492 -196 469 -199.5 c 128,-1,43
 446 -203 446 -203 425 -203 c 0,0,1
EndSplineSet
Substitution2: "'case' Case-Sensitive Forms lookup 19 subtable" Uogonek
EndChar

StartChar: longs
Encoding: 323 383 321
Width: 292
GlyphClass: 2
Flags: W
LayerCount: 2
Fore
SplineSet
290 776 m 0,0,1
 332 776 332 776 364 768.5 c 128,-1,2
 396 761 396 761 412 755 c 1,3,-1
 389 655 l 1,4,5
 372 663 372 663 349.5 668 c 128,-1,6
 327 673 327 673 301 673 c 0,7,8
 272 673 272 673 252 664.5 c 128,-1,9
 232 656 232 656 220 641 c 128,-1,10
 208 626 208 626 203 604.5 c 128,-1,11
 198 583 198 583 198 558 c 2,12,-1
 198 0 l 1,13,-1
 77 0 l 1,14,-1
 77 560 l 2,15,16
 77 661 77 661 130 718.5 c 128,-1,17
 183 776 183 776 290 776 c 0,0,1
EndSplineSet
Substitution2: "'case' Case-Sensitive Forms lookup 18 subtable" S
EndChar

StartChar: uni0180
Encoding: 324 384 322
Width: 590
GlyphClass: 2
Flags: W
LayerCount: 2
Fore
SplineSet
192 605 m 1,0,-1
 192 497 l 1,1,2
 213 508 213 508 243.5 517 c 128,-1,3
 274 526 274 526 311 526 c 0,4,5
 366 526 366 526 409.5 506.5 c 128,-1,6
 453 487 453 487 482 451.5 c 128,-1,7
 511 416 511 416 526.5 366.5 c 128,-1,8
 542 317 542 317 542 257 c 0,9,10
 542 195 542 195 523.5 145.5 c 128,-1,11
 505 96 505 96 470.5 60.5 c 128,-1,12
 436 25 436 25 387 6 c 128,-1,13
 338 -13 338 -13 276 -13 c 0,14,15
 216 -13 216 -13 161.5 -4 c 128,-1,16
 107 5 107 5 71 16 c 1,17,-1
 71 605 l 1,18,-1
 3 605 l 1,19,-1
 3 686 l 1,20,-1
 71 686 l 1,21,-1
 71 756 l 1,22,-1
 192 776 l 1,23,-1
 192 686 l 1,24,-1
 352 686 l 1,25,-1
 352 605 l 1,26,-1
 192 605 l 1,0,-1
418 259 m 0,27,28
 418 333 418 333 387.5 377.5 c 128,-1,29
 357 422 357 422 291 422 c 0,30,31
 261 422 261 422 234.5 413 c 128,-1,32
 208 404 208 404 192 393 c 1,33,-1
 192 100 l 1,34,35
 205 97 205 97 225.5 94.5 c 128,-1,36
 246 92 246 92 275 92 c 0,37,38
 342 92 342 92 380 137 c 128,-1,39
 418 182 418 182 418 259 c 0,27,28
EndSplineSet
EndChar

StartChar: uni0181
Encoding: 325 385 323
Width: 774
GlyphClass: 2
Flags: W
LayerCount: 2
Fore
SplineSet
12 532 m 0,0,1
 12 594 12 594 46.5 628 c 128,-1,2
 81 662 81 662 135 678 c 128,-1,3
 189 694 189 694 256 697 c 128,-1,4
 323 700 323 700 389 700 c 0,5,6
 456 700 456 700 512 690.5 c 128,-1,7
 568 681 568 681 608.5 659 c 128,-1,8
 649 637 649 637 671.5 601 c 128,-1,9
 694 565 694 565 694 512 c 0,10,11
 694 463 694 463 670 428 c 128,-1,12
 646 393 646 393 601 373 c 1,13,14
 667 351 667 351 696.5 310 c 128,-1,15
 726 269 726 269 726 206 c 0,16,17
 726 99 726 99 648 45.5 c 128,-1,18
 570 -8 570 -8 409 -8 c 0,19,20
 359 -8 359 -8 305 -4 c 128,-1,21
 251 0 251 0 200 11 c 1,22,-1
 200 587 l 1,23,24
 156 584 156 584 135.5 566 c 128,-1,25
 115 548 115 548 115 519 c 0,26,27
 115 512 115 512 115.5 502 c 128,-1,28
 116 492 116 492 118 481 c 1,29,-1
 21 469 l 1,30,31
 18 479 18 479 15 497 c 128,-1,32
 12 515 12 515 12 532 c 0,0,1
324 313 m 1,33,-1
 324 100 l 1,34,-1
 355 98 l 2,35,36
 366 97 366 97 380.5 97 c 128,-1,37
 395 97 395 97 413 97 c 0,38,39
 452 97 452 97 485.5 102 c 128,-1,40
 519 107 519 107 543.5 119.5 c 128,-1,41
 568 132 568 132 582.5 153 c 128,-1,42
 597 174 597 174 597 207 c 0,43,44
 597 266 597 266 554 289.5 c 128,-1,45
 511 313 511 313 435 313 c 2,46,-1
 324 313 l 1,33,-1
324 410 m 1,47,-1
 411 410 l 2,48,49
 488 410 488 410 528.5 431 c 128,-1,50
 569 452 569 452 569 505 c 0,51,52
 569 530 569 530 557.5 547.5 c 128,-1,53
 546 565 546 565 525.5 576 c 128,-1,54
 505 587 505 587 476.5 592 c 128,-1,55
 448 597 448 597 414 597 c 0,56,57
 385 597 385 597 364.5 596.5 c 128,-1,58
 344 596 344 596 324 595 c 1,59,-1
 324 410 l 1,47,-1
EndSplineSet
EndChar

StartChar: uni0182
Encoding: 326 386 324
Width: 629
GlyphClass: 2
Flags: W
LayerCount: 2
Fore
SplineSet
206 586 m 1,0,-1
 206 440 l 1,1,-1
 274 440 l 2,2,3
 349 440 349 440 408 428 c 128,-1,4
 467 416 467 416 508 389.5 c 128,-1,5
 549 363 549 363 570.5 320.5 c 128,-1,6
 592 278 592 278 592 217 c 0,7,8
 592 104 592 104 510.5 48.5 c 128,-1,9
 429 -7 429 -7 278 -7 c 0,10,11
 236 -7 236 -7 183 -2.5 c 128,-1,12
 130 2 130 2 83 13 c 1,13,-1
 83 693 l 1,14,-1
 527 693 l 1,15,-1
 527 586 l 1,16,-1
 206 586 l 1,0,-1
250 102 m 0,17,18
 261 102 261 102 275 102 c 128,-1,19
 289 102 289 102 306 103 c 0,20,21
 337 104 337 104 365.5 110 c 128,-1,22
 394 116 394 116 415.5 129 c 128,-1,23
 437 142 437 142 449.5 163 c 128,-1,24
 462 184 462 184 462 216 c 0,25,26
 462 252 462 252 449 275 c 128,-1,27
 436 298 436 298 411 311.5 c 128,-1,28
 386 325 386 325 350.5 330.5 c 128,-1,29
 315 336 315 336 270 336 c 2,30,-1
 206 336 l 1,31,-1
 206 104 l 1,32,33
 215 103 215 103 225.5 102.5 c 128,-1,34
 236 102 236 102 250 102 c 0,17,18
EndSplineSet
EndChar

StartChar: uni0183
Encoding: 327 387 325
Width: 596
GlyphClass: 2
Flags: W
LayerCount: 2
Fore
SplineSet
198 497 m 1,0,1
 219 508 219 508 249.5 517 c 128,-1,2
 280 526 280 526 317 526 c 0,3,4
 372 526 372 526 415.5 506.5 c 128,-1,5
 459 487 459 487 488 451.5 c 128,-1,6
 517 416 517 416 532.5 366.5 c 128,-1,7
 548 317 548 317 548 257 c 0,8,9
 548 195 548 195 529.5 145.5 c 128,-1,10
 511 96 511 96 476.5 60.5 c 128,-1,11
 442 25 442 25 393 6 c 128,-1,12
 344 -13 344 -13 282 -13 c 0,13,14
 222 -13 222 -13 167.5 -4 c 128,-1,15
 113 5 113 5 77 16 c 1,16,-1
 77 770 l 1,17,-1
 495 770 l 1,18,-1
 495 669 l 1,19,-1
 198 669 l 1,20,-1
 198 497 l 1,0,1
424 259 m 0,21,22
 424 333 424 333 393.5 377.5 c 128,-1,23
 363 422 363 422 297 422 c 0,24,25
 267 422 267 422 240.5 413 c 128,-1,26
 214 404 214 404 198 393 c 1,27,-1
 198 100 l 1,28,29
 211 97 211 97 231.5 94.5 c 128,-1,30
 252 92 252 92 281 92 c 0,31,32
 348 92 348 92 386 137 c 128,-1,33
 424 182 424 182 424 259 c 0,21,22
EndSplineSet
EndChar

StartChar: uni0184
Encoding: 328 388 326
Width: 604
GlyphClass: 2
Flags: W
LayerCount: 2
Fore
SplineSet
556 261 m 0,0,1
 556 198 556 198 537.5 147.5 c 128,-1,2
 519 97 519 97 484.5 61 c 128,-1,3
 450 25 450 25 401 6 c 128,-1,4
 352 -13 352 -13 290 -13 c 0,5,6
 230 -13 230 -13 175.5 -4 c 128,-1,7
 121 5 121 5 85 16 c 1,8,-1
 85 613 l 1,9,-1
 7 695 l 1,10,11
 51 720 51 720 101 741 c 128,-1,12
 151 762 151 762 206 776 c 1,13,-1
 206 505 l 1,14,15
 227 516 227 516 257.5 525 c 128,-1,16
 288 534 288 534 325 534 c 0,17,18
 380 534 380 534 423.5 514.5 c 128,-1,19
 467 495 467 495 496 459 c 128,-1,20
 525 423 525 423 540.5 372.5 c 128,-1,21
 556 322 556 322 556 261 c 0,0,1
432 263 m 0,22,23
 432 340 432 340 401.5 385 c 128,-1,24
 371 430 371 430 305 430 c 0,25,26
 275 430 275 430 248.5 421 c 128,-1,27
 222 412 222 412 206 401 c 1,28,-1
 206 100 l 1,29,30
 219 97 219 97 239.5 94.5 c 128,-1,31
 260 92 260 92 289 92 c 0,32,33
 356 92 356 92 394 137.5 c 128,-1,34
 432 183 432 183 432 263 c 0,22,23
EndSplineSet
EndChar

StartChar: uni0185
Encoding: 329 389 327
Width: 638
GlyphClass: 2
Flags: W
LayerCount: 2
Fore
SplineSet
218 446 m 1,0,1
 234 448 234 448 249.5 448 c 128,-1,2
 265 448 265 448 280 448 c 0,3,4
 441 448 441 448 522.5 391 c 128,-1,5
 604 334 604 334 604 219 c 0,6,7
 604 106 604 106 523 49.5 c 128,-1,8
 442 -7 442 -7 287 -7 c 0,9,10
 245 -7 245 -7 193.5 -3 c 128,-1,11
 142 1 142 1 95 12 c 1,12,-1
 95 538 l 1,13,-1
 17 620 l 1,14,15
 61 645 61 645 111.5 666 c 128,-1,16
 162 687 162 687 218 701 c 1,17,-1
 218 446 l 1,0,1
474 219 m 0,18,19
 474 255 474 255 459.5 278.5 c 128,-1,20
 445 302 445 302 419 316 c 128,-1,21
 393 330 393 330 357 335.5 c 128,-1,22
 321 341 321 341 278 341 c 0,23,24
 259 341 259 341 245.5 341 c 128,-1,25
 232 341 232 341 218 339 c 1,26,-1
 218 103 l 1,27,28
 227 102 227 102 240.5 101.5 c 128,-1,29
 254 101 254 101 274 101 c 0,30,31
 312 101 312 101 348 105 c 128,-1,32
 384 109 384 109 412 121 c 128,-1,33
 440 133 440 133 457 156.5 c 128,-1,34
 474 180 474 180 474 219 c 0,18,19
EndSplineSet
EndChar

StartChar: uni0186
Encoding: 330 390 328
Width: 632
GlyphClass: 2
Flags: W
LayerCount: 2
Fore
SplineSet
241 709 m 0,0,1
 320 709 320 709 382 684.5 c 128,-1,2
 444 660 444 660 487.5 613.5 c 128,-1,3
 531 567 531 567 554 500 c 128,-1,4
 577 433 577 433 577 347 c 0,5,6
 577 173 577 173 487.5 79 c 128,-1,7
 398 -15 398 -15 237 -15 c 0,8,9
 194 -15 194 -15 158 -9.5 c 128,-1,10
 122 -4 122 -4 95 4 c 128,-1,11
 68 12 68 12 49.5 20 c 128,-1,12
 31 28 31 28 24 33 c 1,13,-1
 58 136 l 1,14,15
 85 122 85 122 128.5 109.5 c 128,-1,16
 172 97 172 97 232 97 c 0,17,18
 330 97 330 97 387.5 160.5 c 128,-1,19
 445 224 445 224 445 346 c 0,20,21
 445 403 445 403 433 449 c 128,-1,22
 421 495 421 495 395 528 c 128,-1,23
 369 561 369 561 327.5 579 c 128,-1,24
 286 597 286 597 228 597 c 0,25,26
 165 597 165 597 125 583.5 c 128,-1,27
 85 570 85 570 61 559 c 1,28,-1
 27 660 l 1,29,30
 39 667 39 667 59.5 676 c 128,-1,31
 80 685 80 685 107.5 692 c 128,-1,32
 135 699 135 699 169 704 c 128,-1,33
 203 709 203 709 241 709 c 0,0,1
EndSplineSet
EndChar

StartChar: uni0187
Encoding: 331 391 329
Width: 684
GlyphClass: 2
Flags: W
LayerCount: 2
Fore
SplineSet
389 -15 m 0,0,1
 311 -15 311 -15 249 9 c 128,-1,2
 187 33 187 33 144 79.5 c 128,-1,3
 101 126 101 126 78 193 c 128,-1,4
 55 260 55 260 55 347 c 256,5,6
 55 434 55 434 81.5 501 c 128,-1,7
 108 568 108 568 154 614.5 c 128,-1,8
 200 661 200 661 262 685 c 128,-1,9
 324 709 324 709 395 709 c 0,10,11
 430 707 430 707 456 703.5 c 128,-1,12
 482 700 482 700 507 692 c 1,13,14
 525 744 525 744 557.5 765 c 128,-1,15
 590 786 590 786 647 786 c 0,16,17
 670 786 670 786 692.5 781 c 128,-1,18
 715 776 715 776 729 769 c 1,19,-1
 703 674 l 1,20,21
 693 678 693 678 680 680.5 c 128,-1,22
 667 683 667 683 656 683 c 0,23,24
 628 683 628 683 610.5 669 c 128,-1,25
 593 655 593 655 583 623 c 2,26,-1
 565 557 l 1,27,28
 540 570 540 570 496.5 583.5 c 128,-1,29
 453 597 453 597 399 597 c 0,30,31
 353 597 353 597 314.5 581.5 c 128,-1,32
 276 566 276 566 247.5 535 c 128,-1,33
 219 504 219 504 203 457 c 128,-1,34
 187 410 187 410 187 348 c 0,35,36
 187 293 187 293 199.5 247 c 128,-1,37
 212 201 212 201 238 167.5 c 128,-1,38
 264 134 264 134 304 115.5 c 128,-1,39
 344 97 344 97 400 97 c 0,40,41
 467 97 467 97 509 110.5 c 128,-1,42
 551 124 551 124 574 136 c 1,43,-1
 608 33 l 1,44,45
 596 25 596 25 575.5 17 c 128,-1,46
 555 9 555 9 527 1.5 c 128,-1,47
 499 -6 499 -6 464 -10.5 c 128,-1,48
 429 -15 429 -15 389 -15 c 0,0,1
EndSplineSet
EndChar

StartChar: uni0188
Encoding: 332 392 330
Width: 519
GlyphClass: 2
Flags: W
LayerCount: 2
Fore
SplineSet
48 261 m 0,0,1
 48 319 48 319 66 369.5 c 128,-1,2
 84 420 84 420 117.5 457 c 128,-1,3
 151 494 151 494 199 515 c 128,-1,4
 247 536 247 536 307 536 c 0,5,6
 321 536 321 536 334.5 535 c 128,-1,7
 348 534 348 534 362 531 c 1,8,9
 381 584 381 584 411.5 604.5 c 128,-1,10
 442 625 442 625 495 625 c 0,11,12
 516 625 516 625 536.5 620.5 c 128,-1,13
 557 616 557 616 569 610 c 1,14,-1
 545 521 l 1,15,16
 524 529 524 529 501 529 c 0,17,18
 481 529 481 529 464.5 519.5 c 128,-1,19
 448 510 448 510 440 486 c 0,20,21
 434 469 434 469 430 450 c 128,-1,22
 426 431 426 431 422 411 c 1,23,24
 405 417 405 417 376.5 424 c 128,-1,25
 348 431 348 431 317 431 c 0,26,27
 246 431 246 431 209 386.5 c 128,-1,28
 172 342 172 342 172 261 c 0,29,30
 172 183 172 183 207 137.5 c 128,-1,31
 242 92 242 92 325 92 c 0,32,33
 356 92 356 92 386 98 c 128,-1,34
 416 104 416 104 438 113 c 1,35,-1
 455 13 l 1,36,37
 435 3 435 3 394.5 -5 c 128,-1,38
 354 -13 354 -13 311 -13 c 0,39,40
 244 -13 244 -13 194.5 7.5 c 128,-1,41
 145 28 145 28 112.5 64.5 c 128,-1,42
 80 101 80 101 64 151.5 c 128,-1,43
 48 202 48 202 48 261 c 0,0,1
EndSplineSet
EndChar

StartChar: uni018A
Encoding: 334 394 332
Width: 843
GlyphClass: 2
Flags: W
LayerCount: 2
Fore
SplineSet
789 347 m 0,0,1
 789 257 789 257 761 190.5 c 128,-1,2
 733 124 733 124 681.5 79.5 c 128,-1,3
 630 35 630 35 557.5 13.5 c 128,-1,4
 485 -8 485 -8 397 -8 c 0,5,6
 355 -8 355 -8 302 -4.5 c 128,-1,7
 249 -1 249 -1 201 10 c 1,8,-1
 201 587 l 1,9,10
 157 584 157 584 136 566 c 128,-1,11
 115 548 115 548 115 519 c 0,12,13
 115 512 115 512 115.5 502 c 128,-1,14
 116 492 116 492 118 481 c 1,15,-1
 21 469 l 1,16,17
 18 479 18 479 15 497 c 128,-1,18
 12 515 12 515 12 532 c 0,19,20
 12 595 12 595 49 629.5 c 128,-1,21
 86 664 86 664 143 679.5 c 128,-1,22
 200 695 200 695 268 697.5 c 128,-1,23
 336 700 336 700 399 700 c 0,24,25
 486 700 486 700 558 679.5 c 128,-1,26
 630 659 630 659 681.5 615.5 c 128,-1,27
 733 572 733 572 761 505.5 c 128,-1,28
 789 439 789 439 789 347 c 0,0,1
327 104 m 1,29,30
 342 102 342 102 359.5 102 c 128,-1,31
 377 102 377 102 405 102 c 0,32,33
 532 102 532 102 594.5 166.5 c 128,-1,34
 657 231 657 231 657 347 c 0,35,36
 657 465 657 465 596 528 c 128,-1,37
 535 591 535 591 407 591 c 0,38,39
 377 591 377 591 356 590.5 c 128,-1,40
 335 590 335 590 327 589 c 1,41,-1
 327 104 l 1,29,30
EndSplineSet
EndChar

StartChar: uni018B
Encoding: 335 395 333
Width: 635
GlyphClass: 2
Flags: W
LayerCount: 2
Fore
SplineSet
108 586 m 1,0,-1
 108 693 l 1,1,-1
 552 693 l 1,2,-1
 552 13 l 1,3,4
 505 2 505 2 452 -2.5 c 128,-1,5
 399 -7 399 -7 357 -7 c 0,6,7
 206 -7 206 -7 124.5 48.5 c 128,-1,8
 43 104 43 104 43 217 c 0,9,10
 43 278 43 278 64.5 320.5 c 128,-1,11
 86 363 86 363 127 389.5 c 128,-1,12
 168 416 168 416 227 428 c 128,-1,13
 286 440 286 440 361 440 c 2,14,-1
 429 440 l 1,15,-1
 429 586 l 1,16,-1
 108 586 l 1,0,-1
385 102 m 0,17,18
 399 102 399 102 409.5 102.5 c 128,-1,19
 420 103 420 103 429 104 c 1,20,-1
 429 336 l 1,21,-1
 365 336 l 2,22,23
 320 336 320 336 284.5 330.5 c 128,-1,24
 249 325 249 325 224 311.5 c 128,-1,25
 199 298 199 298 186 275 c 128,-1,26
 173 252 173 252 173 216 c 0,27,28
 173 184 173 184 185.5 163 c 128,-1,29
 198 142 198 142 219.5 129 c 128,-1,30
 241 116 241 116 269 110 c 128,-1,31
 297 104 297 104 329 103 c 0,32,33
 346 102 346 102 360 102 c 128,-1,34
 374 102 374 102 385 102 c 0,17,18
EndSplineSet
EndChar

StartChar: uni018C
Encoding: 336 396 334
Width: 599
GlyphClass: 2
Flags: W
LayerCount: 2
Fore
SplineSet
398 669 m 1,0,-1
 101 669 l 1,1,-1
 101 770 l 1,2,-1
 519 770 l 1,3,-1
 519 16 l 1,4,5
 483 5 483 5 428.5 -4 c 128,-1,6
 374 -13 374 -13 314 -13 c 0,7,8
 252 -13 252 -13 203 6 c 128,-1,9
 154 25 154 25 119.5 60.5 c 128,-1,10
 85 96 85 96 66.5 145.5 c 128,-1,11
 48 195 48 195 48 257 c 0,12,13
 48 317 48 317 63.5 366.5 c 128,-1,14
 79 416 79 416 108 451.5 c 128,-1,15
 137 487 137 487 180 506.5 c 128,-1,16
 223 526 223 526 279 526 c 0,17,18
 316 526 316 526 346.5 517 c 128,-1,19
 377 508 377 508 398 497 c 1,20,-1
 398 669 l 1,0,-1
172 259 m 0,21,22
 172 182 172 182 210 137 c 128,-1,23
 248 92 248 92 315 92 c 0,24,25
 344 92 344 92 364.5 94.5 c 128,-1,26
 385 97 385 97 398 100 c 1,27,-1
 398 393 l 1,28,29
 382 404 382 404 355.5 413 c 128,-1,30
 329 422 329 422 299 422 c 0,31,32
 233 422 233 422 202.5 377.5 c 128,-1,33
 172 333 172 333 172 259 c 0,21,22
EndSplineSet
EndChar

StartChar: uni018D
Encoding: 337 397 335
Width: 587
GlyphClass: 2
Flags: W
LayerCount: 2
Fore
SplineSet
542 295 m 0,0,1
 542 260 542 260 531 227 c 128,-1,2
 520 194 520 194 499.5 164.5 c 128,-1,3
 479 135 479 135 450.5 110 c 128,-1,4
 422 85 422 85 387 68 c 1,5,6
 403 57 403 57 416.5 45 c 128,-1,7
 430 33 430 33 440 19.5 c 128,-1,8
 450 6 450 6 455.5 -10.5 c 128,-1,9
 461 -27 461 -27 461 -48 c 0,10,11
 461 -117 461 -117 407 -152 c 128,-1,12
 353 -187 353 -187 266 -187 c 0,13,14
 209 -187 209 -187 166.5 -178 c 128,-1,15
 124 -169 124 -169 95 -158 c 1,16,-1
 119 -62 l 1,17,18
 142 -72 142 -72 178.5 -80.5 c 128,-1,19
 215 -89 215 -89 260 -89 c 0,20,21
 293 -89 293 -89 317 -81.5 c 128,-1,22
 341 -74 341 -74 341 -48 c 0,23,24
 341 -28 341 -28 325 -12 c 128,-1,25
 309 4 309 4 286 17 c 128,-1,26
 263 30 263 30 237.5 41 c 128,-1,27
 212 52 212 52 194 63 c 0,28,29
 125 102 125 102 86 156 c 128,-1,30
 47 210 47 210 47 288 c 0,31,32
 47 336 47 336 61.5 381 c 128,-1,33
 76 426 76 426 107 460.5 c 128,-1,34
 138 495 138 495 185 515.5 c 128,-1,35
 232 536 232 536 297 536 c 0,36,37
 356 536 356 536 401.5 517 c 128,-1,38
 447 498 447 498 478.5 465.5 c 128,-1,39
 510 433 510 433 526 389 c 128,-1,40
 542 345 542 345 542 295 c 0,0,1
170 290 m 0,41,42
 170 259 170 259 178.5 235.5 c 128,-1,43
 187 212 187 212 203.5 193 c 128,-1,44
 220 174 220 174 244 158 c 128,-1,45
 268 142 268 142 298 126 c 1,46,47
 327 138 327 138 349.5 156 c 128,-1,48
 372 174 372 174 388 196 c 128,-1,49
 404 218 404 218 412 242.5 c 128,-1,50
 420 267 420 267 420 291 c 0,51,52
 420 355 420 355 387 393.5 c 128,-1,53
 354 432 354 432 297 432 c 0,54,55
 263 432 263 432 239 420.5 c 128,-1,56
 215 409 215 409 199.5 389.5 c 128,-1,57
 184 370 184 370 177 344.5 c 128,-1,58
 170 319 170 319 170 290 c 0,41,42
EndSplineSet
EndChar

StartChar: uni018E
Encoding: 338 398 336
Width: 586
GlyphClass: 2
Flags: W
LayerCount: 2
Fore
SplineSet
34 0 m 1,0,-1
 34 107 l 1,1,-1
 377 107 l 1,2,-1
 377 310 l 1,3,-1
 93 310 l 1,4,-1
 93 415 l 1,5,-1
 377 415 l 1,6,-1
 377 586 l 1,7,-1
 58 586 l 1,8,-1
 58 693 l 1,9,-1
 503 693 l 1,10,-1
 503 0 l 1,11,-1
 34 0 l 1,0,-1
EndSplineSet
EndChar

StartChar: uni018F
Encoding: 339 399 337
Width: 718
GlyphClass: 2
Flags: W
LayerCount: 2
Fore
SplineSet
531 383 m 1,0,1
 521 496 521 496 467 547.5 c 128,-1,2
 413 599 413 599 304 599 c 0,3,4
 273 599 273 599 246.5 594 c 128,-1,5
 220 589 220 589 198 582.5 c 128,-1,6
 176 576 176 576 159 568.5 c 128,-1,7
 142 561 142 561 130 556 c 1,8,-1
 98 657 l 1,9,10
 107 663 107 663 127 672 c 128,-1,11
 147 681 147 681 175.5 689 c 128,-1,12
 204 697 204 697 239 703 c 128,-1,13
 274 709 274 709 314 709 c 0,14,15
 405 709 405 709 471 681.5 c 128,-1,16
 537 654 537 654 579.5 606 c 128,-1,17
 622 558 622 558 642.5 492 c 128,-1,18
 663 426 663 426 663 350 c 0,19,20
 663 258 663 258 639 190 c 128,-1,21
 615 122 615 122 572.5 76 c 128,-1,22
 530 30 530 30 471.5 7.5 c 128,-1,23
 413 -15 413 -15 345 -15 c 0,24,25
 278 -15 278 -15 224 7 c 128,-1,26
 170 29 170 29 132 72.5 c 128,-1,27
 94 116 94 116 73.5 181 c 128,-1,28
 53 246 53 246 53 332 c 0,29,30
 53 342 53 342 54.5 358 c 128,-1,31
 56 374 56 374 58 383 c 1,32,-1
 531 383 l 1,0,1
185 279 m 1,33,34
 188 194 188 194 229.5 143.5 c 128,-1,35
 271 93 271 93 347 93 c 0,36,37
 392 93 392 93 424 109 c 128,-1,38
 456 125 456 125 478 151 c 128,-1,39
 500 177 500 177 511.5 210.5 c 128,-1,40
 523 244 523 244 527 279 c 1,41,-1
 185 279 l 1,33,34
EndSplineSet
EndChar

StartChar: uni0190
Encoding: 340 400 338
Width: 589
GlyphClass: 2
Flags: W
LayerCount: 2
Fore
SplineSet
368 310 m 2,0,1
 328 310 328 310 293 305.5 c 128,-1,2
 258 301 258 301 232.5 289 c 128,-1,3
 207 277 207 277 192.5 255 c 128,-1,4
 178 233 178 233 178 199 c 0,5,6
 178 141 178 141 222 117.5 c 128,-1,7
 266 94 266 94 342 94 c 0,8,9
 371 94 371 94 398.5 99 c 128,-1,10
 426 104 426 104 450 111 c 128,-1,11
 474 118 474 118 493.5 125.5 c 128,-1,12
 513 133 513 133 525 139 c 1,13,-1
 563 38 l 1,14,15
 547 30 547 30 523 20.5 c 128,-1,16
 499 11 499 11 470 3 c 128,-1,17
 441 -5 441 -5 407 -10 c 128,-1,18
 373 -15 373 -15 336 -15 c 0,19,20
 269 -15 269 -15 215.5 -3 c 128,-1,21
 162 9 162 9 124.5 34.5 c 128,-1,22
 87 60 87 60 67 99.5 c 128,-1,23
 47 139 47 139 47 195 c 0,24,25
 47 231 47 231 57.5 259.5 c 128,-1,26
 68 288 68 288 86 310 c 128,-1,27
 104 332 104 332 128 347 c 128,-1,28
 152 362 152 362 179 372 c 1,29,30
 128 394 128 394 102.5 433.5 c 128,-1,31
 77 473 77 473 77 517 c 0,32,33
 77 565 77 565 96 601 c 128,-1,34
 115 637 115 637 148.5 661 c 128,-1,35
 182 685 182 685 228 696.5 c 128,-1,36
 274 708 274 708 328 708 c 0,37,38
 395 708 395 708 450.5 693.5 c 128,-1,39
 506 679 506 679 538 659 c 1,40,-1
 498 558 l 1,41,42
 469 575 469 575 426.5 587.5 c 128,-1,43
 384 600 384 600 329 600 c 0,44,45
 273 600 273 600 240 577 c 128,-1,46
 207 554 207 554 207 515 c 0,47,48
 207 482 207 482 223.5 462 c 128,-1,49
 240 442 240 442 267 431.5 c 128,-1,50
 294 421 294 421 327.5 417.5 c 128,-1,51
 361 414 361 414 394 414 c 2,52,-1
 446 414 l 1,53,-1
 446 310 l 1,54,-1
 368 310 l 2,0,1
EndSplineSet
EndChar

StartChar: uni0191
Encoding: 341 401 339
Width: 565
GlyphClass: 2
Flags: W
LayerCount: 2
Fore
SplineSet
220 8 m 2,0,1
 220 -41 220 -41 211 -77.5 c 128,-1,2
 202 -114 202 -114 182 -138.5 c 128,-1,3
 162 -163 162 -163 128.5 -175 c 128,-1,4
 95 -187 95 -187 47 -187 c 0,5,6
 33 -187 33 -187 11.5 -184.5 c 128,-1,7
 -10 -182 -10 -182 -27 -177 c 1,8,-1
 -13 -80 l 1,9,10
 -1 -84 -1 -84 10 -85 c 128,-1,11
 21 -86 21 -86 35 -86 c 0,12,13
 69 -86 69 -86 81.5 -63.5 c 128,-1,14
 94 -41 94 -41 94 2 c 2,15,-1
 94 693 l 1,16,-1
 535 693 l 1,17,-1
 535 587 l 1,18,-1
 220 587 l 1,19,-1
 220 408 l 1,20,-1
 500 408 l 1,21,-1
 500 303 l 1,22,-1
 220 303 l 1,23,-1
 220 8 l 2,0,1
EndSplineSet
EndChar

StartChar: florin
Encoding: 342 402 340
Width: 400
GlyphClass: 2
Flags: W
LayerCount: 2
Fore
SplineSet
77 560 m 2,0,1
 77 661 77 661 130 718.5 c 128,-1,2
 183 776 183 776 290 776 c 0,3,4
 332 776 332 776 364 768.5 c 128,-1,5
 396 761 396 761 412 755 c 1,6,-1
 389 655 l 1,7,8
 372 663 372 663 349.5 668 c 128,-1,9
 327 673 327 673 301 673 c 0,10,11
 272 673 272 673 252 664.5 c 128,-1,12
 232 656 232 656 220 641 c 128,-1,13
 208 626 208 626 203 604.5 c 128,-1,14
 198 583 198 583 198 558 c 2,15,-1
 198 523 l 1,16,-1
 388 523 l 1,17,-1
 388 422 l 1,18,-1
 198 422 l 1,19,-1
 198 14 l 2,20,21
 198 -88 198 -88 149.5 -137 c 128,-1,22
 101 -186 101 -186 10 -186 c 0,23,24
 -3 -186 -3 -186 -26.5 -183.5 c 128,-1,25
 -50 -181 -50 -181 -68 -174 c 1,26,-1
 -52 -75 l 1,27,28
 -30 -82 -30 -82 1 -82 c 0,29,30
 43 -82 43 -82 60 -57.5 c 128,-1,31
 77 -33 77 -33 77 16 c 2,32,-1
 77 560 l 2,0,1
EndSplineSet
EndChar

StartChar: uni0193
Encoding: 343 403 341
Width: 689
GlyphClass: 2
Flags: W
LayerCount: 2
Fore
SplineSet
407 598 m 0,0,1
 300 598 300 598 243.5 531.5 c 128,-1,2
 187 465 187 465 187 347 c 0,3,4
 187 291 187 291 200.5 244.5 c 128,-1,5
 214 198 214 198 240.5 165 c 128,-1,6
 267 132 267 132 306.5 113.5 c 128,-1,7
 346 95 346 95 399 95 c 0,8,9
 432 95 432 95 456 97.5 c 128,-1,10
 480 100 480 100 494 104 c 1,11,-1
 494 353 l 1,12,-1
 620 353 l 1,13,-1
 620 20 l 1,14,15
 594 10 594 10 532 -2 c 128,-1,16
 470 -14 470 -14 389 -14 c 0,17,18
 314 -14 314 -14 252 10 c 128,-1,19
 190 34 190 34 146.5 80 c 128,-1,20
 103 126 103 126 79 193 c 128,-1,21
 55 260 55 260 55 347 c 256,22,23
 55 434 55 434 81.5 501 c 128,-1,24
 108 568 108 568 154 614.5 c 128,-1,25
 200 661 200 661 262 685 c 128,-1,26
 324 709 324 709 394 709 c 0,27,28
 432 709 432 709 463 705 c 128,-1,29
 494 701 494 701 519 694 c 1,30,31
 537 745 537 745 569.5 765.5 c 128,-1,32
 602 786 602 786 658 786 c 0,33,34
 681 786 681 786 703.5 781 c 128,-1,35
 726 776 726 776 740 769 c 1,36,-1
 714 674 l 1,37,38
 704 678 704 678 691 680.5 c 128,-1,39
 678 683 678 683 667 683 c 0,40,41
 647 683 647 683 633 676 c 128,-1,42
 619 669 619 669 608.5 654 c 128,-1,43
 598 639 598 639 590 614.5 c 128,-1,44
 582 590 582 590 575 555 c 1,45,46
 545 573 545 573 500.5 585.5 c 128,-1,47
 456 598 456 598 407 598 c 0,0,1
EndSplineSet
EndChar

StartChar: uni0194
Encoding: 344 404 342
Width: 677
GlyphClass: 2
Flags: W
LayerCount: 2
Fore
SplineSet
339 -86 m 0,0,1
 363 -86 363 -86 376 -70.5 c 128,-1,2
 389 -55 389 -55 389 -33 c 0,3,4
 389 -2 389 -2 372.5 29 c 128,-1,5
 356 60 356 60 339 86 c 1,6,7
 322 60 322 60 305 29 c 128,-1,8
 288 -2 288 -2 288 -33 c 0,9,10
 288 -55 288 -55 301 -70.5 c 128,-1,11
 314 -86 314 -86 339 -86 c 0,0,1
269 165 m 1,12,13
 200 286 200 286 136.5 417 c 128,-1,14
 73 548 73 548 5 693 c 1,15,-1
 140 693 l 1,16,17
 189 584 189 584 236.5 482 c 128,-1,18
 284 380 284 380 340 271 c 1,19,20
 396 380 396 380 443 481.5 c 128,-1,21
 490 583 490 583 539 693 c 1,22,-1
 672 693 l 1,23,24
 638 619 638 619 606 550.5 c 128,-1,25
 574 482 574 482 541.5 417 c 128,-1,26
 509 352 509 352 476.5 290 c 128,-1,27
 444 228 444 228 409 167 c 1,28,-1
 428 137 l 2,29,30
 465 78 465 78 481.5 37 c 128,-1,31
 498 -4 498 -4 498 -42 c 0,32,33
 498 -70 498 -70 488.5 -95.5 c 128,-1,34
 479 -121 479 -121 459 -141 c 128,-1,35
 439 -161 439 -161 409 -173 c 128,-1,36
 379 -185 379 -185 339 -185 c 0,37,38
 298 -185 298 -185 268 -173 c 128,-1,39
 238 -161 238 -161 218 -141 c 128,-1,40
 198 -121 198 -121 188.5 -95.5 c 128,-1,41
 179 -70 179 -70 179 -42 c 0,42,43
 179 -4 179 -4 196 37 c 128,-1,44
 213 78 213 78 251 137 c 2,45,-1
 269 165 l 1,12,13
EndSplineSet
EndChar

StartChar: uni0195
Encoding: 345 405 343
Width: 889
GlyphClass: 2
Flags: W
LayerCount: 2
Fore
SplineSet
601 -13 m 256,0,1
 540 -13 540 -13 498.5 4 c 128,-1,2
 457 21 457 21 431.5 52 c 128,-1,3
 406 83 406 83 394.5 127 c 128,-1,4
 383 171 383 171 383 224 c 2,5,-1
 383 275 l 2,6,7
 383 317 383 317 379 346.5 c 128,-1,8
 375 376 375 376 363.5 394.5 c 128,-1,9
 352 413 352 413 332.5 421.5 c 128,-1,10
 313 430 313 430 282 430 c 0,11,12
 257 430 257 430 233.5 425.5 c 128,-1,13
 210 421 210 421 198 416 c 1,14,-1
 198 0 l 1,15,-1
 77 0 l 1,16,-1
 77 756 l 1,17,-1
 198 776 l 1,18,-1
 198 517 l 1,19,20
 218 524 218 524 243 529 c 128,-1,21
 268 534 268 534 294 534 c 0,22,23
 358 534 358 534 398.5 516.5 c 128,-1,24
 439 499 439 499 462.5 467.5 c 128,-1,25
 486 436 486 436 495 391.5 c 128,-1,26
 504 347 504 347 504 294 c 2,27,-1
 504 239 l 2,28,29
 504 160 504 160 525.5 126.5 c 128,-1,30
 547 93 547 93 601 93 c 0,31,32
 654 93 654 93 675.5 126.5 c 128,-1,33
 697 160 697 160 697 239 c 2,34,-1
 697 523 l 1,35,-1
 818 523 l 1,36,-1
 818 224 l 2,37,38
 818 171 818 171 807 127 c 128,-1,39
 796 83 796 83 770.5 52 c 128,-1,40
 745 21 745 21 703.5 4 c 128,-1,41
 662 -13 662 -13 601 -13 c 256,0,1
EndSplineSet
EndChar

StartChar: uni0196
Encoding: 346 406 344
Width: 396
GlyphClass: 2
Flags: W
LayerCount: 2
Fore
SplineSet
83 693 m 1,0,-1
 209 693 l 1,1,-1
 209 199 l 2,2,3
 209 144 209 144 228 117.5 c 128,-1,4
 247 91 247 91 297 91 c 0,5,6
 320 91 320 91 338.5 95 c 128,-1,7
 357 99 357 99 371 103 c 1,8,-1
 391 5 l 1,9,10
 374 -3 374 -3 345.5 -9 c 128,-1,11
 317 -15 317 -15 279 -15 c 0,12,13
 223 -15 223 -15 185 -1.5 c 128,-1,14
 147 12 147 12 124.5 39 c 128,-1,15
 102 66 102 66 92.5 106 c 128,-1,16
 83 146 83 146 83 199 c 2,17,-1
 83 693 l 1,0,-1
EndSplineSet
EndChar

StartChar: uni0197
Encoding: 347 407 345
Width: 349
GlyphClass: 2
Flags: W
LayerCount: 2
Fore
SplineSet
11 406 m 1,0,-1
 111 406 l 1,1,-1
 111 693 l 1,2,-1
 238 693 l 1,3,-1
 238 406 l 1,4,-1
 338 406 l 1,5,-1
 338 314 l 1,6,-1
 238 314 l 1,7,-1
 238 0 l 1,8,-1
 111 0 l 1,9,-1
 111 314 l 1,10,-1
 11 314 l 1,11,-1
 11 406 l 1,0,-1
EndSplineSet
EndChar

StartChar: uni0198
Encoding: 348 408 346
Width: 680
GlyphClass: 2
Flags: W
LayerCount: 2
Fore
SplineSet
502 0 m 1,0,1
 476 40 476 40 442 84 c 128,-1,2
 408 128 408 128 369 169 c 128,-1,3
 330 210 330 210 289 247 c 128,-1,4
 248 284 248 284 209 311 c 1,5,-1
 209 0 l 1,6,-1
 83 0 l 1,7,-1
 83 693 l 1,8,-1
 209 693 l 1,9,-1
 209 407 l 1,10,11
 246 452 246 452 292 508 c 128,-1,12
 338 564 338 564 384 613 c 0,13,14
 400 631 400 631 416 648 c 128,-1,15
 432 665 432 665 450.5 678 c 128,-1,16
 469 691 469 691 491.5 699 c 128,-1,17
 514 707 514 707 544 707 c 0,18,19
 584 707 584 707 613 693.5 c 128,-1,20
 642 680 642 680 666 656 c 1,21,-1
 611 569 l 1,22,23
 581 597 581 597 549 597 c 0,24,25
 528 597 528 597 512.5 585.5 c 128,-1,26
 497 574 497 574 479 555 c 0,27,28
 431 504 431 504 394 460.5 c 128,-1,29
 357 417 357 417 322 374 c 1,30,31
 364 341 364 341 409.5 298 c 128,-1,32
 455 255 455 255 498.5 206 c 128,-1,33
 542 157 542 157 581.5 104.5 c 128,-1,34
 621 52 621 52 652 0 c 1,35,-1
 502 0 l 1,0,1
EndSplineSet
EndChar

StartChar: uni0199
Encoding: 349 409 347
Width: 551
GlyphClass: 2
Flags: W
LayerCount: 2
Fore
SplineSet
198 319 m 1,0,1
 221 343 221 343 247 370.5 c 128,-1,2
 273 398 273 398 298 425.5 c 128,-1,3
 323 453 323 453 345.5 478.5 c 128,-1,4
 368 504 368 504 384 523 c 1,5,-1
 527 523 l 1,6,7
 477 467 477 467 421.5 407 c 128,-1,8
 366 347 366 347 310 290 c 1,9,10
 340 265 340 265 373 229.5 c 128,-1,11
 406 194 406 194 437 154 c 128,-1,12
 468 114 468 114 495 74 c 128,-1,13
 522 34 522 34 540 0 c 1,14,-1
 400 0 l 1,15,16
 382 31 382 31 358.5 65 c 128,-1,17
 335 99 335 99 308 131 c 128,-1,18
 281 163 281 163 253 191.5 c 128,-1,19
 225 220 225 220 198 240 c 1,20,-1
 198 0 l 1,21,-1
 77 0 l 1,22,-1
 77 588 l 2,23,24
 77 635 77 635 85 670 c 128,-1,25
 93 705 93 705 112.5 728.5 c 128,-1,26
 132 752 132 752 164.5 764 c 128,-1,27
 197 776 197 776 245 776 c 0,28,29
 259 776 259 776 279 773.5 c 128,-1,30
 299 771 299 771 316 766 c 1,31,-1
 302 676 l 1,32,33
 296 678 296 678 283 680 c 128,-1,34
 270 682 270 682 258 682 c 0,35,36
 224 682 224 682 211 663 c 128,-1,37
 198 644 198 644 198 599 c 2,38,-1
 198 319 l 1,0,1
EndSplineSet
EndChar

StartChar: uni019A
Encoding: 350 410 348
Width: 309
GlyphClass: 2
Flags: W
LayerCount: 2
Fore
SplineSet
11 442 m 1,0,-1
 90 442 l 1,1,-1
 90 756 l 1,2,-1
 211 776 l 1,3,-1
 211 442 l 1,4,-1
 302 442 l 1,5,-1
 302 360 l 1,6,-1
 211 360 l 1,7,-1
 211 177 l 2,8,9
 211 155 211 155 214.5 140 c 128,-1,10
 218 125 218 125 227 114.5 c 128,-1,11
 236 104 236 104 251.5 98.5 c 128,-1,12
 267 93 267 93 291 90 c 1,13,-1
 274 -10 l 1,14,15
 220 -9 220 -9 184.5 2 c 128,-1,16
 149 13 149 13 128 33.5 c 128,-1,17
 107 54 107 54 98.5 84.5 c 128,-1,18
 90 115 90 115 90 154 c 2,19,-1
 90 360 l 1,20,-1
 11 360 l 1,21,-1
 11 442 l 1,0,-1
EndSplineSet
EndChar

StartChar: uni019B
Encoding: 351 411 349
Width: 533
GlyphClass: 2
Flags: W
LayerCount: 2
Fore
SplineSet
428 643 m 1,0,-1
 312 602 l 1,1,2
 345 524 345 524 375.5 442 c 128,-1,3
 406 360 406 360 432.5 280.5 c 128,-1,4
 459 201 459 201 481 129 c 128,-1,5
 503 57 503 57 518 0 c 1,6,-1
 390 0 l 1,7,8
 378 43 378 43 364.5 92.5 c 128,-1,9
 351 142 351 142 336 193.5 c 128,-1,10
 321 245 321 245 305 296 c 128,-1,11
 289 347 289 347 273 392 c 1,12,13
 253 347 253 347 233.5 295.5 c 128,-1,14
 214 244 214 244 196 192 c 128,-1,15
 178 140 178 140 162.5 90.5 c 128,-1,16
 147 41 147 41 137 0 c 1,17,-1
 13 0 l 1,18,19
 31 67 31 67 55.5 136 c 128,-1,20
 80 205 80 205 107 272 c 128,-1,21
 134 339 134 339 163 402 c 128,-1,22
 192 465 192 465 220 521 c 1,23,-1
 202 563 l 1,24,-1
 92 525 l 1,25,-1
 65 598 l 1,26,-1
 167 633 l 1,27,28
 153 656 153 656 135.5 666.5 c 128,-1,29
 118 677 118 677 92 677 c 0,30,31
 78 677 78 677 66 675 c 128,-1,32
 54 673 54 673 44 670 c 1,33,-1
 26 763 l 1,34,35
 38 768 38 768 60 772 c 128,-1,36
 82 776 82 776 112 776 c 0,37,38
 172 776 172 776 210.5 750 c 128,-1,39
 249 724 249 724 278 672 c 1,40,-1
 401 716 l 1,41,-1
 428 643 l 1,0,-1
EndSplineSet
EndChar

StartChar: uni019C
Encoding: 352 412 350
Width: 983
GlyphClass: 2
Flags: W
LayerCount: 2
Fore
SplineSet
661 -15 m 0,0,1
 611 -15 611 -15 571.5 -2.5 c 128,-1,2
 532 10 532 10 501 39 c 1,3,4
 489 31 489 31 470.5 22 c 128,-1,5
 452 13 452 13 428.5 4.5 c 128,-1,6
 405 -4 405 -4 377 -9.5 c 128,-1,7
 349 -15 349 -15 317 -15 c 0,8,9
 244 -15 244 -15 198.5 6 c 128,-1,10
 153 27 153 27 127.5 64.5 c 128,-1,11
 102 102 102 102 92.5 153 c 128,-1,12
 83 204 83 204 83 265 c 2,13,-1
 83 693 l 1,14,-1
 209 693 l 1,15,-1
 209 289 l 2,16,17
 209 238 209 238 214 201.5 c 128,-1,18
 219 165 219 165 232.5 141 c 128,-1,19
 246 117 246 117 269 106 c 128,-1,20
 292 95 292 95 328 95 c 0,21,22
 365 95 365 95 396 106 c 128,-1,23
 427 117 427 117 444 128 c 1,24,25
 436 158 436 158 432 193.5 c 128,-1,26
 428 229 428 229 428 265 c 2,27,-1
 428 693 l 1,28,-1
 555 693 l 1,29,-1
 555 289 l 2,30,31
 555 238 555 238 560 201.5 c 128,-1,32
 565 165 565 165 578 141 c 128,-1,33
 591 117 591 117 614 106 c 128,-1,34
 637 95 637 95 672 95 c 0,35,36
 698 95 698 95 728 97.5 c 128,-1,37
 758 100 758 100 774 103 c 1,38,-1
 774 693 l 1,39,-1
 900 693 l 1,40,-1
 900 15 l 1,41,42
 858 4 858 4 794 -5.5 c 128,-1,43
 730 -15 730 -15 661 -15 c 0,0,1
EndSplineSet
EndChar

StartChar: uni019D
Encoding: 353 413 351
Width: 740
GlyphClass: 2
Flags: W
LayerCount: 2
Fore
SplineSet
550 0 m 1,0,1
 516 57 516 57 474 122.5 c 128,-1,2
 432 188 432 188 387 254.5 c 128,-1,3
 342 321 342 321 295.5 383.5 c 128,-1,4
 249 446 249 446 207 496 c 1,5,-1
 207 0 l 2,6,7
 207 -44 207 -44 198.5 -78.5 c 128,-1,8
 190 -113 190 -113 170.5 -137 c 128,-1,9
 151 -161 151 -161 118 -174 c 128,-1,10
 85 -187 85 -187 36 -187 c 0,11,12
 22 -187 22 -187 0.5 -184.5 c 128,-1,13
 -21 -182 -21 -182 -38 -177 c 1,14,-1
 -24 -80 l 1,15,16
 -3 -86 -3 -86 24 -86 c 0,17,18
 58 -86 58 -86 70.5 -63.5 c 128,-1,19
 83 -41 83 -41 83 2 c 2,20,-1
 83 693 l 1,21,-1
 186 693 l 1,22,23
 226 651 226 651 272 593.5 c 128,-1,24
 318 536 318 536 364.5 474 c 128,-1,25
 411 412 411 412 454.5 349.5 c 128,-1,26
 498 287 498 287 532 233 c 1,27,-1
 532 693 l 1,28,-1
 657 693 l 1,29,-1
 657 0 l 1,30,-1
 550 0 l 1,0,1
EndSplineSet
EndChar

StartChar: uni019E
Encoding: 354 414 352
Width: 585
GlyphClass: 2
Flags: W
LayerCount: 2
Fore
SplineSet
77 506 m 1,0,1
 112 516 112 516 168 525 c 128,-1,2
 224 534 224 534 292 534 c 0,3,4
 356 534 356 534 399 516.5 c 128,-1,5
 442 499 442 499 467.5 467.5 c 128,-1,6
 493 436 493 436 503.5 391.5 c 128,-1,7
 514 347 514 347 514 294 c 2,8,-1
 514 -185 l 1,9,-1
 393 -185 l 1,10,-1
 393 275 l 2,11,12
 393 317 393 317 387.5 346.5 c 128,-1,13
 382 376 382 376 369.5 394.5 c 128,-1,14
 357 413 357 413 335.5 421.5 c 128,-1,15
 314 430 314 430 283 430 c 0,16,17
 260 430 260 430 235 427 c 128,-1,18
 210 424 210 424 198 422 c 1,19,-1
 198 0 l 1,20,-1
 77 0 l 1,21,-1
 77 506 l 1,0,1
EndSplineSet
EndChar

StartChar: uni019F
Encoding: 355 415 353
Width: 782
GlyphClass: 2
Flags: W
LayerCount: 2
Fore
SplineSet
727 347 m 256,0,1
 727 258 727 258 700.5 190 c 128,-1,2
 674 122 674 122 628.5 76.5 c 128,-1,3
 583 31 583 31 522 8 c 128,-1,4
 461 -15 461 -15 392 -15 c 256,5,6
 323 -15 323 -15 261.5 8 c 128,-1,7
 200 31 200 31 154.5 76.5 c 128,-1,8
 109 122 109 122 82 190 c 128,-1,9
 55 258 55 258 55 347 c 256,10,11
 55 436 55 436 82 503.5 c 128,-1,12
 109 571 109 571 155.5 617 c 128,-1,13
 202 663 202 663 263 686 c 128,-1,14
 324 709 324 709 392 709 c 256,15,16
 460 709 460 709 521 686 c 128,-1,17
 582 663 582 663 627.5 617 c 128,-1,18
 673 571 673 571 700 503.5 c 128,-1,19
 727 436 727 436 727 347 c 256,0,1
391 96 m 0,20,21
 476 96 476 96 528.5 151.5 c 128,-1,22
 581 207 581 207 592 303 c 1,23,-1
 188 303 l 1,24,25
 199 207 199 207 251.5 151.5 c 128,-1,26
 304 96 304 96 391 96 c 0,20,21
391 598 m 256,27,28
 306 598 306 598 253 543 c 128,-1,29
 200 488 200 488 189 395 c 1,30,-1
 592 395 l 1,31,32
 581 489 581 489 528.5 543.5 c 128,-1,33
 476 598 476 598 391 598 c 256,27,28
EndSplineSet
EndChar

StartChar: Ohorn
Encoding: 356 416 354
Width: 781
GlyphClass: 2
Flags: W
LayerCount: 2
Fore
SplineSet
727 347 m 0,0,1
 727 258 727 258 700.5 190 c 128,-1,2
 674 122 674 122 628.5 76.5 c 128,-1,3
 583 31 583 31 522 8 c 128,-1,4
 461 -15 461 -15 392 -15 c 256,5,6
 323 -15 323 -15 261.5 8 c 128,-1,7
 200 31 200 31 154.5 76.5 c 128,-1,8
 109 122 109 122 82 190 c 128,-1,9
 55 258 55 258 55 347 c 256,10,11
 55 436 55 436 82 503.5 c 128,-1,12
 109 571 109 571 155.5 617 c 128,-1,13
 202 663 202 663 263 686 c 128,-1,14
 324 709 324 709 392 709 c 0,15,16
 445 709 445 709 493 695 c 128,-1,17
 541 681 541 681 583 653 c 1,18,19
 600 679 600 679 605 703 c 128,-1,20
 610 727 610 727 610 757 c 0,21,22
 610 768 610 768 609.5 779.5 c 128,-1,23
 609 791 609 791 608 801 c 1,24,-1
 724 801 l 1,25,26
 727 775 727 775 727 756 c 0,27,28
 727 659 727 659 653 588 c 1,29,30
 688 543 688 543 707.5 483 c 128,-1,31
 727 423 727 423 727 347 c 0,0,1
186 347 m 256,32,33
 186 290 186 290 200 243.5 c 128,-1,34
 214 197 214 197 240.5 164.5 c 128,-1,35
 267 132 267 132 305 114 c 128,-1,36
 343 96 343 96 391 96 c 0,37,38
 438 96 438 96 476 114 c 128,-1,39
 514 132 514 132 540.5 164.5 c 128,-1,40
 567 197 567 197 581 243.5 c 128,-1,41
 595 290 595 290 595 347 c 256,42,43
 595 404 595 404 581 450.5 c 128,-1,44
 567 497 567 497 540.5 529.5 c 128,-1,45
 514 562 514 562 476 580 c 128,-1,46
 438 598 438 598 391 598 c 0,47,48
 343 598 343 598 305 580 c 128,-1,49
 267 562 267 562 240.5 529 c 128,-1,50
 214 496 214 496 200 450 c 128,-1,51
 186 404 186 404 186 347 c 256,32,33
EndSplineSet
EndChar

StartChar: ohorn
Encoding: 357 417 355
Width: 597
GlyphClass: 2
Flags: W
LayerCount: 2
Fore
SplineSet
550 262 m 0,0,1
 550 200 550 200 532 149 c 128,-1,2
 514 98 514 98 481 62 c 128,-1,3
 448 26 448 26 401.5 6 c 128,-1,4
 355 -14 355 -14 299 -14 c 256,5,6
 243 -14 243 -14 197 6 c 128,-1,7
 151 26 151 26 118 62 c 128,-1,8
 85 98 85 98 66.5 149 c 128,-1,9
 48 200 48 200 48 262 c 256,10,11
 48 324 48 324 66.5 374.5 c 128,-1,12
 85 425 85 425 118.5 461 c 128,-1,13
 152 497 152 497 198 516.5 c 128,-1,14
 244 536 244 536 299 536 c 0,15,16
 344 536 344 536 382.5 523 c 128,-1,17
 421 510 421 510 452 486 c 1,18,19
 482 528 482 528 482 593 c 0,20,21
 482 604 482 604 481.5 614.5 c 128,-1,22
 481 625 481 625 480 630 c 1,23,-1
 588 630 l 1,24,25
 590 622 590 622 590.5 607 c 128,-1,26
 591 592 591 592 591 582 c 0,27,28
 591 531 591 531 570.5 491 c 128,-1,29
 550 451 550 451 512 416 c 1,30,31
 530 384 530 384 540 345.5 c 128,-1,32
 550 307 550 307 550 262 c 0,0,1
426 262 m 0,33,34
 426 340 426 340 392.5 385.5 c 128,-1,35
 359 431 359 431 299 431 c 256,36,37
 239 431 239 431 205.5 385.5 c 128,-1,38
 172 340 172 340 172 262 c 0,39,40
 172 183 172 183 205.5 137 c 128,-1,41
 239 91 239 91 299 91 c 256,42,43
 359 91 359 91 392.5 137 c 128,-1,44
 426 183 426 183 426 262 c 0,33,34
EndSplineSet
EndChar

StartChar: uni01A2
Encoding: 358 418 356
Width: 1050
GlyphClass: 2
Flags: W
LayerCount: 2
Fore
SplineSet
704 347 m 0,0,1
 704 258 704 258 678 190.5 c 128,-1,2
 652 123 652 123 608 77.5 c 128,-1,3
 564 32 564 32 504.5 9 c 128,-1,4
 445 -14 445 -14 379 -14 c 0,5,6
 314 -14 314 -14 255 9 c 128,-1,7
 196 32 196 32 151.5 77.5 c 128,-1,8
 107 123 107 123 80.5 190.5 c 128,-1,9
 54 258 54 258 54 347 c 256,10,11
 54 436 54 436 81 503.5 c 128,-1,12
 108 571 108 571 153 616.5 c 128,-1,13
 198 662 198 662 256.5 685 c 128,-1,14
 315 708 315 708 379 708 c 0,15,16
 432 708 432 708 481 692.5 c 128,-1,17
 530 677 530 677 571 647 c 1,18,19
 603 672 603 672 645.5 690 c 128,-1,20
 688 708 688 708 744 708 c 0,21,22
 816 708 816 708 860 688.5 c 128,-1,23
 904 669 904 669 927.5 633 c 128,-1,24
 951 597 951 597 959 546.5 c 128,-1,25
 967 496 967 496 967 435 c 2,26,-1
 967 0 l 1,27,-1
 840 0 l 1,28,-1
 840 421 l 2,29,30
 840 471 840 471 834 505 c 128,-1,31
 828 539 828 539 815 559.5 c 128,-1,32
 802 580 802 580 781.5 589 c 128,-1,33
 761 598 761 598 732 598 c 0,34,35
 706 598 706 598 684 589.5 c 128,-1,36
 662 581 662 581 644 568 c 1,37,38
 672 525 672 525 688 470.5 c 128,-1,39
 704 416 704 416 704 347 c 0,0,1
186 347 m 256,40,41
 186 290 186 290 199.5 244 c 128,-1,42
 213 198 213 198 238 165 c 128,-1,43
 263 132 263 132 299 114.5 c 128,-1,44
 335 97 335 97 379 97 c 0,45,46
 424 97 424 97 459.5 114.5 c 128,-1,47
 495 132 495 132 520 165 c 128,-1,48
 545 198 545 198 558.5 244 c 128,-1,49
 572 290 572 290 572 347 c 256,50,51
 572 404 572 404 558.5 450 c 128,-1,52
 545 496 545 496 520 528.5 c 128,-1,53
 495 561 495 561 459.5 579 c 128,-1,54
 424 597 424 597 379 597 c 0,55,56
 335 597 335 597 299 579 c 128,-1,57
 263 561 263 561 238 528.5 c 128,-1,58
 213 496 213 496 199.5 450 c 128,-1,59
 186 404 186 404 186 347 c 256,40,41
EndSplineSet
EndChar

StartChar: uni01A3
Encoding: 359 419 357
Width: 846
GlyphClass: 2
Flags: W
LayerCount: 2
Fore
SplineSet
537 262 m 0,0,1
 537 200 537 200 519 149 c 128,-1,2
 501 98 501 98 468.5 62 c 128,-1,3
 436 26 436 26 391.5 6 c 128,-1,4
 347 -14 347 -14 293 -14 c 0,5,6
 240 -14 240 -14 195 6 c 128,-1,7
 150 26 150 26 117.5 62 c 128,-1,8
 85 98 85 98 66.5 149 c 128,-1,9
 48 200 48 200 48 262 c 256,10,11
 48 324 48 324 66.5 374.5 c 128,-1,12
 85 425 85 425 118 461 c 128,-1,13
 151 497 151 497 195.5 516.5 c 128,-1,14
 240 536 240 536 293 536 c 0,15,16
 335 536 335 536 370.5 524 c 128,-1,17
 406 512 406 512 436 489 c 1,18,19
 462 508 462 508 499.5 521 c 128,-1,20
 537 534 537 534 580 534 c 0,21,22
 643 534 643 534 681 515 c 128,-1,23
 719 496 719 496 740 463 c 128,-1,24
 761 430 761 430 768 385 c 128,-1,25
 775 340 775 340 775 287 c 2,26,-1
 775 -185 l 1,27,-1
 654 -185 l 1,28,-1
 654 273 l 2,29,30
 654 313 654 313 650.5 342 c 128,-1,31
 647 371 647 371 638 390.5 c 128,-1,32
 629 410 629 410 612.5 419.5 c 128,-1,33
 596 429 596 429 570 429 c 0,34,35
 548 429 548 429 531.5 423.5 c 128,-1,36
 515 418 515 418 502 409 c 1,37,38
 519 378 519 378 528 341.5 c 128,-1,39
 537 305 537 305 537 262 c 0,0,1
413 262 m 0,40,41
 413 340 413 340 381 385.5 c 128,-1,42
 349 431 349 431 293 431 c 0,43,44
 233 431 233 431 202.5 385.5 c 128,-1,45
 172 340 172 340 172 262 c 0,46,47
 172 183 172 183 204 137 c 128,-1,48
 236 91 236 91 293 91 c 0,49,50
 349 91 349 91 381 137 c 128,-1,51
 413 183 413 183 413 262 c 0,40,41
EndSplineSet
EndChar

StartChar: uni01A4
Encoding: 360 420 358
Width: 740
GlyphClass: 2
Flags: W
LayerCount: 2
Fore
SplineSet
200 587 m 1,0,1
 157 584 157 584 136 566 c 128,-1,2
 115 548 115 548 115 519 c 0,3,4
 115 512 115 512 115.5 502 c 128,-1,5
 116 492 116 492 118 481 c 1,6,-1
 21 469 l 1,7,8
 18 479 18 479 15 497 c 128,-1,9
 12 515 12 515 12 532 c 0,10,11
 12 574 12 574 29 603 c 128,-1,12
 46 632 46 632 74.5 650.5 c 128,-1,13
 103 669 103 669 141 679 c 128,-1,14
 179 689 179 689 221.5 693.5 c 128,-1,15
 264 698 264 698 309 699 c 128,-1,16
 354 700 354 700 396 700 c 0,17,18
 547 700 547 700 627.5 645 c 128,-1,19
 708 590 708 590 708 473 c 0,20,21
 708 412 708 412 686.5 369 c 128,-1,22
 665 326 665 326 624.5 298.5 c 128,-1,23
 584 271 584 271 524.5 258 c 128,-1,24
 465 245 465 245 390 245 c 2,25,-1
 327 245 l 1,26,-1
 327 0 l 1,27,-1
 200 0 l 1,28,-1
 200 587 l 1,0,1
405 591 m 0,29,30
 373 591 373 591 353 590.5 c 128,-1,31
 333 590 333 590 327 590 c 1,32,-1
 327 352 l 1,33,-1
 388 352 l 2,34,35
 433 352 433 352 468 357.5 c 128,-1,36
 503 363 503 363 527.5 377 c 128,-1,37
 552 391 552 391 564.5 414.5 c 128,-1,38
 577 438 577 438 577 474 c 0,39,40
 577 508 577 508 564 531 c 128,-1,41
 551 554 551 554 528 567 c 128,-1,42
 505 580 505 580 473.5 585.5 c 128,-1,43
 442 591 442 591 405 591 c 0,29,30
EndSplineSet
EndChar

StartChar: uni01A5
Encoding: 361 421 359
Width: 596
GlyphClass: 2
Flags: W
LayerCount: 2
Fore
SplineSet
198 519 m 1,0,1
 219 526 219 526 244 530 c 128,-1,2
 269 534 269 534 290 534 c 0,3,4
 349 534 349 534 397 515 c 128,-1,5
 445 496 445 496 479 460.5 c 128,-1,6
 513 425 513 425 531.5 374.5 c 128,-1,7
 550 324 550 324 550 261 c 0,8,9
 550 201 550 201 534.5 151 c 128,-1,10
 519 101 519 101 489.5 65 c 128,-1,11
 460 29 460 29 417 9 c 128,-1,12
 374 -11 374 -11 318 -11 c 0,13,14
 280 -11 280 -11 249.5 -2 c 128,-1,15
 219 7 219 7 198 18 c 1,16,-1
 198 -185 l 1,17,-1
 77 -185 l 1,18,-1
 77 588 l 2,19,20
 77 635 77 635 85 670 c 128,-1,21
 93 705 93 705 112.5 728.5 c 128,-1,22
 132 752 132 752 164.5 764 c 128,-1,23
 197 776 197 776 245 776 c 0,24,25
 259 776 259 776 279 773.5 c 128,-1,26
 299 771 299 771 316 766 c 1,27,-1
 302 676 l 1,28,29
 292 679 292 679 280.5 680.5 c 128,-1,30
 269 682 269 682 258 682 c 0,31,32
 226 682 226 682 212 661.5 c 128,-1,33
 198 641 198 641 198 599 c 2,34,-1
 198 519 l 1,0,1
426 259 m 0,35,36
 426 291 426 291 417 322 c 128,-1,37
 408 353 408 353 390 377 c 128,-1,38
 372 401 372 401 344 415.5 c 128,-1,39
 316 430 316 430 279 430 c 0,40,41
 252 430 252 430 230.5 426 c 128,-1,42
 209 422 209 422 198 417 c 1,43,-1
 198 123 l 1,44,45
 214 112 214 112 240.5 102.5 c 128,-1,46
 267 93 267 93 298 93 c 0,47,48
 365 93 365 93 395.5 138 c 128,-1,49
 426 183 426 183 426 259 c 0,35,36
EndSplineSet
EndChar

StartChar: uni01A6
Encoding: 362 422 360
Width: 640
GlyphClass: 2
Flags: W
LayerCount: 2
Fore
SplineSet
283 698 m 0,0,1
 429 698 429 698 506.5 643 c 128,-1,2
 584 588 584 588 584 477 c 0,3,4
 584 407 584 407 548 360 c 128,-1,5
 512 313 512 313 445 288 c 1,6,7
 463 264 463 264 492 220.5 c 128,-1,8
 521 177 521 177 553 123 c 128,-1,9
 585 69 585 69 617.5 8.5 c 128,-1,10
 650 -52 650 -52 675 -109 c 1,11,-1
 536 -109 l 1,12,13
 508 -52 508 -52 477 5 c 128,-1,14
 446 62 446 62 416.5 111.5 c 128,-1,15
 387 161 387 161 360.5 200.5 c 128,-1,16
 334 240 334 240 315 264 c 1,17,-1
 209 264 l 1,18,-1
 209 0 l 1,19,-1
 83 0 l 1,20,-1
 83 776 l 1,21,-1
 209 776 l 1,22,-1
 209 696 l 1,23,24
 225 697 225 697 245 697.5 c 128,-1,25
 265 698 265 698 283 698 c 0,0,1
285 591 m 0,26,27
 260 591 260 591 240 590.5 c 128,-1,28
 220 590 220 590 209 589 c 1,29,-1
 209 365 l 1,30,-1
 266 365 l 2,31,32
 313 365 313 365 348 370 c 128,-1,33
 383 375 383 375 406 387.5 c 128,-1,34
 429 400 429 400 440.5 422 c 128,-1,35
 452 444 452 444 452 478 c 0,36,37
 452 510 452 510 440 532 c 128,-1,38
 428 554 428 554 406 567 c 128,-1,39
 384 580 384 580 353 585.5 c 128,-1,40
 322 591 322 591 285 591 c 0,26,27
EndSplineSet
EndChar

